SplineFontDB: 3.2
FontName: Kiyaan
FullName: Kiyaan
FamilyName: Kiyaan
Weight: Book
Copyright: Created by Ahmed Rafyq with Reserved Font Name "Kiyaan"\nLicensed under the SIL Open Font License, Version 1.1.\n\nKiyaan is a Sans-Serif typeface family designed on December 1, 2018, by Maldivian designer Ahmed Rafeeq Mohamed ("Kiyaan" means "King, Royal" in Persian).\n\nThe intention of developing this font was to get approval from Google to add this font in google fonts and use it in google applications such as google classroom and other applications.\n\nCreated on December 1, 2018\n
UComments: "The Thaana letters used in font Kiyaan+AK4A are Curved in Adobe Illustrator+AK4A CC+AAoACgAA-Kiyaan is a Sans-Serif typeface family designed on December 1, 2018, by Maldivian designer Ahmed Rafeeq Mohamed (+ACIA-Kiyaan+ACIA means +ACIA-King, Royal+ACIA in Persian).+AAoACgAA-The English letters used in font Kiyaan+AK4A are Open Sans. Open Sans is a clean and modern sans-serif typeface designed by Steve Matteson and commissioned by Google. It is specially designed for legibility across print, web, and mobile interfaces.+AAoACgAA-Open Sans is excellent for any type of use. It+IBkA-s incredibly readable in small sizes and also works great when printed in huge letters. The best thing of all, it+IBkA-s a free font! You are free to use and download it for your next design project.+AAoACgAA-It+IBkA-s a well-known and modern font that is being used more and more on new websites. Because of its simplicity, it makes your content easily readable. The same thing goes for offline content. When printed it will make your documents amazing."

StartChar: .notdef
Encoding: 65536 -1 0
Width: 2048
Flags: W
LayerCount: 2
Fore
SplineSet
256 0 m 1
 256 1536 l 1
 1792 1536 l 1
 1792 0 l 1
 256 0 l 1
384 128 m 1
 1664 128 l 1
 1664 1408 l 1
 384 1408 l 1
 384 128 l 1
EndSplineSet
Validated: 1
EndChar

StartChar: exclam
Encoding: 33 33 2
Width: 682
Flags: HMW
HStem: -29 271<318.667 355>
VStem: 216 241<84.6665 128 84.6665 151.333> 234 207<1462 1462> 285 105<403 403>
LayerCount: 2
Fore
SplineSet
390 403 m 1x90
 285 403 l 1x90
 234 1462 l 1
 441 1462 l 1xa0
 390 403 l 1x90
216 106 m 0xc0
 216 197 256 242 336 242 c 0
 375 242 404 230 426 207 c 0
 446 184 457 150 457 106 c 0
 457 63 446 30 425 6 c 0
 404 -17 374 -29 336 -29 c 0
 301 -29 273 -18 250 2 c 0
 227 24 216 58 216 106 c 0xc0
EndSplineSet
Validated: 1
EndChar

StartChar: quotedbl
Encoding: 34 34 3
Width: 911
Flags: MW
HStem: 833 528<254 359 254 254 623 623 623 727>
VStem: 254 105<833 833> 623 104<833 833>
LayerCount: 2
Fore
SplineSet
399 1361 m 1
 359 833 l 1
 254 833 l 1
 213 1361 l 1
 399 1361 l 1
768 1361 m 1
 727 833 l 1
 623 833 l 1
 582 1361 l 1
 768 1361 l 1
EndSplineSet
Validated: 1
EndChar

StartChar: numbersign
Encoding: 35 35 4
Width: 1323
Flags: MW
HStem: 0 21G<233 369 233 233 670 807 670 670> 430 129<51 313 51 338 475 754 51 451 915 1198> 899 127<129 406 129 428 129 541 567 844 1006 1270>
LayerCount: 2
Fore
SplineSet
981 899 m 1
 915 559 l 1
 1198 559 l 1
 1198 430 l 1
 891 430 l 1
 807 0 l 1
 670 0 l 1
 754 430 l 1
 451 430 l 1
 369 0 l 1
 233 0 l 1
 313 430 l 1
 51 430 l 1
 51 559 l 1
 338 559 l 1
 406 899 l 1
 129 899 l 1
 129 1026 l 1
 428 1026 l 1
 510 1462 l 1
 649 1462 l 1
 567 1026 l 1
 872 1026 l 1
 956 1462 l 1
 1090 1462 l 1
 1006 1026 l 1
 1270 1026 l 1
 1270 899 l 1
 981 899 l 1
475 559 m 1
 778 559 l 1
 844 899 l 1
 541 899 l 1
 475 559 l 1
EndSplineSet
Validated: 1
EndChar

StartChar: dollar
Encoding: 36 36 5
Width: 1180
Flags: MW
VStem: 150 169<1031.67 1080 1031.67 1098.67> 520 129<-119 104 104 104 252 641 848 1235 1235 1235 1374 1554> 866 170<403.667 460>
LayerCount: 2
Fore
SplineSet
1036 449 m 0
 1036 358.333007812 1002 283.5 934 224.5 c 0
 866 165.5 771 128.333007812 649 113 c 1
 649 -119 l 1
 520 -119 l 1
 520 104 l 1
 445.333007812 104 373 109.833007812 303 121.5 c 0
 233 133.166992188 175.666992188 149.333007812 131 170 c 1
 131 326 l 1
 186.333007812 301.333007812 250.166992188 281.166992188 322.5 265.5 c 0
 394.833007812 249.833007812 460.666992188 242 520 242 c 1
 520 682 l 1
 383.333007812 725.333007812 287.5 775.666992188 232.5 833 c 0
 177.5 890.333007812 150 964.333007812 150 1055 c 0
 150 1142.33007812 183.833007812 1214 251.5 1270 c 0
 319.166992188 1326 408.666992188 1360 520 1372 c 1
 520 1554 l 1
 649 1554 l 1
 649 1374 l 1
 771.666992188 1370.66992188 890 1346 1004 1300 c 1
 952 1169 l 1
 852.666992188 1208.33007812 751.666992188 1231.66992188 649 1239 c 1
 649 805 l 1
 753.666992188 771.666992188 832 739.166992188 884 707.5 c 0
 936 675.833007812 974.333007812 639.5 999 598.5 c 0
 1023.66992188 557.5 1036 507.666992188 1036 449 c 0
866 436 m 0
 866 484 851.166992188 522.833007812 821.5 552.5 c 0
 791.833007812 582.166992188 734.333007812 611.666992188 649 641 c 1
 649 252 l 1
 793.666992188 272 866 333.333007812 866 436 c 0
319 1057 m 0
 319 1006.33007812 334 965.666992188 364 935 c 0
 394 904.333007812 446 875.333007812 520 848 c 1
 520 1235 l 1
 454 1224.33007812 404 1203.5 370 1172.5 c 0
 336 1141.5 319 1103 319 1057 c 0
EndSplineSet
Validated: 524289
EndChar

StartChar: percent
Encoding: 37 37 6
Width: 1699
Flags: MW
HStem: -20 120<1252 1308 1252 1329.33> 0 21G<365 512 365 365> 565 121<371.333 448.333> 776 121<1252 1308> 1364 119<371.333 447.333 350.333 453.667>
VStem: 104 138<969.333 1082.67 969.333 1101.67> 563 137<950 1099 950 1138.67> 985 137<383 497 383 515.667> 1444 137<382.333 497>
LayerCount: 2
Fore
SplineSet
242 1026 m 0x3f80
 242 912.666992188 254.333007812 827.666992188 279 771 c 0
 303.666992188 714.333007812 343.666992188 686 399 686 c 0
 508.333007812 686 563 799.333007812 563 1026 c 0
 563 1251.33007812 508.333007812 1364 399 1364 c 0
 343.666992188 1364 303.666992188 1336 279 1280 c 0
 254.333007812 1224 242 1139.33007812 242 1026 c 0x3f80
700 1026 m 0
 700 874 674.5 759.166992188 623.5 681.5 c 0
 572.5 603.833007812 497.666992188 565 399 565 c 0
 305.666992188 565 233.166992188 604.666992188 181.5 684 c 0
 129.833007812 763.333007812 104 877.333007812 104 1026 c 0
 104 1177.33007812 128.833007812 1291.33007812 178.5 1368 c 0
 228.166992188 1444.66992188 301.666992188 1483 399 1483 c 0
 495.666992188 1483 570 1443.33007812 622 1364 c 0
 674 1284.66992188 700 1172 700 1026 c 0
1122 440 m 0
 1122 326 1134.33007812 240.833007812 1159 184.5 c 0
 1183.66992188 128.166992188 1224 100 1280 100 c 0xbf80
 1336 100 1377.33007812 127.833007812 1404 183.5 c 0
 1430.66992188 239.166992188 1444 324.666992188 1444 440 c 0
 1444 554 1430.66992188 638.5 1404 693.5 c 0
 1377.33007812 748.5 1336 776 1280 776 c 0
 1224 776 1183.66992188 748.5 1159 693.5 c 0
 1134.33007812 638.5 1122 554 1122 440 c 0
1581 440 m 0
 1581 288.666992188 1555.5 174.166992188 1504.5 96.5 c 0
 1453.5 18.8330078125 1378.66992188 -20 1280 -20 c 0
 1185.33007812 -20 1112.5 19.6669921875 1061.5 99 c 0
 1010.5 178.333007812 985 292 985 440 c 0
 985 591.333007812 1009.83007812 705.333007812 1059.5 782 c 0
 1109.16992188 858.666992188 1182.66992188 897 1280 897 c 0
 1374.66992188 897 1448.5 857.833007812 1501.5 779.5 c 0
 1554.5 701.166992188 1581 588 1581 440 c 0
1323 1462 m 1
 512 0 l 1
 365 0 l 1x7f80
 1176 1462 l 1
 1323 1462 l 1
EndSplineSet
Validated: 524289
EndChar

StartChar: ampersand
Encoding: 38 38 7
Width: 1495
Flags: MW
HStem: -20 149<526 615> 0 21G<1262 1491 1262 1262> 1348 137<584.333 642.667>
VStem: 113 172<344 404.667 344 422.333> 250 164<1148 1198 1148 1217> 803 166<1146.33 1199.67> 1229 168<725 725>
LayerCount: 2
Fore
SplineSet
414 1171 m 0x2e
 414 1125 426 1081.16992188 450 1039.5 c 0
 474 997.833007812 515 947.666992188 573 889 c 1
 659 939 718.833007812 985.166992188 752.5 1027.5 c 0
 786.166992188 1069.83007812 803 1118.66992188 803 1174 c 0
 803 1225.33007812 785.833007812 1267.16992188 751.5 1299.5 c 0
 717.166992188 1331.83007812 671.333007812 1348 614 1348 c 0
 554.666992188 1348 506.5 1332 469.5 1300 c 0
 432.5 1268 414 1225 414 1171 c 0x2e
569 129 m 0xb6
 729.666992188 129 863 180.333007812 969 283 c 1
 532 707 l 1
 458 661.666992188 405.666992188 624.166992188 375 594.5 c 0
 344.333007812 564.833007812 321.666992188 533 307 499 c 0
 292.333007812 465 285 426.333007812 285 383 c 0
 285 305 310.833007812 243.166992188 362.5 197.5 c 0
 414.166992188 151.833007812 483 129 569 129 c 0xb6
113 379 m 0
 113 465.666992188 136.166992188 542.333007812 182.5 609 c 0
 228.833007812 675.666992188 312 743 432 811 c 1
 375.333007812 874.333007812 336.833007812 922.333007812 316.5 955 c 0
 296.166992188 987.666992188 280 1021.66992188 268 1057 c 0
 256 1092.33007812 250 1129 250 1167 c 0
 250 1267 282.666992188 1345 348 1401 c 0
 413.333007812 1457 504.333007812 1485 621 1485 c 0
 729 1485 814 1457.16992188 876 1401.5 c 0
 938 1345.83007812 969 1268.33007812 969 1169 c 0
 969 1097.66992188 946.333007812 1031.83007812 901 971.5 c 0
 855.666992188 911.166992188 780.666992188 850 676 788 c 1
 1083 397 l 1
 1120.33007812 438.333007812 1150.16992188 486.833007812 1172.5 542.5 c 0
 1194.83007812 598.166992188 1213.66992188 659 1229 725 c 1
 1397 725 l 1
 1351.66992188 534.333007812 1283.33007812 389.666992188 1192 291 c 1
 1491 0 l 1
 1262 0 l 1x6e
 1077 178 l 1
 998.333007812 107.333007812 918.333007812 56.6669921875 837 26 c 0
 755.666992188 -4.6669921875 665 -20 565 -20 c 0
 421.666992188 -20 310.5 15.3330078125 231.5 86 c 0
 152.5 156.666992188 113 254.333007812 113 379 c 0
EndSplineSet
Validated: 524289
EndChar

StartChar: quotesingle
Encoding: 39 39 8
Width: 453
Flags: MW
HStem: 934 528<174 279 174 174>
VStem: 174 105<934 934>
LayerCount: 2
Fore
SplineSet
319 1462 m 1
 279 934 l 1
 174 934 l 1
 133 1462 l 1
 319 1462 l 1
EndSplineSet
Validated: 1
EndChar

StartChar: parenleft
Encoding: 40 40 9
Width: 606
Flags: HMW
VStem: 82 174<483 644.333 483 649.333>
LayerCount: 2
Fore
SplineSet
82 561 m 0
 82 738 108 903 160 1057 c 0
 211 1211 286 1346 383 1462 c 1
 545 1462 l 1
 449 1333 377 1192 328 1038 c 0
 280 884 256 726 256 563 c 0
 256 403 281 247 330 94 c 0
 379 -59 450 -198 543 -324 c 1
 383 -324 l 1
 285 -211 210 -78 159 73 c 0
 108 224 82 387 82 561 c 0
EndSplineSet
Validated: 1
Substitution2: "'rtla' Right to Left Alternates lookup 0 subtable" parenright
EndChar

StartChar: parenright
Encoding: 41 41 10
Width: 606
Flags: MW
VStem: 350 174<483 644.333>
LayerCount: 2
Fore
SplineSet
524 561 m 0
 524 385.666992188 498.166992188 222.333007812 446.5 71 c 0
 394.833007812 -80.3330078125 320.333007812 -212 223 -324 c 1
 63 -324 l 1
 155.666992188 -198.666992188 226.666992188 -59.5 276 93.5 c 0
 325.333007812 246.5 350 403 350 563 c 0
 350 725.666992188 325.833007812 884 277.5 1038 c 0
 229.166992188 1192 157 1333.33007812 61 1462 c 1
 223 1462 l 1
 321 1345.33007812 395.666992188 1209.83007812 447 1055.5 c 0
 498.333007812 901.166992188 524 736.333007812 524 561 c 0
EndSplineSet
Validated: 524289
Substitution2: "'rtla' Right to Left Alternates lookup 0 subtable" parenleft
EndChar

StartChar: asterisk
Encoding: 42 42 11
Width: 1130
Flags: W
LayerCount: 2
Fore
SplineSet
657 1556 m 1
 614 1161 l 1
 1012 1272 l 1
 1038 1090 l 1
 657 1059 l 1
 905 733 l 1
 733 639 l 1
 557 1001 l 1
 397 639 l 1
 221 733 l 1
 463 1059 l 1
 86 1090 l 1
 115 1272 l 1
 506 1161 l 1
 463 1556 l 1
 657 1556 l 1
EndSplineSet
Validated: 1
EndChar

StartChar: plus
Encoding: 43 43 12
Width: 1171
Flags: MW
HStem: 653 138<104 514 104 514 653 1065>
VStem: 514 139<227 653 227 653 791 1219>
LayerCount: 2
Fore
SplineSet
653 791 m 1
 1065 791 l 1
 1065 653 l 1
 653 653 l 1
 653 227 l 1
 514 227 l 1
 514 653 l 1
 104 653 l 1
 104 791 l 1
 514 791 l 1
 514 1219 l 1
 653 1219 l 1
 653 791 l 1
EndSplineSet
Validated: 1
EndChar

StartChar: comma
Encoding: 44 44 13
Width: 502
Flags: MW
HStem: -264 502<168 188 63 350>
VStem: 63 302
LayerCount: 2
Fore
SplineSet
350 238 m 1
 365 215 l 1
 347.666992188 148.333007812 322.666992188 70.8330078125 290 -17.5 c 0
 257.333007812 -105.833007812 223.333007812 -188 188 -264 c 1
 63 -264 l 1
 81 -194.666992188 100.833007812 -109 122.5 -7 c 0
 144.166992188 95 159.333007812 176.666992188 168 238 c 1
 350 238 l 1
EndSplineSet
Validated: 524289
EndChar

StartChar: hyphen
Encoding: 45 45 14
Width: 659
Flags: MW
HStem: 473 152<84 575 84 575>
VStem: 84 491<473 625 473 625>
LayerCount: 2
Fore
SplineSet
84 473 m 1
 84 625 l 1
 575 625 l 1
 575 473 l 1
 84 473 l 1
EndSplineSet
Validated: 1
EndChar

StartChar: period
Encoding: 46 46 15
Width: 545
Flags: MW
HStem: -29 271
VStem: 152 241<84.3325 128.333 84.3325 128.333>
LayerCount: 2
Fore
SplineSet
152 106 m 0
 152 150.666992188 162.166992188 184.499023438 182.5 207.499023438 c 0
 202.833007812 230.499023438 232 241.999023438 270 241.999023438 c 0
 308.666992188 241.999023438 338.833007812 230.499023438 360.5 207.499023438 c 0
 382.166992188 184.499023438 393 150.666015625 393 105.999023438 c 0
 393 62.666015625 382 29.3330078125 360 6 c 0
 338 -17.3330078125 308 -29 270 -29 c 0
 236 -29 207.833007812 -18.5 185.5 2.5 c 0
 163.166992188 23.5 152 58 152 106 c 0
EndSplineSet
Validated: 524289
EndChar

StartChar: slash
Encoding: 47 47 16
Width: 752
Flags: MW
HStem: 0 21G<20 186 20 20>
LayerCount: 2
Fore
SplineSet
731 1462 m 1
 186 0 l 1
 20 0 l 1
 565 1462 l 1
 731 1462 l 1
EndSplineSet
Validated: 1
EndChar

StartChar: zero
Encoding: 48 48 17
Width: 1171
Flags: HMW
HStem: -20 143<529.333 639.333 529.333 666> 1341 144<529.333 639.333>
VStem: 102 168<626.667 839.333 626.667 860.333> 899 170<628 838>
LayerCount: 2
Fore
SplineSet
1069 733 m 0
 1069 480 1029 292 950 167 c 0
 870 42 748 -20 584 -20 c 0
 427 -20 307 44 225 172 c 0
 143 299 102 486 102 733 c 0
 102 988 142 1177 221 1300 c 0
 300 1423 421 1485 584 1485 c 0
 743 1485 863 1421 946 1292 c 0
 1028 1163 1069 977 1069 733 c 0
270 733 m 0
 270 520 295 366 345 268 c 0
 395 172 475 123 584 123 c 0
 695 123 775 172 824 270 c 0
 874 369 899 523 899 733 c 0
 899 943 874 1097 824 1194 c 0
 775 1292 695 1341 584 1341 c 0
 475 1341 395 1293 345 1196 c 0
 295 1100 270 946 270 733 c 0
EndSplineSet
Validated: 1
EndChar

StartChar: one
Encoding: 49 49 18
Width: 1171
Flags: HMW
HStem: 0 21G<553 715 553 553>
VStem: 553 162<0 1042 1042 1085.33>
LayerCount: 2
Fore
SplineSet
715 0 m 1
 553 0 l 1
 553 1042 l 2
 553 1129 556 1211 561 1288 c 1
 547 1274 531 1259 514 1244 c 0
 497 1229 417 1164 276 1049 c 1
 188 1163 l 1
 575 1462 l 1
 715 1462 l 1
 715 0 l 1
EndSplineSet
Validated: 1
EndChar

StartChar: two
Encoding: 50 50 19
Width: 1171
Flags: HMW
HStem: 0 154<309 1061 309 1061> 1341 142<530.667 603>
VStem: 829 170<1059.33 1126>
LayerCount: 2
Fore
SplineSet
1061 0 m 1
 100 0 l 1
 100 143 l 1
 485 530 l 2
 602 649 680 733 717 784 c 0
 754 835 782 884 801 932 c 0
 820 980 829 1032 829 1087 c 0
 829 1165 805 1227 758 1272 c 0
 711 1318 645 1341 561 1341 c 0
 500 1341 443 1331 388 1311 c 0
 334 1291 274 1255 207 1202 c 1
 119 1315 l 1
 254 1427 400 1483 559 1483 c 0
 696 1483 804 1448 882 1378 c 0
 960 1307 999 1213 999 1094 c 0
 999 1001 973 910 921 819 c 0
 869 728 772 614 629 475 c 2
 309 162 l 1
 309 154 l 1
 1061 154 l 1
 1061 0 l 1
EndSplineSet
Validated: 1
EndChar

StartChar: three
Encoding: 51 51 20
Width: 1171
Flags: HMW
HStem: -20 141<468 583> 684 143<317 461 317 463> 1341 142<529 603>
VStem: 834 172<1071.33 1147.67> 879 172<344.333 462.667 344.333 506.667>
LayerCount: 2
Fore
SplineSet
1006 1118 m 0xf0
 1006 1025 980 948 928 889 c 0
 875 830 801 790 705 770 c 1
 705 762 l 1
 822 747 909 710 966 650 c 0
 1023 590 1051 511 1051 414 c 0
 1051 275 1003 168 906 92 c 0
 809 18 672 -20 494 -20 c 0
 417 -20 346 -14 282 -2 c 0
 217 9 155 30 94 59 c 1
 94 217 l 1
 157 186 225 162 296 146 c 0
 368 129 436 121 500 121 c 0
 753 121 879 220 879 418 c 0xe8
 879 595 740 684 461 684 c 2
 317 684 l 1
 317 827 l 1
 463 827 l 2
 577 827 667 852 734 902 c 0
 801 953 834 1023 834 1112 c 0
 834 1183 810 1239 760 1280 c 0
 712 1321 645 1341 561 1341 c 0
 497 1341 437 1332 380 1315 c 0
 323 1298 259 1266 186 1219 c 1
 102 1331 l 1
 162 1378 231 1416 310 1442 c 0
 388 1470 470 1483 557 1483 c 0
 699 1483 809 1450 888 1386 c 0
 967 1320 1006 1231 1006 1118 c 0xf0
EndSplineSet
Validated: 1
EndChar

StartChar: four
Encoding: 52 52 21
Width: 1171
Flags: HMW
HStem: 0 21G<754 913 754 754> 336 151<209 754 209 754 913 1130>
VStem: 754 159<0 336 0 336 487 973 973 1020.67>
LayerCount: 2
Fore
SplineSet
1130 336 m 1
 913 336 l 1
 913 0 l 1
 754 0 l 1
 754 336 l 1
 43 336 l 1
 43 481 l 1
 737 1470 l 1
 913 1470 l 1
 913 487 l 1
 1130 487 l 1
 1130 336 l 1
754 487 m 1
 754 973 l 2
 754 1068 757 1176 764 1296 c 1
 756 1296 l 1
 724 1232 694 1179 666 1137 c 2
 209 487 l 1
 754 487 l 1
EndSplineSet
Validated: 1
EndChar

StartChar: five
Encoding: 53 53 22
Width: 1171
Flags: HMW
HStem: -20 143<478.333 570.667 478.333 594.667> 752 141<519 633> 1309 153<365 950 365 365>
VStem: 883 170<393.667 531.333 389.333 548>
LayerCount: 2
Fore
SplineSet
557 893 m 0
 711 893 832 855 920 778 c 0
 1009 702 1053 598 1053 465 c 0
 1053 314 1005 195 908 109 c 0
 812 23 679 -20 510 -20 c 0
 345 -20 220 6 133 59 c 1
 133 219 l 1
 180 189 238 166 307 148 c 0
 376 132 445 123 512 123 c 0
 629 123 720 151 786 206 c 0
 850 261 883 341 883 446 c 0
 883 650 758 752 508 752 c 0
 445 752 360 742 254 723 c 1
 168 778 l 1
 223 1462 l 1
 950 1462 l 1
 950 1309 l 1
 365 1309 l 1
 328 870 l 1
 405 885 481 893 557 893 c 0
EndSplineSet
Validated: 1
EndChar

StartChar: six
Encoding: 54 54 23
Width: 1171
Flags: HMW
HStem: -20 141<576.667 655.333 576.667 680.667> 780 131<586 664.333> 1346 137<703.667 815>
VStem: 117 170<523.667 529.333> 907 164<412.667 517.333>
LayerCount: 2
Fore
SplineSet
117 625 m 0
 117 912 173 1127 284 1270 c 0
 396 1412 561 1483 780 1483 c 0
 855 1483 915 1477 958 1464 c 1
 958 1321 l 1
 907 1338 848 1346 782 1346 c 0
 625 1346 506 1297 423 1200 c 0
 340 1102 295 948 287 739 c 1
 299 739 l 1
 372 854 488 911 647 911 c 0
 778 911 882 871 958 792 c 0
 1033 713 1071 605 1071 469 c 0
 1071 317 1030 198 946 110 c 0
 864 24 751 -20 610 -20 c 0
 459 -20 339 37 250 150 c 0
 161 264 117 422 117 625 c 0
608 121 m 0
 703 121 776 151 828 210 c 0
 881 270 907 356 907 469 c 0
 907 566 883 642 834 697 c 0
 785 752 713 780 616 780 c 0
 556 780 501 768 451 743 c 0
 401 718 361 684 332 641 c 0
 302 598 287 553 287 506 c 0
 287 437 300 373 327 314 c 0
 354 255 392 208 440 173 c 0
 490 138 545 121 608 121 c 0
EndSplineSet
Validated: 1
EndChar

StartChar: seven
Encoding: 55 55 24
Width: 1171
Flags: MW
HStem: 0 21G<285 285 285 469> 1309 153<94 891 94 1067>
LayerCount: 2
Fore
SplineSet
285 0 m 1
 891 1309 l 1
 94 1309 l 1
 94 1462 l 1
 1067 1462 l 1
 1067 1329 l 1
 469 0 l 1
 285 0 l 1
EndSplineSet
Validated: 1
EndChar

StartChar: eight
Encoding: 56 56 25
Width: 1171
Flags: HMW
HStem: -20 135<535.667 635.667 535.667 663.667> 1348 135<540.333 624.333>
VStem: 104 164<329 405 329 456.667> 152 163<1097.67 1161.33 1097.33 1188> 854 164<1097.33 1161.67> 901 164<336.333 409.333>
LayerCount: 2
Fore
SplineSet
584 1483 m 0xd0
 717 1483 823 1452 901 1390 c 0xd4
 979 1328 1018 1242 1018 1133 c 0xc8
 1018 1061 996 995 951 936 c 0
 906 877 835 823 737 774 c 1
 856 717 940 658 990 596 c 0
 1040 533 1065 461 1065 379 c 0
 1065 258 1023 161 938 88 c 0
 853 16 737 -20 590 -20 c 0
 434 -20 314 14 230 82 c 0
 146 151 104 248 104 373 c 0xe4
 104 540 206 671 410 764 c 1
 318 816 252 872 212 932 c 0
 172 993 152 1060 152 1135 c 0
 152 1241 191 1326 270 1388 c 0
 348 1452 453 1483 584 1483 c 0xd0
268 369 m 0xe4
 268 289 296 227 352 182 c 0
 407 137 485 115 586 115 c 0
 685 115 763 138 818 185 c 0
 873 232 901 296 901 377 c 0
 901 442 875 499 823 550 c 0
 771 600 680 649 551 696 c 1
 452 653 380 606 335 554 c 0
 290 503 268 441 268 369 c 0xe4
582 1348 m 0
 499 1348 433 1328 386 1288 c 0
 339 1248 315 1195 315 1128 c 0
 315 1067 335 1014 374 970 c 0
 413 926 486 882 592 838 c 1
 687 878 755 921 794 967 c 0
 834 1013 854 1067 854 1128 c 0xd8
 854 1195 830 1249 782 1288 c 0
 733 1328 667 1348 582 1348 c 0
EndSplineSet
Validated: 1
EndChar

StartChar: nine
Encoding: 57 57 26
Width: 1171
Flags: HMW
HStem: -20 137<361 475 361 618.333> 551 133<512 566> 1341 142<521.333 600.667>
VStem: 106 164<945 1047.67 945 1067> 893 168<552 991>
LayerCount: 2
Fore
SplineSet
1061 838 m 0
 1061 266 840 -20 397 -20 c 0
 320 -20 258 -13 213 0 c 1
 213 143 l 1
 266 126 327 117 395 117 c 0
 555 117 676 166 758 266 c 0
 839 364 884 516 891 721 c 1
 879 721 l 1
 842 666 794 624 733 594 c 0
 672 566 604 551 528 551 c 0
 399 551 296 590 220 667 c 0
 144 744 106 852 106 991 c 0
 106 1143 148 1263 234 1351 c 0
 318 1439 430 1483 569 1483 c 0
 668 1483 755 1458 830 1406 c 0
 904 1356 961 1281 1001 1184 c 0
 1041 1086 1061 971 1061 838 c 0
569 1341 m 0
 474 1341 400 1310 348 1249 c 0
 296 1188 270 1102 270 993 c 0
 270 897 294 822 342 766 c 0
 390 712 463 684 561 684 c 0
 622 684 678 696 728 721 c 0
 780 746 820 779 849 822 c 0
 878 865 893 909 893 956 c 0
 893 1026 879 1091 852 1150 c 0
 825 1209 786 1256 738 1290 c 0
 688 1324 632 1341 569 1341 c 0
EndSplineSet
Validated: 1
EndChar

StartChar: colon
Encoding: 58 58 27
Width: 545
Flags: HMW
HStem: -29 271 854 270
VStem: 152 241<84.3325 128.333 84.3325 128.333 967.333 1034>
LayerCount: 2
Fore
SplineSet
152 106 m 0
 152 151 162 184 182 207 c 0
 203 230 232 242 270 242 c 0
 309 242 339 230 360 207 c 0
 382 184 393 151 393 106 c 0
 393 63 382 29 360 6 c 0
 338 -17 308 -29 270 -29 c 0
 236 -29 208 -18 186 2 c 0
 163 24 152 58 152 106 c 0
152 989 m 0
 152 1079 191 1124 270 1124 c 0
 352 1124 393 1079 393 989 c 0
 393 946 382 912 360 889 c 0
 338 866 308 854 270 854 c 0
 236 854 208 864 186 885 c 0
 163 906 152 941 152 989 c 0
EndSplineSet
Validated: 1
EndChar

StartChar: semicolon
Encoding: 59 59 28
Width: 545
Flags: HMW
HStem: 854 270<246.667 285>
VStem: 147 242<967.333 1034>
LayerCount: 2
Fore
SplineSet
350 238 m 1
 365 215 l 1
 348 148 323 71 290 -18 c 0
 257 -106 223 -188 188 -264 c 1
 63 -264 l 1
 81 -195 101 -109 122 -7 c 0
 144 95 159 177 168 238 c 1
 350 238 l 1
147 989 m 0
 147 1079 187 1124 266 1124 c 0
 348 1124 389 1079 389 989 c 0
 389 946 378 912 356 889 c 0
 334 866 304 854 266 854 c 0
 227 854 198 866 178 889 c 0
 157 912 147 946 147 989 c 0
EndSplineSet
Validated: 1
EndChar

StartChar: less
Encoding: 60 60 29
Width: 1171
Flags: W
LayerCount: 2
Fore
SplineSet
1065 242 m 1
 104 664 l 1
 104 762 l 1
 1065 1241 l 1
 1065 1092 l 1
 283 721 l 1
 1065 393 l 1
 1065 242 l 1
EndSplineSet
Validated: 1
Substitution2: "'rtla' Right to Left Alternates lookup 0 subtable" greater
EndChar

StartChar: equal
Encoding: 61 61 30
Width: 1171
Flags: MW
HStem: 449 137<119 1049 119 1049> 858 137<119 1049 119 1049>
LayerCount: 2
Fore
SplineSet
119 858 m 1
 119 995 l 1
 1049 995 l 1
 1049 858 l 1
 119 858 l 1
119 449 m 1
 119 586 l 1
 1049 586 l 1
 1049 449 l 1
 119 449 l 1
EndSplineSet
Validated: 1
EndChar

StartChar: greater
Encoding: 62 62 31
Width: 1155
Flags: W
LayerCount: 2
Fore
SplineSet
104 393 m 1
 887 719 l 1
 104 1092 l 1
 104 1241 l 1
 1065 762 l 1
 1065 664 l 1
 104 242 l 1
 104 393 l 1
EndSplineSet
Validated: 1
Substitution2: "'rtla' Right to Left Alternates lookup 0 subtable" less
EndChar

StartChar: question
Encoding: 63 63 32
Width: 879
Flags: HMW
HStem: -29 271 1335 148<385.667 453>
VStem: 240 241<84.6675 128.001 84.6675 151.333> 289 129<403 436 403 457 403 496> 666 159<1099.67 1156>
LayerCount: 2
Fore
SplineSet
289 403 m 1xd8
 289 457 l 2
 289 535 301 599 325 650 c 0
 349 700 394 753 459 809 c 0
 550 886 607 943 630 982 c 0
 654 1021 666 1067 666 1122 c 0
 666 1190 644 1242 600 1280 c 0
 557 1316 494 1335 412 1335 c 0
 359 1335 308 1329 258 1316 c 0
 208 1304 151 1282 86 1249 c 1
 27 1384 l 1
 153 1450 285 1483 422 1483 c 0
 549 1483 648 1452 719 1389 c 0
 790 1326 825 1238 825 1124 c 0
 825 1075 818 1032 806 996 c 0
 792 958 773 924 748 890 c 0
 723 858 668 804 584 731 c 0
 517 674 472 626 450 588 c 0
 429 550 418 499 418 436 c 2
 418 403 l 1
 289 403 l 1xd8
240 106 m 0xe8
 240 197 280 242 360 242 c 0
 399 242 428 230 450 207 c 0
 470 184 481 150 481 106 c 0
 481 63 470 30 449 6 c 0
 428 -17 398 -29 360 -29 c 0
 325 -29 297 -18 274 2 c 0
 251 24 240 58 240 106 c 0xe8
EndSplineSet
Validated: 1
EndChar

StartChar: at
Encoding: 64 64 33
Width: 1841
Flags: HMW
HStem: -186 131<784 955 784 966.335> 221 123<816 888 1339.33 1402.67> 938 123<919.667 985.665 899 991.335> 1331 129<912.667 1046>
VStem: 121 139<476.333 653 476.333 657.667> 535 151<543.333 651.333 513.333 670> 1585 135<681.667 791.333>
LayerCount: 2
Fore
SplineSet
1720 729 m 0
 1720 634 1705 548 1676 469 c 0
 1647 390 1605 329 1552 286 c 0
 1499 243 1437 221 1368 221 c 0
 1311 221 1262 238 1223 273 c 0
 1184 308 1160 352 1153 406 c 1
 1145 406 l 1
 1118 348 1080 303 1030 270 c 0
 981 237 922 221 854 221 c 0
 754 221 676 255 620 324 c 0
 563 392 535 485 535 602 c 0
 535 738 574 848 653 934 c 0
 732 1018 835 1061 963 1061 c 0
 1008 1061 1060 1057 1117 1048 c 0
 1174 1040 1226 1029 1272 1014 c 1
 1247 544 l 1
 1247 522 l 2
 1247 403 1291 344 1380 344 c 0
 1441 344 1490 380 1528 452 c 0
 1566 523 1585 616 1585 731 c 0
 1585 852 1560 957 1511 1048 c 0
 1462 1139 1392 1208 1300 1258 c 0
 1210 1306 1105 1331 987 1331 c 0
 838 1331 709 1300 599 1238 c 0
 489 1177 405 1089 347 974 c 0
 289 860 260 728 260 578 c 0
 260 375 314 218 421 109 c 0
 528 -0 683 -55 885 -55 c 0
 1025 -55 1170 -26 1321 31 c 1
 1321 -102 l 1
 1193 -158 1048 -186 885 -186 c 0
 643 -186 455 -120 322 14 c 0
 188 146 121 332 121 571 c 0
 121 744 157 899 228 1034 c 0
 299 1169 401 1274 533 1348 c 0
 665 1423 816 1460 987 1460 c 0
 1130 1460 1258 1430 1370 1370 c 0
 1481 1309 1568 1224 1628 1112 c 0
 1690 1002 1720 874 1720 729 c 0
686 598 m 0
 686 429 751 344 881 344 c 0
 1019 344 1094 448 1106 657 c 2
 1120 918 l 1
 1072 931 1020 938 963 938 c 0
 876 938 808 908 760 848 c 0
 710 788 686 705 686 598 c 0
EndSplineSet
Validated: 1
EndChar

StartChar: A
Encoding: 65 65 34
Width: 1296
Flags: HMW
HStem: 1 21G<-2 170 -2 -2 1118 1294 1118 1118> 466 153<410 883 410 936 350 883>
LayerCount: 2
Fore
SplineSet
1118 1 m 1
 936 466 l 1
 350 466 l 1
 170 1 l 1
 -2 1 l 1
 576 1469 l 1
 719 1469 l 1
 1294 1 l 1
 1118 1 l 1
883 619 m 1
 713 1072 l 2
 691 1129 668 1200 645 1283 c 1
 630 1219 609 1149 582 1072 c 2
 410 619 l 1
 883 619 l 1
EndSplineSet
Validated: 1
EndChar

StartChar: B
Encoding: 66 66 35
Width: 1327
Flags: HMW
HStem: 2 145<370 675 675 710> 694 144<370 650 370 650 650 661> 1317 147<370 613 613 620 370 370>
VStem: 200 170<147 694 147 838 838 1317> 988 176<1058.67 1126> 1031 182<381.333 475.333>
LayerCount: 2
Fore
SplineSet
200 1464 m 1xf4
 613 1464 l 2
 807 1464 947 1435 1034 1377 c 0
 1121 1319 1164 1227 1164 1102 c 0xf8
 1164 1015 1140 944 1092 888 c 0
 1043 831 973 795 880 778 c 1
 880 768 l 1
 1102 730 1213 613 1213 418 c 0
 1213 287 1169 185 1080 112 c 0
 992 39 869 2 710 2 c 2
 200 2 l 1
 200 1464 l 1xf4
370 838 m 1
 650 838 l 2
 770 838 856 857 909 894 c 0
 962 932 988 996 988 1085 c 0
 988 1167 959 1226 900 1262 c 0
 841 1299 748 1317 620 1317 c 2
 370 1317 l 1
 370 838 l 1
370 694 m 1
 370 147 l 1
 675 147 l 2
 793 147 882 170 942 216 c 0
 1001 261 1031 333 1031 430 c 0xf4
 1031 521 1000 587 940 630 c 0
 878 673 786 694 661 694 c 2
 370 694 l 1
EndSplineSet
Validated: 1
EndChar

StartChar: C
Encoding: 67 67 36
Width: 1292
Flags: HMW
HStem: -18 151<742 873.333> 1333 152<757 882.333>
VStem: 125 182<637.333 810.333>
LayerCount: 2
Fore
SplineSet
827 1333 m 0
 666 1333 540 1280 446 1172 c 0
 354 1066 307 919 307 733 c 0
 307 542 352 394 442 290 c 0
 531 185 659 133 825 133 c 0
 927 133 1043 151 1174 188 c 1
 1174 39 l 1
 1073 1 948 -18 799 -18 c 0
 584 -18 418 47 300 178 c 0
 184 309 125 494 125 735 c 0
 125 886 153 1018 210 1131 c 0
 266 1244 347 1332 454 1393 c 0
 560 1454 685 1485 829 1485 c 0
 982 1485 1116 1457 1231 1401 c 1
 1159 1255 l 1
 1048 1307 938 1333 827 1333 c 0
EndSplineSet
Validated: 1
EndChar

StartChar: D
Encoding: 68 68 37
Width: 1493
Flags: HMW
HStem: 0 147<371 578 578 606> 1315 147<371 618 371 371>
VStem: 201 170<147 1315 147 1462 147 1462> 1188 180<641.333 834.333>
LayerCount: 2
Fore
SplineSet
1368 745 m 0
 1368 504 1302 319 1172 192 c 0
 1040 64 852 0 606 0 c 2
 201 0 l 1
 201 1462 l 1
 649 1462 l 2
 876 1462 1053 1399 1179 1273 c 0
 1305 1147 1368 971 1368 745 c 0
1188 739 m 0
 1188 930 1140 1073 1045 1170 c 0
 949 1267 807 1315 618 1315 c 2
 371 1315 l 1
 371 147 l 1
 578 147 l 2
 781 147 933 197 1035 296 c 0
 1137 396 1188 544 1188 739 c 0
EndSplineSet
Validated: 1
EndChar

StartChar: E
Encoding: 69 69 38
Width: 1139
Flags: MW
HStem: 0 152<371 1016 371 1016> 690 150<371 977 371 977> 1311 151<371 1016 371 371>
VStem: 201 170<152 690 840 1311>
LayerCount: 2
Fore
SplineSet
1016 0 m 1
 201 0 l 1
 201 1462 l 1
 1016 1462 l 1
 1016 1311 l 1
 371 1311 l 1
 371 840 l 1
 977 840 l 1
 977 690 l 1
 371 690 l 1
 371 152 l 1
 1016 152 l 1
 1016 0 l 1
EndSplineSet
Validated: 1
EndChar

StartChar: F
Encoding: 70 70 39
Width: 1057
Flags: MW
HStem: 0 21G<201 371 201 201> 625 151<371 977 371 977> 1311 151<371 1016 371 371>
VStem: 201 170<0 625 776 1311>
LayerCount: 2
Fore
SplineSet
371 0 m 1
 201 0 l 1
 201 1462 l 1
 1016 1462 l 1
 1016 1311 l 1
 371 1311 l 1
 371 776 l 1
 977 776 l 1
 977 625 l 1
 371 625 l 1
 371 0 l 1
EndSplineSet
Validated: 1
EndChar

StartChar: G
Encoding: 71 71 40
Width: 1491
Flags: HMW
HStem: -17 149<780.667 879.667> 617 152<844 1171 844 1341> 1334 152<806 933>
VStem: 125 180<635.333 810> 1171 170<167 617 617 617>
LayerCount: 2
Fore
SplineSet
844 769 m 1
 1341 769 l 1
 1341 58 l 1
 1264 33 1185 15 1105 2 c 0
 1025 -11 932 -17 827 -17 c 0
 606 -17 433 49 310 180 c 0
 187 312 125 497 125 734 c 0
 125 886 156 1019 216 1134 c 0
 278 1248 365 1335 480 1396 c 0
 595 1456 729 1486 883 1486 c 0
 1039 1486 1184 1457 1319 1400 c 1
 1253 1250 l 1
 1121 1306 994 1334 872 1334 c 0
 694 1334 555 1281 455 1175 c 0
 355 1069 305 922 305 734 c 0
 305 537 353 387 450 285 c 0
 546 183 687 132 874 132 c 0
 975 132 1074 144 1171 167 c 1
 1171 617 l 1
 844 617 l 1
 844 769 l 1
EndSplineSet
Validated: 1
EndChar

StartChar: H
Encoding: 72 72 41
Width: 1511
Flags: MW
HStem: 0 21G<201 371 201 201 1141 1311 1141 1141> 688 152<371 1141 371 1141>
VStem: 201 170<0 688 0 840 840 1462> 1141 170<0 688 688 688 840 1462>
LayerCount: 2
Fore
SplineSet
1311 0 m 1
 1141 0 l 1
 1141 688 l 1
 371 688 l 1
 371 0 l 1
 201 0 l 1
 201 1462 l 1
 371 1462 l 1
 371 840 l 1
 1141 840 l 1
 1141 1462 l 1
 1311 1462 l 1
 1311 0 l 1
EndSplineSet
Validated: 1
EndChar

StartChar: I
Encoding: 73 73 42
Width: 571
Flags: MW
HStem: 0 21G<199 199 199 369>
VStem: 199 170<0 1462 0 1462>
LayerCount: 2
Fore
SplineSet
199 0 m 1
 199 1462 l 1
 369 1462 l 1
 369 0 l 1
 199 0 l 1
EndSplineSet
Validated: 1
EndChar

StartChar: J
Encoding: 74 74 43
Width: 547
Flags: HMW
HStem: -385 152<-37.6665 21 -37.6665 48>
VStem: 190 170<0 14 14 1462>
LayerCount: 2
Fore
SplineSet
-12 -385 m 0
 -75 -385 -124 -376 -160 -358 c 1
 -160 -213 l 1
 -113 -226 -63 -233 -12 -233 c 0
 54 -233 104 -213 138 -173 c 0
 173 -133 190 -75 190 0 c 2
 190 1462 l 1
 360 1462 l 1
 360 14 l 2
 360 -113 328 -211 264 -280 c 0
 200 -350 108 -385 -12 -385 c 0
EndSplineSet
Validated: 1
EndChar

StartChar: K
Encoding: 75 75 44
Width: 1257
Flags: MW
VStem: 202 170<3 576 3 740 740 1465>
LayerCount: 2
Fore
SplineSet
1258 3 m 1
 1058 3 l 1
 525 712 l 1
 372 576 l 1
 372 3 l 1
 202 3 l 1
 202 1465 l 1
 372 1465 l 1
 372 740 l 1
 1035 1465 l 1
 1236 1465 l 1
 648 830 l 1
 1258 3 l 1
EndSplineSet
Validated: 1
EndChar

StartChar: L
Encoding: 76 76 45
Width: 1063
Flags: MW
HStem: 0 154<371 1016 371 1016>
VStem: 201 170<154 1462 154 1462 154 1462>
LayerCount: 2
Fore
SplineSet
201 0 m 1
 201 1462 l 1
 371 1462 l 1
 371 154 l 1
 1016 154 l 1
 1016 0 l 1
 201 0 l 1
EndSplineSet
Validated: 1
EndChar

StartChar: M
Encoding: 77 77 46
Width: 1849
Flags: HMW
HStem: 0 21G<201 358 201 201 848 985 848 848 1479 1479 1479 1649>
VStem: 201 157<0 930 0 1462> 1479 170<0 942 942 996>
LayerCount: 2
Fore
SplineSet
848 0 m 1
 352 1296 l 1
 344 1296 l 1
 353 1193 358 1071 358 930 c 2
 358 0 l 1
 201 0 l 1
 201 1462 l 1
 457 1462 l 1
 920 256 l 1
 928 256 l 1
 1395 1462 l 1
 1649 1462 l 1
 1649 0 l 1
 1479 0 l 1
 1479 942 l 2
 1479 1050 1484 1167 1493 1294 c 1
 1485 1294 l 1
 985 0 l 1
 848 0 l 1
EndSplineSet
Validated: 1
EndChar

StartChar: N
Encoding: 78 78 47
Width: 1544
Flags: HMW
HStem: 0 21G<201.001 358.001 201.001 201.001 1149 1343 1149 1149>
VStem: 201 157 1184 159<623 1462>
LayerCount: 2
Fore
SplineSet
1343 0 m 1
 1149 0 l 1
 350 1227 l 1
 342 1227 l 1
 353 1083 358 951 358 831 c 2
 358 0 l 1
 201 0 l 1
 201 1462 l 1
 393 1462 l 1
 1190 240 l 1
 1198 240 l 1
 1197 258 1194 316 1189 414 c 0
 1185 489 1184 548 1184 590 c 0
 1184 603 1184 614 1184 623 c 2
 1184 1462 l 1
 1343 1462 l 1
 1343 0 l 1
EndSplineSet
Validated: 1
EndChar

StartChar: O
Encoding: 79 79 48
Width: 1595
Flags: HMW
HStem: -20 149<717.167 878.5 717.167 902.833> 1333 152<718.5 880.167>
VStem: 123.5 180<634 830.667 634 854> 1288.5 180<633.667 831.333>
LayerCount: 2
Fore
SplineSet
1468 733 m 0
 1468 499 1409 315 1291 181 c 0
 1173 47 1008 -20 798 -20 c 0
 582 -20 416 46 299 178 c 0
 182 309 124 495 124 735 c 0
 124 973 182 1158 300 1288 c 0
 417 1420 584 1485 800 1485 c 0
 1010 1485 1174 1418 1292 1285 c 0
 1410 1152 1468 968 1468 733 c 0
304 733 m 0
 304 535 346 385 430 282 c 0
 514 180 637 129 798 129 c 0
 960 129 1082 180 1164 282 c 0
 1247 384 1288 534 1288 733 c 0
 1288 930 1247 1079 1165 1180 c 0
 1083 1282 961 1333 800 1333 c 0
 638 1333 514 1282 430 1180 c 0
 346 1077 304 928 304 733 c 0
EndSplineSet
Validated: 1
EndChar

StartChar: P
Encoding: 80 80 49
Width: 1233
Flags: HMW
HStem: 0 21G<200 370 200 200> 575 146<370 523 523 542 370 523> 1315 147<370 560 370 370>
VStem: 200 170<0 575 721 1315> 951 176<974.333 1076.33>
LayerCount: 2
Fore
SplineSet
1127 1036 m 0
 1127 888 1076 774 976 694 c 0
 874 615 730 575 542 575 c 2
 370 575 l 1
 370 0 l 1
 200 0 l 1
 200 1462 l 1
 579 1462 l 2
 944 1462 1127 1320 1127 1036 c 0
370 721 m 1
 523 721 l 2
 674 721 783 745 850 794 c 0
 917 843 951 921 951 1028 c 0
 951 1125 919 1197 856 1244 c 0
 793 1291 694 1315 560 1315 c 2
 370 1315 l 1
 370 721 l 1
EndSplineSet
Validated: 1
EndChar

StartChar: Q
Encoding: 81 81 50
Width: 1595
Flags: HMW
HStem: -26 149<717.167 797.5> 1327 152<718.5 880.167>
VStem: 123.5 180<628 824.667 628 848> 1288.5 180<633.333 825.333>
LayerCount: 2
Fore
SplineSet
1468 727 m 0
 1468 540 1431 384 1356 260 c 0
 1280 136 1174 52 1036 8 c 1
 1384 -354 l 1
 1138 -354 l 1
 852 -24 l 1
 798 -26 l 1
 582 -26 416 40 299 172 c 0
 182 303 124 489 124 729 c 0
 124 967 182 1152 300 1282 c 0
 417 1414 584 1479 800 1479 c 0
 1010 1479 1174 1412 1292 1279 c 0
 1410 1146 1468 962 1468 727 c 0
304 727 m 0
 304 529 346 379 430 276 c 0
 514 174 637 123 798 123 c 0
 960 123 1082 174 1164 276 c 0
 1247 378 1288 528 1288 727 c 0
 1288 924 1247 1073 1165 1174 c 0
 1083 1276 961 1327 800 1327 c 0
 638 1327 514 1276 430 1174 c 0
 346 1071 304 922 304 727 c 0
EndSplineSet
Validated: 1
EndChar

StartChar: R
Encoding: 82 82 51
Width: 1266
Flags: HMW
HStem: 0 21G<201 371 201 201 1030 1030 1030 1231> 608 146<371 371 371 676> 1313 149<371 592 371 371>
VStem: 201 170<0 608 754 1313> 952 176<992.333 1088.33>
LayerCount: 2
Fore
SplineSet
371 608 m 1
 371 0 l 1
 201 0 l 1
 201 1462 l 1
 602 1462 l 2
 781 1462 914 1428 1000 1359 c 0
 1085 1290 1128 1187 1128 1049 c 0
 1128 856 1030 725 834 657 c 1
 1231 0 l 1
 1030 0 l 1
 676 608 l 1
 371 608 l 1
371 754 m 1
 604 754 l 2
 724 754 812 778 868 825 c 0
 924 873 952 945 952 1040 c 0
 952 1137 924 1206 866 1249 c 0
 810 1292 718 1313 592 1313 c 2
 371 1313 l 1
 371 754 l 1
EndSplineSet
Validated: 1
EndChar

StartChar: S
Encoding: 83 83 52
Width: 1124
Flags: HMW
HStem: -20 149 1331 152
VStem: 125 172 854 172
LayerCount: 2
Fore
SplineSet
1026 389 m 0
 1026 260 979 160 886 88 c 0
 793 16 666 -20 506 -20 c 0
 333 -20 199 2 106 47 c 1
 106 211 l 1
 166 186 231 166 302 151 c 0
 373 136 443 129 512 129 c 0
 625 129 711 151 768 194 c 0
 825 237 854 296 854 373 c 0
 854 424 844 465 824 498 c 0
 803 530 769 560 722 587 c 0
 674 614 601 645 504 680 c 0
 368 729 271 786 213 853 c 0
 154 920 125 1007 125 1114 c 0
 125 1227 167 1316 252 1383 c 0
 337 1450 449 1483 588 1483 c 0
 733 1483 867 1456 989 1403 c 1
 936 1255 l 1
 815 1306 698 1331 584 1331 c 0
 494 1331 424 1312 373 1273 c 0
 322 1234 297 1181 297 1112 c 0
 297 1061 306 1020 325 988 c 0
 344 955 375 926 420 899 c 0
 464 872 532 842 623 809 c 0
 776 754 882 696 940 633 c 0
 997 570 1026 489 1026 389 c 0
EndSplineSet
Validated: 1
EndChar

StartChar: T
Encoding: 84 84 53
Width: 1133
Flags: MW
HStem: 0 21G<481 651 481 481> 1311 151<18 481 18 1114 651 651 651 1114>
VStem: 481 170<0 1311>
LayerCount: 2
Fore
SplineSet
651 0 m 1
 481 0 l 1
 481 1311 l 1
 18 1311 l 1
 18 1462 l 1
 1114 1462 l 1
 1114 1311 l 1
 651 1311 l 1
 651 0 l 1
EndSplineSet
Validated: 1
EndChar

StartChar: U
Encoding: 85 85 54
Width: 1491
Flags: HMW
HStem: -20 149
VStem: 186 170<519.999 1462> 1135 170<510 515.999 515.999 1462>
LayerCount: 2
Fore
SplineSet
1305 1462 m 1
 1305 516 l 2
 1305 349 1255 218 1154 123 c 0
 1053 28 915 -20 739 -20 c 0
 563 -20 427 28 330 124 c 0
 234 220 186 352 186 520 c 2
 186 1462 l 1
 356 1462 l 1
 356 508 l 2
 356 386 389 292 456 227 c 0
 523 162 621 129 750 129 c 0
 873 129 968 162 1035 227 c 0
 1102 293 1135 387 1135 510 c 2
 1135 1462 l 1
 1305 1462 l 1
EndSplineSet
Validated: 1
EndChar

StartChar: V
Encoding: 86 86 55
Width: 1219
Flags: HMW
HStem: 0 21G
LayerCount: 2
Fore
SplineSet
1036 1462 m 1
 1219 1462 l 1
 692 0 l 1
 524 0 l 1
 -0 1462 l 1
 180 1462 l 1
 516 516 l 2
 555 407 585 302 608 199 c 1
 632 307 663 415 702 522 c 2
 1036 1462 l 1
EndSplineSet
Validated: 1
EndChar

StartChar: W
Encoding: 87 87 56
Width: 1896
Flags: HMW
HStem: 0 21G<1477 1477>
LayerCount: 2
Fore
SplineSet
1477 0 m 1
 1309 0 l 1
 1014 979 l 2
 1000 1022 984 1077 967 1143 c 0
 950 1209 941 1249 940 1262 c 1
 925 1174 902 1078 870 973 c 2
 584 0 l 1
 416 0 l 1
 27 1462 l 1
 207 1462 l 1
 438 559 l 2
 470 432 493 318 508 215 c 1
 526 337 553 456 588 573 c 2
 850 1462 l 1
 1030 1462 l 1
 1305 565 l 2
 1337 462 1364 345 1386 215 c 1
 1399 310 1423 425 1458 561 c 2
 1688 1462 l 1
 1868 1462 l 1
 1477 0 l 1
EndSplineSet
Validated: 1
EndChar

StartChar: X
Encoding: 88 88 57
Width: 1182
Flags: MW
HStem: 0 21G<8 188 8 8 981 1174 981 981>
LayerCount: 2
Fore
SplineSet
1174 0 m 1
 981 0 l 1
 588 643 l 1
 188 0 l 1
 8 0 l 1
 494 764 l 1
 41 1462 l 1
 229 1462 l 1
 592 883 l 1
 958 1462 l 1
 1139 1462 l 1
 686 770 l 1
 1174 0 l 1
EndSplineSet
Validated: 1
EndChar

StartChar: Y
Encoding: 89 89 58
Width: 1147
Flags: MW
HStem: 0 21G<487 659 487 487>
VStem: 487 172<0 559 559 559>
LayerCount: 2
Fore
SplineSet
573 731 m 1
 963 1462 l 1
 1147 1462 l 1
 659 567 l 1
 659 0 l 1
 487 0 l 1
 487 559 l 1
 0 1462 l 1
 186 1462 l 1
 573 731 l 1
EndSplineSet
Validated: 1
EndChar

StartChar: Z
Encoding: 90 90 59
Width: 1169
Flags: MW
HStem: 2 154<289 1087 289 1087> 1311 153<106 858 106 1065>
LayerCount: 2
Fore
SplineSet
1087 2 m 1
 82 2 l 1
 82 135 l 1
 858 1311 l 1
 106 1311 l 1
 106 1464 l 1
 1065 1464 l 1
 1065 1331 l 1
 289 156 l 1
 1087 156 l 1
 1087 2 l 1
EndSplineSet
Validated: 1
EndChar

StartChar: bracketleft
Encoding: 91 91 60
Width: 674
Flags: MW
HStem: -324 142<334 623 334 623> 1321 141<334 623 334 334>
VStem: 166 168<-182 1321 -182 1462 -182 1462> 166 457<-324 -182 1321 1462>
LayerCount: 2
Fore
SplineSet
623 -324 m 1xd0
 166 -324 l 1
 166 1462 l 1
 623 1462 l 1
 623 1321 l 1xd0
 334 1321 l 1
 334 -182 l 1xe0
 623 -182 l 1
 623 -324 l 1xd0
EndSplineSet
Validated: 1
Substitution2: "'rtla' Right to Left Alternates lookup 0 subtable" bracketright
EndChar

StartChar: backslash
Encoding: 92 92 61
Width: 752
Flags: MW
HStem: 0 21G<567 733 567 567>
LayerCount: 2
Fore
SplineSet
186 1462 m 1
 733 0 l 1
 567 0 l 1
 23 1462 l 1
 186 1462 l 1
EndSplineSet
Validated: 1
EndChar

StartChar: bracketright
Encoding: 93 93 62
Width: 674
Flags: MW
HStem: -324 142<51 340 51 508 51 340> 1321 141<51 340 51 508>
VStem: 51 457<-324 -182 -182 -182 1321 1462 -324 1462> 340 168<-182 1321 1321 1321>
LayerCount: 2
Fore
SplineSet
51 -182 m 1xe0
 340 -182 l 1
 340 1321 l 1xd0
 51 1321 l 1
 51 1462 l 1
 508 1462 l 1
 508 -324 l 1
 51 -324 l 1
 51 -182 l 1xe0
EndSplineSet
Validated: 1
Substitution2: "'rtla' Right to Left Alternates lookup 0 subtable" bracketleft
EndChar

StartChar: asciicircum
Encoding: 94 94 63
Width: 1110
Flags: W
LayerCount: 2
Fore
SplineSet
49 551 m 1
 483 1473 l 1
 582 1473 l 1
 1059 551 l 1
 907 551 l 1
 535 1296 l 1
 201 551 l 1
 49 551 l 1
EndSplineSet
Validated: 1
EndChar

StartChar: underscore
Encoding: 95 95 64
Width: 918
Flags: MW
HStem: -315 131<-4 922 -4 922>
LayerCount: 2
Fore
SplineSet
922 -315 m 1
 -4 -315 l 1
 -4 -184 l 1
 922 -184 l 1
 922 -315 l 1
EndSplineSet
Validated: 1
EndChar

StartChar: grave
Encoding: 96 96 65
Width: 5509
Flags: W
LayerCount: 2
Fore
SplineSet
985 549 m 1
 975 489 970 438 970 396 c 0
 969.333007812 302.666992188 986 243 1020 217 c 1
 1034.66699219 199 1072 189.666992188 1132 189 c 0
 1212 187.666992188 1292.66699219 233 1374 325 c 0
 1404.66699219 360.333007812 1440 442 1480 570 c 0
 1487.33300781 592.666992188 1495 637.666992188 1503 705 c 0
 1505 721.666992188 1507.33300781 745.666992188 1510 777 c 1
 1515.33300781 785 1560.33300781 795.333007812 1645 808 c 1
 1671 834 l 1
 1707.66699219 912 1734.66699219 965 1752 993 c 0
 1766 1009 1784 1032 1806 1062 c 0
 1816.66699219 1080 1836 1106 1864 1140 c 1
 1891.33300781 1164.66699219 1927 1188 1971 1210 c 1
 1965 1211.33300781 1942.33300781 1214.33300781 1903 1219 c 1
 1863 1219 1829 1213 1801 1201 c 1
 1813 1234.33300781 1834 1274.33300781 1864 1321 c 1
 1891.33300781 1342.33300781 1925.33300781 1353 1966 1353 c 1
 1958 1353 1962 1351.5 1978 1348.5 c 0
 1994 1345.5 2005 1344 2011 1344 c 0
 2048.33300781 1340 2085.33300781 1335 2122 1329 c 1
 2137 1273 l 1
 2131 1235 2107 1201.66699219 2065 1173 c 0
 2030.33300781 1147.66699219 1976.33300781 1110.66699219 1903 1062 c 0
 1874.33300781 1042.66699219 1858 1017.66699219 1854 987 c 1
 1866 979 1880.33300781 966 1897 948 c 1
 1918.33300781 904.666992188 1909.33300781 869 1870 841 c 0
 1850 827 1816 827.666992188 1768 843 c 0
 1765.30664062 843 1757.13964844 834 1743.5 816 c 0
 1729.83300781 798 1716 786.333007812 1702 781 c 0
 1679.33300781 771 1640.33300781 743 1585 697 c 1
 1575 668.333007812 1550.66699219 595 1512 477 c 0
 1406.66699219 161 1266.66699219 3 1092 3 c 0
 1022.66699219 3 971.666992188 27 939 75 c 1
 903.666992188 111.666992188 885.666992188 169 885 247 c 0
 883.666992188 325 899 396 931 460 c 0
 941 481.333007812 956.666992188 511 978 549 c 1
 985 549 l 1
1122 1329 m 1
 1116.66699219 1311 1102.99804688 1283.33300781 1080.99804688 1246 c 1
 1072.99804688 1246 1038.66503906 1219 977.998046875 1165 c 0
 924.665039062 1118.33300781 895.665039062 1095 890.998046875 1095 c 0
 871.665039062 1073 844.665039062 1062 809.998046875 1062 c 0
 802.662109375 1060.66699219 787.829101562 1064.5 765.499023438 1073.5 c 0
 743.163085938 1082.5 725.330078125 1087 711.999023438 1087 c 0
 691.33203125 1087 668.33203125 1080.66699219 642.999023438 1068 c 1
 626.33203125 1052.66699219 602.33203125 1031.66699219 570.999023438 1005 c 1
 570.33203125 967 584.999023438 935 614.999023438 909 c 0
 630.999023438 895 645.33203125 876.333007812 657.999023438 853 c 1
 659.33203125 800.333007812 616.33203125 753 528.999023438 711 c 1
 484.33203125 701.666992188 427.33203125 686 357.999023438 664 c 1
 283.999023438 627.333007812 246.999023438 503 246.999023438 291 c 0
 246.999023438 205 243.666015625 130.333007812 236.999023438 67 c 1
 239.666015625 17 240.999023438 -32.3330078125 240.999023438 -81 c 0
 240.999023438 -144.333007812 238.666015625 -206 233.999023438 -266 c 0
 235.999023438 -278.666992188 221.33203125 -317.666992188 189.999023438 -383 c 1
 183.999023438 -35 l 2
 179.999023438 196.333007812 179.999023438 327.333007812 183.999023438 358 c 0
 187.33203125 382 194.999023438 427 206.999023438 493 c 0
 211.666015625 516.333007812 221.999023438 553 237.999023438 603 c 0
 257.999023438 665 290.999023438 716 336.999023438 756 c 1
 376.999023438 800.666992188 427.999023438 828 489.999023438 838 c 1
 489.999023438 843.333007812 487.33203125 853.5 481.999023438 868.5 c 0
 476.666015625 883.5 474.333007812 893.333007812 475 898 c 0
 475 961.333007812 512.666992188 1033 588 1113 c 0
 608.666992188 1135 635 1158 667 1182 c 0
 679 1188.66699219 700 1195 730 1201 c 0
 750 1202.33300781 769 1200.33300781 787 1195 c 1
 803 1181 821.666992188 1173.66699219 843 1173 c 0
 863.666992188 1171.66699219 879.666992188 1179 891 1195 c 1
 899 1198.33300781 933 1230.33300781 993 1291 c 1
 917.666992188 1301 872 1306 856 1306 c 1
 841.333007812 1299.33300781 818.333007812 1288.33300781 787 1273 c 1
 844 1377 l 1
 867.333007812 1397 900.333007812 1407 943 1407 c 0
 963 1407 996 1398 1042 1380 c 0
 1093.33300781 1360 1120 1343 1122 1329 c 1
2321.99804688 1113 m 2
 2321.99804688 1061.66699219 2318.33105469 1023.99902344 2310.99804688 999.999023438 c 0
 2302.33105469 967.999023438 2282.33105469 924.999023438 2250.99804688 870.999023438 c 1
 2214.33105469 846.33203125 2161.33105469 804.33203125 2091.99804688 744.999023438 c 1
 2079.33105469 718.33203125 2059.33105469 674.999023438 2031.99804688 614.999023438 c 1
 2023.99804688 584.999023438 2007.99804688 551.33203125 1983.99804688 513.999023438 c 0
 1977.33105469 505.999023438 1965.33105469 501.999023438 1947.99804688 501.999023438 c 0
 1921.99804688 501.999023438 1906.99804688 502.666015625 1902.99804688 503.999023438 c 0
 1800.99804688 493.999023438 1736.66503906 488.999023438 1709.99804688 488.999023438 c 1
 1744.66503906 499.666015625 1777.99804688 519.666015625 1809.99804688 548.999023438 c 1
 1821.33105469 553.666015625 1845.33105469 567.999023438 1881.99804688 591.999023438 c 0
 1899.99804688 601.999023438 1927.99804688 625.999023438 1965.99804688 663.999023438 c 0
 1989.99804688 689.999023438 2007.66503906 716.999023438 2018.99804688 744.999023438 c 0
 2036.99804688 794.33203125 2060.99804688 844.999023438 2090.99804688 896.999023438 c 0
 2104.99804688 921.666015625 2144.99804688 954.666015625 2210.99804688 995.999023438 c 0
 2216.99804688 1000.66601562 2231.33105469 1009.66601562 2253.99804688 1022.99902344 c 1
 2255.99804688 1033.66601562 2256.99804688 1041.99902344 2256.99804688 1047.99902344 c 2
 2256.99804688 1197.99902344 l 2
 2256.99804688 1277.99902344 2256.49804688 1338.83203125 2255.49804688 1380.49902344 c 0
 2254.49804688 1422.16601562 2253.99804688 1468.33300781 2253.99804688 1519 c 1
 2265.33105469 1536.33300781 2287.99804688 1574.33300781 2321.99804688 1633 c 1
 2321.99804688 1113 l 2
3045.99804688 719.999023438 m 0
 2997.33105469 642.666015625 2941.99804688 603.666015625 2879.99804688 602.999023438 c 0
 2860.66503906 602.999023438 2834.66503906 622.999023438 2801.99804688 662.999023438 c 1
 2785.99804688 642.999023438 2760.99804688 619.999023438 2726.99804688 593.999023438 c 0
 2686.99804688 563.999023438 2657.99804688 548.999023438 2639.99804688 548.999023438 c 0
 2617.99804688 548.999023438 2588.99804688 566.999023438 2552.99804688 602.999023438 c 0
 2540.99804688 614.999023438 2526.99804688 635.33203125 2510.99804688 663.999023438 c 1
 2464.99804688 627.33203125 2410.99804688 581.999023438 2348.99804688 527.999023438 c 1
 2360.99804688 572.666015625 2372.33105469 617.666015625 2382.99804688 662.999023438 c 1
 2400.99804688 666.999023438 2426.99804688 680.999023438 2460.99804688 704.999023438 c 0
 2478.33105469 721.666015625 2503.99804688 750.999023438 2537.99804688 792.999023438 c 1
 2553.99804688 822.999023438 2571.33105469 854.999023438 2589.99804688 888.999023438 c 1
 2593.99804688 878.33203125 2602.99804688 849.33203125 2616.99804688 801.999023438 c 1
 2620.99804688 759.33203125 2644.99804688 737.999023438 2688.99804688 737.999023438 c 0
 2712.33105469 736.666015625 2742.33105469 755.999023438 2778.99804688 795.999023438 c 0
 2812.99804688 831.33203125 2834.66503906 861.999023438 2843.99804688 887.999023438 c 0
 2852.66503906 910.666015625 2856.66503906 926.666015625 2855.99804688 935.999023438 c 1
 2864.66503906 914.666015625 2882.66503906 883.999023438 2909.99804688 843.999023438 c 1
 2923.99804688 833.999023438 2937.33105469 821.999023438 2949.99804688 807.999023438 c 1
 2991.33105469 807.999023438 3017.99804688 858.999023438 3029.99804688 960.999023438 c 1
 3029.99804688 1034.99902344 3029.33105469 1069.99902344 3027.99804688 1065.99902344 c 1
 3043.99804688 1089.99902344 3068.66503906 1120.66601562 3101.99804688 1157.99902344 c 1
 3121.99804688 1128.66601562 3132.33105469 1080.66601562 3132.99804688 1013.99902344 c 0
 3134.33105469 913.999023438 3105.33105469 815.999023438 3045.99804688 719.999023438 c 0
2538.99804688 1640.99902344 m 1
 2538.99804688 1433.99902344 l 2
 2538.99804688 1246.66601562 2531.66503906 1133.66601562 2516.99804688 1094.99902344 c 0
 2508.99804688 1072.99902344 2490.99804688 1039.99902344 2462.99804688 995.999023438 c 1
 2466.99804688 1469.99902344 l 1
 2484.33105469 1513.99902344 2508.33105469 1570.99902344 2538.99804688 1640.99902344 c 1
5291.99804688 1497.99902344 m 1
 5300.6640625 1477.33203125 5304.99804688 1447.99902344 5304.99804688 1409.99902344 c 0
 5306.33203125 1243.99902344 5225.33203125 1074.99902344 5061.99804688 902.999023438 c 0
 4929.99804688 762.999023438 4774.99804688 648.33203125 4596.99804688 558.999023438 c 0
 4398.99804688 460.33203125 4153.99804688 399.33203125 3861.99804688 375.999023438 c 0
 3843.33105469 375.33203125 3802.33105469 373.33203125 3738.99804688 369.999023438 c 0
 3702.99804688 367.999023438 3639.66503906 373.666015625 3548.99804688 386.999023438 c 0
 3534.99804688 388.999023438 3506.33105469 396.999023438 3462.99804688 410.999023438 c 0
 3424.99804688 422.999023438 3398.99804688 428.999023438 3384.99804688 428.999023438 c 0
 3372.33105469 428.999023438 3365.33105469 423.999023438 3363.99804688 413.999023438 c 0
 3355.33105469 372.666015625 3331.33105469 343.999023438 3291.99804688 327.999023438 c 0
 3273.33105469 319.999023438 3247.99804688 331.999023438 3215.99804688 363.999023438 c 1
 3193.99804688 405.33203125 3174.99804688 425.999023438 3158.99804688 425.999023438 c 0
 3134.99804688 425.999023438 3105.99804688 415.999023438 3071.99804688 395.999023438 c 1
 3044.66503906 385.999023438 3023.66503906 365.33203125 3008.99804688 333.999023438 c 1
 2950.99804688 257.999023438 2921.99804688 105.666015625 2921.99804688 -123.000976562 c 2
 2921.99804688 -371.000976562 l 2
 2921.99804688 -473.000976562 2919.33105469 -527.333984375 2913.99804688 -534.000976562 c 0
 2911.99804688 -533.333984375 2910.66503906 -532.000976562 2909.99804688 -530.000976562 c 1
 2895.99804688 -542.66796875 2876.99804688 -576.000976562 2852.99804688 -630.000976562 c 1
 2848.99804688 -623.333984375 2846.99804688 -567.333984375 2846.99804688 -462.000976562 c 2
 2846.99804688 -338.000976562 l 2
 2846.99804688 -16.66796875 2875.99804688 224.999023438 2933.99804688 386.999023438 c 0
 2971.99804688 492.999023438 3038.33105469 567.999023438 3132.99804688 611.999023438 c 1
 3142.33105469 628.666015625 3150.99804688 644.666015625 3158.99804688 659.999023438 c 0
 3175.66503906 688.666015625 3191.99804688 702.999023438 3207.99804688 702.999023438 c 0
 3219.99804688 702.999023438 3237.83105469 693.499023438 3261.49804688 674.499023438 c 0
 3285.16503906 655.499023438 3298.99804688 645.999023438 3302.99804688 645.999023438 c 0
 3345.66503906 639.999023438 3414.66503906 625.666015625 3509.99804688 602.999023438 c 0
 3588.66503906 584.999023438 3669.66503906 575.33203125 3752.99804688 573.999023438 c 0
 3847.66503906 573.33203125 3999.66503906 594.999023438 4208.99804688 638.999023438 c 0
 4356.99804688 669.666015625 4519.99804688 728.999023438 4697.99804688 816.999023438 c 0
 4892.6640625 912.999023438 5033.99804688 1010.66601562 5121.99804688 1109.99902344 c 0
 5127.99804688 1117.99902344 5154.99804688 1148.33203125 5202.99804688 1200.99902344 c 1
 5236.33203125 1244.99902344 5252.99804688 1289.66601562 5252.99804688 1334.99902344 c 0
 5252.99804688 1360.99902344 5247.99804688 1387.99902344 5237.99804688 1415.99902344 c 1
 5291.99804688 1497.99902344 l 1
5154.99804688 309.999023438 m 1
 5058.99804688 402.999023438 l 1
 5150.99804688 500.999023438 l 1
 5181.6640625 472.999023438 5212.99804688 442.33203125 5244.99804688 408.999023438 c 1
 5154.99804688 309.999023438 l 1
1239.99804688 477.999023438 m 1
 1145.99804688 572.999023438 l 1
 1236.99804688 668.999023438 l 1
 1268.33105469 641.666015625 1299.99804688 611.666015625 1331.99804688 578.999023438 c 1
 1239.99804688 477.999023438 l 1
462.998046875 276.999023438 m 1
 368.998046875 371.999023438 l 1
 459.998046875 468.999023438 l 1
 491.331054688 442.33203125 522.998046875 412.33203125 554.998046875 378.999023438 c 1
 462.998046875 276.999023438 l 1
666.998046875 279.999023438 m 1
 572.998046875 374.999023438 l 1
 663.998046875 471.999023438 l 1
 695.331054688 445.33203125 726.998046875 415.33203125 758.998046875 381.999023438 c 1
 666.998046875 279.999023438 l 1
3321.99804688 1565.99902344 m 1
 3321.99804688 1361.99902344 l 2
 3321.99804688 1175.99902344 3314.66503906 1062.33203125 3299.99804688 1020.99902344 c 0
 3291.99804688 998.999023438 3274.33105469 965.999023438 3246.99804688 921.999023438 c 1
 3249.99804688 1395.99902344 l 1
 3267.33105469 1439.99902344 3291.33105469 1496.66601562 3321.99804688 1565.99902344 c 1
1481.99804688 1677.99902344 m 1
 1481.99804688 1472.99902344 l 2
 1481.99804688 1295.66601562 1474.99804688 1181.99902344 1460.99804688 1131.99902344 c 1
 1448.99804688 1103.99902344 1431.33105469 1070.99902344 1407.99804688 1032.99902344 c 1
 1410.99804688 1508.99902344 l 1
 1426.99804688 1551.66601562 1450.66503906 1607.99902344 1481.99804688 1677.99902344 c 1
2903.99804688 1283.99902344 m 0
 2903.99804688 1237.99902344 2896.33105469 1211.33203125 2880.99804688 1203.99902344 c 0
 2872.33105469 1201.99902344 2864.33105469 1200.99902344 2856.99804688 1200.99902344 c 0
 2848.99804688 1200.99902344 2841.99804688 1201.99902344 2835.99804688 1203.99902344 c 1
 2829.99804688 1185.99902344 2819.66503906 1176.99902344 2804.99804688 1176.99902344 c 0
 2783.66503906 1176.99902344 2772.99804688 1185.66601562 2772.99804688 1202.99902344 c 0
 2772.33105469 1207.66601562 2771.99804688 1213.99902344 2771.99804688 1221.99902344 c 0
 2771.99804688 1231.33203125 2772.99804688 1241.99902344 2774.99804688 1253.99902344 c 0
 2779.66503906 1275.99902344 2786.99804688 1286.33203125 2796.99804688 1284.99902344 c 1
 2800.33105469 1270.99902344 2804.33105469 1255.99902344 2808.99804688 1239.99902344 c 1
 2820.33105469 1239.99902344 2829.99804688 1247.66601562 2837.99804688 1262.99902344 c 2
 2849.99804688 1284.99902344 l 1
 2853.99804688 1280.33203125 2856.99804688 1271.33203125 2858.99804688 1257.99902344 c 0
 2862.99804688 1255.99902344 2865.33105469 1254.99902344 2865.99804688 1254.99902344 c 0
 2867.99804688 1254.99902344 2870.66503906 1255.99902344 2873.99804688 1257.99902344 c 2
 2894.99804688 1292.99902344 l 1
 2900.99804688 1289.66601562 2903.99804688 1286.66601562 2903.99804688 1283.99902344 c 0
2124.99804688 1625.99902344 m 0
 2124.99804688 1579.99902344 2116.99804688 1553.33105469 2100.99804688 1545.99804688 c 0
 2092.99804688 1545.33105469 2085.66503906 1544.99804688 2078.99804688 1544.99804688 c 0
 2070.99804688 1544.99804688 2063.33105469 1545.33105469 2055.99804688 1545.99804688 c 1
 2049.99804688 1529.33105469 2039.66503906 1520.99804688 2024.99804688 1520.99804688 c 0
 2004.99804688 1520.99804688 1994.99804688 1528.99804688 1994.99804688 1544.99804688 c 0
 1992.99804688 1549.66503906 1991.99804688 1555.66503906 1991.99804688 1562.99804688 c 0
 1991.99804688 1571.66503906 1993.33105469 1582.66503906 1995.99804688 1595.99804688 c 0
 2001.33105469 1617.99804688 2008.33105469 1628.33105469 2016.99804688 1626.99804688 c 1
 2014.99804688 1624.33105469 2013.99804688 1620.99804688 2013.99804688 1616.99804688 c 0
 2013.99804688 1605.66503906 2019.66503906 1594.66503906 2030.99804688 1583.99804688 c 0
 2035.66503906 1583.99804688 2047.99804688 1598.33105469 2067.99804688 1626.99804688 c 1
 2071.99804688 1620.33105469 2075.66503906 1611.33105469 2078.99804688 1599.99804688 c 0
 2082.99804688 1597.99804688 2085.99804688 1596.99804688 2087.99804688 1596.99804688 c 0
 2089.99804688 1596.99804688 2091.99804688 1598.33105469 2093.99804688 1600.99804688 c 0
 2095.99804688 1603.66503906 2103.33105469 1615.33203125 2115.99804688 1635.99902344 c 1
 2121.99804688 1633.33203125 2124.99804688 1629.99902344 2124.99804688 1625.99902344 c 0
1122.99804688 1649.99804688 m 0
 1122.99804688 1604.66503906 1114.99804688 1577.99804688 1098.99804688 1569.99804688 c 0
 1090.33105469 1567.99804688 1082.33105469 1566.99804688 1074.99804688 1566.99804688 c 0
 1068.33105469 1566.99804688 1061.33105469 1567.99804688 1053.99804688 1569.99804688 c 1
 1047.99804688 1553.33105469 1037.66503906 1544.99804688 1022.99804688 1544.99804688 c 0
 1002.99804688 1544.99804688 992.998046875 1552.99804688 992.998046875 1568.99804688 c 0
 990.998046875 1573.66503906 989.998046875 1579.66503906 989.998046875 1586.99804688 c 0
 989.998046875 1596.99804688 991.331054688 1607.99804688 993.998046875 1619.99804688 c 0
 999.331054688 1641.99804688 1006.33105469 1652.33105469 1014.99804688 1650.99804688 c 1
 1018.33105469 1636.33105469 1022.33105469 1621.33105469 1026.99804688 1605.99804688 c 1
 1038.33105469 1605.99804688 1047.99804688 1613.66503906 1055.99804688 1628.99804688 c 2
 1067.99804688 1650.99804688 l 1
 1071.99804688 1646.33105469 1074.99804688 1636.99804688 1076.99804688 1622.99804688 c 0
 1080.99804688 1620.99804688 1083.33105469 1619.99804688 1083.99804688 1619.99804688 c 0
 1085.99804688 1620.66503906 1088.66503906 1621.66503906 1091.99804688 1622.99804688 c 2
 1112.99804688 1658.99804688 l 1
 1118.99804688 1655.66503906 1122.33105469 1652.66503906 1122.99804688 1649.99804688 c 0
1281.99804688 1157.99804688 m 2
 1281.99804688 1106.66503906 1278.66503906 1068.66503906 1271.99804688 1043.99804688 c 0
 1262.66503906 1012.66503906 1241.99804688 969.665039062 1209.99804688 914.998046875 c 1
 1171.99804688 890.998046875 1118.99804688 848.998046875 1050.99804688 788.998046875 c 1
 1044.99804688 776.998046875 1024.66503906 733.331054688 989.998046875 657.998046875 c 1
 982.665039062 627.331054688 966.998046875 594.331054688 942.998046875 558.998046875 c 0
 936.998046875 550.331054688 925.665039062 546.331054688 908.998046875 546.998046875 c 0
 884.998046875 546.998046875 868.998046875 547.665039062 860.998046875 548.998046875 c 0
 759.665039062 537.665039062 695.665039062 531.998046875 668.998046875 531.998046875 c 1
 702.998046875 543.998046875 736.331054688 563.998046875 768.998046875 591.998046875 c 0
 778.998046875 597.331054688 803.665039062 612.331054688 842.998046875 636.998046875 c 0
 861.665039062 646.998046875 888.998046875 670.998046875 924.998046875 708.998046875 c 0
 948.998046875 734.331054688 965.998046875 760.998046875 975.998046875 788.998046875 c 0
 993.998046875 836.998046875 1018.66503906 887.998046875 1049.99804688 941.998046875 c 0
 1065.99804688 967.998046875 1105.33105469 1000.33105469 1167.99804688 1038.99804688 c 0
 1173.99804688 1044.33105469 1188.99804688 1053.99804688 1212.99804688 1067.99804688 c 1
 1214.99804688 1078.66503906 1215.99804688 1086.99804688 1215.99804688 1092.99804688 c 2
 1215.99804688 1241.99804688 l 2
 1215.99804688 1321.99804688 1215.49804688 1382.99804688 1214.49804688 1424.99804688 c 0
 1213.49804688 1466.99804688 1212.99804688 1512.99804688 1212.99804688 1562.99804688 c 1
 1224.99804688 1580.99804688 1247.99804688 1618.99804688 1281.99804688 1676.99804688 c 1
 1281.99804688 1157.99804688 l 2
EndSplineSet
Validated: 524325
EndChar

StartChar: a
Encoding: 97 97 66
Width: 1139
Flags: HMW
HStem: -20 137<441.333 481.667> 0 21G<849 849 849 972> 532 119<624 640> 977 137<554.667 617.667>
VStem: 93 174<271 339.333 271 413.667> 806 166<440 539 539 539> 849 123<0 748>
LayerCount: 2
Fore
SplineSet
849 0 m 1x7a
 816 156 l 1
 808 156 l 1
 753 87 699 41 644 16 c 0
 590 -8 522 -20 441 -20 c 0
 332 -20 247 8 186 64 c 0
 124 120 93 200 93 303 c 0
 93 524 270 640 624 651 c 2
 810 657 l 1
 810 725 l 2
 810 811 792 874 754 916 c 0
 718 956 658 977 577 977 c 0
 486 977 382 949 267 893 c 1
 216 1020 l 1
 270 1049 329 1072 394 1089 c 0
 458 1106 522 1114 587 1114 c 0
 718 1114 814 1085 878 1027 c 0
 940 969 972 876 972 748 c 2xbc
 972 0 l 1
 849 0 l 1x7a
474 117 m 0
 577 117 658 145 718 202 c 0
 776 259 806 338 806 440 c 2
 806 539 l 1
 640 532 l 2
 508 527 413 507 354 470 c 0
 296 434 267 378 267 301 c 0
 267 241 285 195 322 164 c 0
 358 133 409 117 474 117 c 0
EndSplineSet
Validated: 1
EndChar

StartChar: b
Encoding: 98 98 67
Width: 1255
Flags: HMW
HStem: -20 139 0 21G<176 295 176 176> 975 139<610 714.333>
VStem: 176 119<0 1556> 176 166<141 141 1135.67 1178 1178 1556> 969 172<481.333 622.333>
LayerCount: 2
Fore
SplineSet
686 1114 m 0x6c
 830 1114 942 1065 1022 966 c 0
 1101 868 1141 729 1141 549 c 0
 1141 369 1101 229 1020 130 c 0
 940 30 829 -20 686 -20 c 0
 615 -20 550 -7 490 20 c 0
 432 46 382 86 342 141 c 1xac
 330 141 l 1
 295 0 l 1
 176 0 l 1x74
 176 1556 l 1
 342 1556 l 1
 342 1178 l 2
 342 1093 339 1017 334 950 c 1
 342 950 l 1
 419 1059 534 1114 686 1114 c 0x6c
662 975 m 0
 549 975 467 943 417 878 c 0
 367 813 342 703 342 549 c 0
 342 395 368 285 419 219 c 0
 470 152 553 119 666 119 c 0
 768 119 844 156 894 231 c 0
 944 305 969 412 969 551 c 0
 969 694 944 800 894 870 c 0
 844 940 767 975 662 975 c 0
EndSplineSet
Validated: 1
EndChar

StartChar: c
Encoding: 99 99 68
Width: 975
Flags: HMW
HStem: -20 145<556.666 655.666 556.666 669.667> 918 21G 969 147
VStem: 115 172
LayerCount: 2
Fore
SplineSet
614 -20 m 0
 455 -20 332 29 245 126 c 0
 158 224 115 362 115 541 c 0
 115 724 159 866 247 966 c 0
 336 1066 462 1116 625 1116 c 0
 678 1116 730 1110 783 1099 c 0
 836 1088 877 1074 907 1059 c 1
 856 918 l 1
 819 933 779 945 736 954 c 0
 693 964 654 969 621 969 c 0
 398 969 287 827 287 543 c 0
 287 408 314 305 368 233 c 0
 423 161 503 125 610 125 c 0
 701 125 795 145 891 184 c 1
 891 37 l 1
 818 -1 725 -20 614 -20 c 0
EndSplineSet
Validated: 1
EndChar

StartChar: d
Encoding: 100 100 69
Width: 1255
Flags: MW
HStem: -20 139<540.334 645.333> 0 21G<944 1079 944 944> 977 139<539.335 643.333 497.667 644.668>
VStem: 115 172 913 166<1110 1556 0 1556> 944 135<0 1556>
LayerCount: 2
Fore
SplineSet
922 147 m 1x74
 913.000976562 147 l 1
 836.333984375 35.6669921875 721.666992188 -20 569 -20 c 0
 425.666992188 -20 314.166992188 29 234.5 127 c 0
 154.833007812 225 115 364.333007812 115 545 c 0
 115 725.666992188 155 866 235 966 c 0
 315 1066 426.333007812 1116 569 1116 c 0
 717.666992188 1116 831.666992188 1062 911 954 c 1
 924 954 l 1
 917 1033 l 1
 913 1110 l 1
 913 1556 l 1
 1079 1556 l 1xb8
 1079 0 l 1
 944 0 l 1
 922 147 l 1x74
590.000976562 119 m 0
 703.333984375 119 785.501953125 149.833984375 836.501953125 211.500976562 c 0
 887.501953125 273.16796875 913.001953125 372.66796875 913.001953125 510.000976562 c 2
 913.001953125 545.000976562 l 2
 913.001953125 700.333984375 887.168945312 811.166992188 835.501953125 877.5 c 0
 783.834960938 943.833007812 701.334960938 977 588.001953125 977 c 0
 490.668945312 977 416.168945312 939.166992188 364.501953125 863.5 c 0
 312.834960938 787.833007812 287.001953125 681 287.001953125 543 c 0
 287.001953125 403 312.668945312 297.333007812 364.001953125 226 c 0
 415.334960938 154.666992188 490.66796875 119 590.000976562 119 c 0
EndSplineSet
Validated: 524289
EndChar

StartChar: e
Encoding: 101 101 70
Width: 1149
Flags: MW
HStem: -20 145<652 739> 518 135<354 927 354 1105 350 927> 977 139<613 700.333>
VStem: 178 172<518 518 518 627.333> 927 178<518 705.333>
LayerCount: 2
Fore
SplineSet
702 -20 m 0
 540 -20 412.166992188 29.3330078125 318.5 128 c 0
 224.833007812 226.666992188 178 363.666992188 178 539 c 0
 178 715.666992188 221.5 856 308.5 960 c 0
 395.5 1064 512.333007812 1116 659 1116 c 0
 796.333007812 1116 905 1070.83300781 985 980.5 c 0
 1065 890.166992188 1105 771 1105 623 c 2
 1105 518 l 1
 350 518 l 1
 353.333007812 389.333007812 385.833007812 291.666992188 447.5 225 c 0
 509.166992188 158.333007812 596 125 708 125 c 0
 826 125 942.666992188 149.666992188 1058 199 c 1
 1058 51 l 1
 999.333007812 25.6669921875 943.833007812 7.5 891.5 -3.5 c 0
 839.166992188 -14.5 776 -20 702 -20 c 0
657 977 m 0
 569 977 498.833007812 948.333007812 446.5 891 c 0
 394.166992188 833.666992188 363.333007812 754.333007812 354 653 c 1
 927 653 l 1
 927 757.666992188 903.666992188 837.833007812 857 893.5 c 0
 810.333007812 949.166992188 743.666992188 977 657 977 c 0
EndSplineSet
Validated: 524289
EndChar

StartChar: f
Encoding: 102 102 71
Width: 694
Flags: MW
HStem: 0 21G<225 391 225 225> 967 75<29 225 29 29> 967 129<391 670 391 670> 1430 137<543.667 597.667>
VStem: 225 166<0 967 0 967 1102 1163 1163 1167>
LayerCount: 2
Fore
SplineSet
670 967 m 1xb8
 391 967 l 1xb8
 391 0 l 1
 225 0 l 1
 225 967 l 1
 29 967 l 1
 29 1042 l 1xd8
 225 1102 l 1
 225 1163 l 2
 225 1432.33300781 342.666992188 1567 578 1567 c 0
 636 1567 704 1555.33300781 782 1532 c 1
 739 1399 l 1
 675 1419.66699219 620.333007812 1430 575 1430 c 0
 512.333007812 1430 466 1409.16699219 436 1367.5 c 0
 406 1325.83300781 391 1259 391 1167 c 2
 391 1096 l 1
 670 1096 l 1
 670 967 l 1xb8
EndSplineSet
Validated: 524289
EndChar

StartChar: g
Encoding: 103 103 72
Width: 1122
Flags: MW
HStem: -492 127 25 149 395 117 995 101 995 121
VStem: 39 160 125 164<706.666 786.333 706.666 801> 184 148 778 164 899 160
LayerCount: 2
Fore
SplineSet
1073 1096 m 1xf2
 1073 990.999023438 l 1
 870 966.999023438 l 1
 888.666992188 943.666015625 905.333984375 913.166015625 920.000976562 875.499023438 c 0
 934.66796875 837.83203125 942.000976562 795.33203125 942.000976562 747.999023438 c 0
 942.000976562 640.666015625 905.333984375 554.999023438 832.000976562 490.999023438 c 0
 758.66796875 426.999023438 658.000976562 394.999023438 530.000976562 394.999023438 c 0
 497.333984375 394.999023438 466.666992188 397.666015625 438 402.999023438 c 1
 367.333007812 365.666015625 332 318.666015625 332 261.999023438 c 0xf180
 332 231.999023438 344.333007812 209.83203125 369 195.499023438 c 0
 393.666992188 181.166015625 436 173.999023438 496 173.999023438 c 2
 690 173.999023438 l 2
 808.666992188 173.999023438 899.833984375 148.999023438 963.500976562 98.9990234375 c 0
 1027.16796875 48.9990234375 1059.00097656 -23.66796875 1059.00097656 -119.000976562 c 0
 1059.00097656 -240.333984375 1010.33398438 -332.833984375 913.000976562 -396.500976562 c 0
 815.66796875 -460.16796875 673.66796875 -492.000976562 487.000976562 -492.000976562 c 0
 343.66796875 -492.000976562 233.16796875 -465.333984375 155.500976562 -412.000976562 c 0
 77.833984375 -358.66796875 39.0009765625 -283.334960938 39.0009765625 -186.001953125 c 0xf440
 39.0009765625 -119.334960938 60.333984375 -61.66796875 103.000976562 -13.0009765625 c 0
 145.66796875 35.666015625 205.66796875 68.666015625 283.000976562 85.9990234375 c 1
 255.000976562 98.666015625 231.500976562 118.333007812 212.500976562 145 c 0
 193.500976562 171.666992188 184.000976562 202.666992188 184.000976562 238 c 0xf1
 184.000976562 278 194.66796875 313 216.000976562 343 c 0
 237.333984375 373 271.000976562 402 317.000976562 430 c 1
 260.333984375 453.333007812 214.166992188 493 178.5 549 c 0
 142.833007812 605 125 669 125 741 c 0
 125 861 161 953.5 233 1018.5 c 0
 305 1083.5 407 1116 539 1116 c 0xea
 596.333007812 1116 648 1109.33300781 694 1096 c 1
 1073 1096 l 1xf2
199 -184.000976562 m 0xe440
 199 -243.333984375 224 -288.333984375 274 -319.000976562 c 0
 324 -349.66796875 395.666992188 -365.000976562 489 -365.000976562 c 0
 628.333007812 -365.000976562 731.5 -344.16796875 798.5 -302.500976562 c 0
 865.5 -260.833984375 899 -204.333984375 899 -133.000976562 c 0
 899 -73.66796875 880.666992188 -32.5009765625 844 -9.5009765625 c 0
 807.333007812 13.4990234375 738.333007812 24.9990234375 637 24.9990234375 c 2
 438 24.9990234375 l 2
 362.666992188 24.9990234375 304 6.9990234375 262 -29.0009765625 c 0
 220 -65.0009765625 199 -116.66796875 199 -184.000976562 c 0xe440
289 744.999023438 m 0xea80
 289 668.33203125 310.66796875 610.33203125 354.000976562 570.999023438 c 0
 397.333984375 531.666015625 457.666992188 511.999023438 535 511.999023438 c 0
 697 511.999023438 778 590.666015625 778 747.999023438 c 0
 778 912.666015625 696 994.999023438 532 994.999023438 c 0
 454 994.999023438 394 973.999023438 352 931.999023438 c 0
 310 889.999023438 289 827.666015625 289 744.999023438 c 0xea80
EndSplineSet
Validated: 524289
EndChar

StartChar: h
Encoding: 104 104 73
Width: 1257
Flags: MW
HStem: 0 21G<124 290 124 124 874 1040 874 874> 975 139<599.333 665.333>
VStem: 124 166<0 573 1056.67 1085 1085 1556> 874 166<0 709 709 715 0 753.667>
LayerCount: 2
Fore
SplineSet
874 0 m 1
 874 709 l 2
 874 798.333007812 853.666992188 865 813 909 c 0
 772.333007812 953 708.666992188 975 622 975 c 0
 506.666992188 975 422.5 943.666992188 369.5 881 c 0
 316.5 818.333007812 290 715.666992188 290 573 c 2
 290 0 l 1
 124 0 l 1
 124 1556 l 1
 290 1556 l 1
 290 1085 l 2
 290 1028.33300781 287.333007812 981.333007812 282 944 c 1
 292 944 l 1
 324.666992188 996.666992188 371.166992188 1038.16699219 431.5 1068.5 c 0
 491.833007812 1098.83300781 560.666992188 1114 638 1114 c 0
 772 1114 872.5 1082.16699219 939.5 1018.5 c 0
 1006.5 954.833007812 1040 853.666992188 1040 715 c 2
 1040 0 l 1
 874 0 l 1
EndSplineSet
Validated: 524289
EndChar

StartChar: i
Encoding: 105 105 74
Width: 518
Flags: MW
HStem: 0 21G<176 342 176 176> 1282 221
VStem: 162 196<1374.33 1411.67 1374.33 1412> 176 166<0 1096>
LayerCount: 2
Fore
SplineSet
342 0 m 1xd0
 176 0 l 1
 176 1096 l 1
 342 1096 l 1
 342 0 l 1xd0
162 1393 m 0xe0
 162 1431 171.333007812 1458.83300781 190 1476.5 c 0
 208.666992188 1494.16699219 232 1503 260 1503 c 0
 286.666992188 1503 309.666992188 1494 329 1476 c 0
 348.333007812 1458 358 1430.33300781 358 1393 c 0
 358 1355.66699219 348.333007812 1327.83398438 329 1309.50097656 c 0
 309.666992188 1291.16796875 286.666992188 1282.00097656 260 1282.00097656 c 0
 232 1282.00097656 208.666992188 1291.16796875 190 1309.50097656 c 0
 171.333007812 1327.83398438 162 1355.66699219 162 1393 c 0xe0
EndSplineSet
Validated: 524289
EndChar

StartChar: j
Encoding: 106 106 75
Width: 518
Flags: MW
HStem: -492 140<11.3335 51 2.6665 142.667> 1282 221
VStem: 162 196 176 166<-180 -168 -168 1096>
LayerCount: 2
Fore
SplineSet
43 -492 m 0xd0
 -20.3330078125 -492 -71.6669921875 -483.666992188 -111 -467 c 1
 -111 -332 l 1
 -65 -345.333007812 -19.6669921875 -352 25 -352 c 0
 77 -352 115.166992188 -337.833007812 139.5 -309.5 c 0
 163.833007812 -281.166992188 176 -238 176 -180 c 2
 176 1096 l 1
 342 1096 l 1
 342 -168 l 2
 342 -384 242.333007812 -492 43 -492 c 0xd0
161.999023438 1393 m 0xe0
 161.999023438 1431 171.33203125 1458.83300781 189.999023438 1476.5 c 0
 208.666015625 1494.16699219 231.999023438 1503 259.999023438 1503 c 0
 286.666015625 1503 309.666015625 1494 328.999023438 1476 c 0
 348.33203125 1458 357.999023438 1430.33300781 357.999023438 1393 c 0
 357.999023438 1355.66699219 348.33203125 1327.83398438 328.999023438 1309.50097656 c 0
 309.666015625 1291.16796875 286.666015625 1282.00097656 259.999023438 1282.00097656 c 0
 231.999023438 1282.00097656 208.666015625 1291.16796875 189.999023438 1309.50097656 c 0
 171.33203125 1327.83398438 161.999023438 1355.66699219 161.999023438 1393 c 0xe0
EndSplineSet
Validated: 524289
EndChar

StartChar: k
Encoding: 107 107 76
Width: 1075
Flags: MW
HStem: 0 21G
VStem: 176 164<0.000976562 410.001 0.000976562 561 712.667 731.001 731.001 1556>
LayerCount: 2
Fore
SplineSet
340 561 m 1
 368.666992188 601.666992188 412.333007812 655.000976562 471 721.000976562 c 2
 825 1096.00097656 l 1
 1022 1096.00097656 l 1
 578 629.000976562 l 1
 1053 0.0009765625 l 1
 852 0.0009765625 l 1
 465 518.000976562 l 1
 340 410.000976562 l 1
 340 0.0009765625 l 1
 176 0.0009765625 l 1
 176 1556.00097656 l 1
 340 1556.00097656 l 1
 340 731.000976562 l 2
 340 694.333984375 337.333007812 637.666992188 332 561 c 1
 340 561 l 1
EndSplineSet
Validated: 524289
EndChar

StartChar: l
Encoding: 108 108 77
Width: 518
Flags: MW
HStem: 0 21G<176 342 176 176>
VStem: 176 166<0 1556>
LayerCount: 2
Fore
SplineSet
342 0 m 1
 176 0 l 1
 176 1556 l 1
 342 1556 l 1
 342 0 l 1
EndSplineSet
Validated: 1
EndChar

StartChar: m
Encoding: 109 109 78
Width: 1868
Flags: MW
HStem: 0 21G<140 306 140 140 838 1004 838 838 1537 1703 1537 1537> 975 141<598.667 646.667 1292.33 1346.33>
VStem: 140 135<0 1096 1096 1096> 140 166<0 575 0 1096> 838 166<0 612 0 713 0 756.667> 1537 166<0 713 713 715 0 756.667>
LayerCount: 2
Fore
SplineSet
1537 0 m 1xec
 1537 713 l 2
 1537 800.333007812 1518.33300781 865.833007812 1481 909.5 c 0
 1443.66699219 953.166992188 1385.66699219 975 1307 975 c 0
 1203.66699219 975 1127.33300781 945.333007812 1078 886 c 0
 1028.66699219 826.666992188 1004 735.333007812 1004 612 c 2
 1004 0 l 1
 838 0 l 1
 838 713 l 2
 838 800.333007812 819.333007812 865.833007812 782 909.5 c 0
 744.666992188 953.166992188 686.333007812 975 607 975 c 0
 503 975 426.833007812 943.833007812 378.5 881.5 c 0
 330.166992188 819.166992188 306 717 306 575 c 2
 306 0 l 1
 140 0 l 1xdc
 140 1096 l 1
 275 1096 l 1
 302 946 l 1
 310 946 l 1
 341.333007812 999.333007812 385.5 1041 442.5 1071 c 0
 499.5 1101 563.333007812 1116 634 1116 c 0
 805.333007812 1116 917.333007812 1054 970 930 c 1
 978 930 l 1
 1010.66699219 987.333007812 1058 1032.66699219 1120 1066 c 0
 1182 1099.33300781 1252.66699219 1116 1332 1116 c 0
 1456 1116 1548.83300781 1084.16699219 1610.5 1020.5 c 0
 1672.16699219 956.833007812 1703 855 1703 715 c 2
 1703 0 l 1
 1537 0 l 1xec
EndSplineSet
Validated: 524289
EndChar

StartChar: n
Encoding: 110 110 79
Width: 1257
Flags: MW
HStem: 0 21G<176.001 342.001 176.001 176.001 926 1092 926 926> 975 141<656.333 717.334>
VStem: 176 135 176 166 926 166<0 715>
LayerCount: 2
Fore
SplineSet
926 0 m 1xe8
 926.001953125 709 l 2
 926.001953125 798.333007812 905.668945312 865 865.001953125 909 c 0
 824.334960938 953 760.66796875 975 674.000976562 975 c 0
 559.333984375 975 475.333984375 944 422.000976562 882 c 0
 368.66796875 820 342.000976562 717.666992188 342.000976562 575 c 2
 342.000976562 0 l 1
 176.000976562 0 l 1xd8
 176.000976562 1096 l 1
 311.000976562 1096 l 1
 338.000976562 946 l 1
 346.000976562 946 l 1
 380.000976562 1000 427.66796875 1041.83300781 489.000976562 1071.5 c 0
 550.333984375 1101.16699219 618.666992188 1116 694 1116 c 0
 826 1116 925.333007812 1084.16699219 992 1020.5 c 0
 1058.66699219 956.833007812 1092 855 1092 715 c 2
 1092 0 l 1
 926 0 l 1xe8
EndSplineSet
Validated: 524289
EndChar

StartChar: o
Encoding: 111 111 80
Width: 1237
Flags: MW
HStem: -20 139 975 141
VStem: 115 172 950 172
LayerCount: 2
Fore
SplineSet
1122 549 m 0
 1122 370.333007812 1077.00097656 230.83203125 987.000976562 130.499023438 c 0
 897.000976562 30.166015625 772.66796875 -20.0009765625 614.000976562 -20.0009765625 c 0
 516.000976562 -20.0009765625 429.000976562 2.9990234375 353.000976562 48.9990234375 c 0
 277.000976562 94.9990234375 218.333984375 160.999023438 177.000976562 246.999023438 c 0
 135.66796875 332.999023438 115.000976562 433.666015625 115.000976562 548.999023438 c 0
 115.000976562 727.666015625 159.66796875 866.833007812 249.000976562 966.5 c 0
 338.333984375 1066.16699219 462.333984375 1116 621.000976562 1116 c 0
 774.333984375 1116 896.166992188 1065 986.5 963 c 0
 1076.83300781 861 1122 723 1122 549 c 0
287.000976562 548.999023438 m 0
 287.000976562 408.999023438 315.000976562 302.33203125 371.000976562 228.999023438 c 0
 427.000976562 155.666015625 509.333984375 118.999023438 618.000976562 118.999023438 c 0
 726.66796875 118.999023438 809.16796875 155.499023438 865.500976562 228.499023438 c 0
 921.833984375 301.499023438 950.000976562 408.33203125 950.000976562 548.999023438 c 0
 950.000976562 688.33203125 921.833984375 794.165039062 865.500976562 866.498046875 c 0
 809.16796875 938.831054688 726.000976562 974.998046875 616.000976562 974.998046875 c 0
 507.333984375 974.998046875 425.333984375 939.331054688 370.000976562 867.998046875 c 0
 314.66796875 796.665039062 287.000976562 690.33203125 287.000976562 548.999023438 c 0
EndSplineSet
Validated: 524289
EndChar

StartChar: p
Encoding: 112 112 81
Width: 1255
Flags: MW
HStem: -20 139 975 141
VStem: 176 135 176 166 969 172
LayerCount: 2
Fore
SplineSet
686 -20 m 0xd8
 614.666992188 -20 549.499023438 -6.833984375 490.499023438 19.4990234375 c 0
 431.499023438 45.83203125 381.999023438 86.33203125 341.999023438 140.999023438 c 1
 329.999023438 140.999023438 l 1
 337.999023438 76.9990234375 341.999023438 16.33203125 341.999023438 -41.0009765625 c 2
 341.999023438 -492.000976562 l 1
 175.999023438 -492.000976562 l 1xd8
 175.999023438 1095.99902344 l 1
 310.999023438 1095.99902344 l 1xe8
 333.999023438 945.999023438 l 1
 341.999023438 945.999023438 l 1
 384.666015625 1005.99902344 434.333007812 1049.33203125 491 1075.99902344 c 0
 547.666992188 1102.66601562 612.666992188 1115.99902344 686 1115.99902344 c 0
 831.333007812 1115.99902344 943.5 1066.33203125 1022.5 966.999023438 c 0
 1101.5 867.666015625 1141 728.333007812 1141 549 c 0
 1141 369 1100.83300781 229.166992188 1020.5 129.5 c 0
 940.166992188 29.8330078125 828.666992188 -20 686 -20 c 0xd8
661.999023438 974.999023438 m 0
 549.999023438 974.999023438 468.999023438 943.998046875 418.999023438 881.998046875 c 0
 368.999023438 819.998046875 343.33203125 721.331054688 341.999023438 585.998046875 c 2
 341.999023438 548.998046875 l 2
 341.999023438 394.998046875 367.666015625 284.831054688 418.999023438 218.498046875 c 0
 470.33203125 152.165039062 552.665039062 118.998046875 665.998046875 118.998046875 c 0
 760.665039062 118.998046875 834.83203125 157.331054688 888.499023438 233.998046875 c 0
 942.166015625 310.665039062 968.999023438 416.33203125 968.999023438 550.999023438 c 0
 968.999023438 687.666015625 942.166015625 792.499023438 888.499023438 865.499023438 c 0
 834.83203125 938.499023438 759.33203125 974.999023438 661.999023438 974.999023438 c 0
EndSplineSet
Validated: 524289
EndChar

StartChar: q
Encoding: 113 113 82
Width: 1255
Flags: MW
HStem: -20 139 977 139<539.333 643.999 497.666 644.333>
VStem: 115 172 913 166 948 131
LayerCount: 2
Fore
SplineSet
590 119 m 0xf0
 700.666992188 119 781.333007812 148.66796875 832 208.000976562 c 0
 882.666992188 267.333984375 909.666992188 367.333984375 913 508.000976562 c 2
 913 545.000976562 l 2
 913 698.333984375 887 808.666992188 835 876 c 0
 783 943.333007812 700.666992188 977 588 977 c 0
 490.666992188 977 416.166992188 939.166992188 364.5 863.5 c 0
 312.833007812 787.833007812 287 681 287 543 c 0
 287 405 312.5 299.833007812 363.5 227.5 c 0
 414.5 155.166992188 490 119 590 119 c 0xf0
564.999023438 -19.9990234375 m 0
 423.666015625 -19.9990234375 313.33203125 29.6669921875 233.999023438 129 c 0
 154.666015625 228.333007812 114.999023438 367 114.999023438 545 c 0
 114.999023438 724.333007812 154.999023438 864.333007812 234.999023438 965 c 0
 314.999023438 1065.66699219 426.33203125 1116 568.999023438 1116 c 0
 718.999023438 1116 834.33203125 1059.33300781 914.999023438 946 c 1
 923.999023438 946 l 1
 947.999023438 1096 l 1
 1078.99902344 1096 l 1xe8
 1078.99902344 -492 l 1
 912.999023438 -492 l 1
 912.999023438 -23 l 2
 912.999023438 43.6669921875 916.666015625 100.333984375 923.999023438 147.000976562 c 1
 910.999023438 147.000976562 l 1
 834.33203125 35.66796875 718.999023438 -19.9990234375 564.999023438 -19.9990234375 c 0
EndSplineSet
Validated: 524289
EndChar

StartChar: r
Encoding: 114 114 83
Width: 836
Flags: MW
HStem: 0 21G<176 342 176 176> 965 151<641.667 681.333>
VStem: 176 137<0 1096 1096 1096> 176 166<0 588 0 1096>
LayerCount: 2
Fore
SplineSet
676 1116 m 0xe0
 724.666992188 1116 768.333007812 1112 807 1104 c 1
 784 950 l 1
 738.666992188 960 698.666992188 965 664 965 c 0
 575.333007812 965 499.5 929 436.5 857 c 0
 373.5 785 342 695.333007812 342 588 c 2
 342 0 l 1
 176 0 l 1xd0
 176 1096 l 1
 313 1096 l 1
 332 893 l 1
 340 893 l 1
 380.666992188 964.333007812 429.666992188 1019.33300781 487 1058 c 0
 544.333007812 1096.66699219 607.333007812 1116 676 1116 c 0xe0
EndSplineSet
Validated: 524289
EndChar

StartChar: s
Encoding: 115 115 84
Width: 977
Flags: MW
HStem: -20 137 977 139
VStem: 106 158 723 160
LayerCount: 2
Fore
SplineSet
883 299 m 0
 883 197 844.997070312 118.333984375 768.997070312 63.0009765625 c 0
 692.997070312 7.66796875 586.330078125 -19.9990234375 448.997070312 -19.9990234375 c 0
 303.6640625 -19.9990234375 190.331054688 3.0009765625 108.998046875 49.0009765625 c 1
 108.998046875 203.000976562 l 1
 161.665039062 176.333984375 218.165039062 155.333984375 278.498046875 140.000976562 c 0
 338.831054688 124.66796875 396.998046875 117.000976562 452.998046875 117.000976562 c 0
 539.665039062 117.000976562 606.33203125 130.833984375 652.999023438 158.500976562 c 0
 699.666015625 186.16796875 722.999023438 228.334960938 722.999023438 285.001953125 c 0
 722.999023438 327.668945312 704.499023438 364.168945312 667.499023438 394.501953125 c 0
 630.499023438 424.834960938 558.33203125 460.66796875 450.999023438 502.000976562 c 0
 348.999023438 540.000976562 276.499023438 573.16796875 233.499023438 601.500976562 c 0
 190.499023438 629.833984375 158.499023438 662.000976562 137.499023438 698.000976562 c 0
 116.499023438 734.000976562 105.999023438 777.000976562 105.999023438 827.000976562 c 0
 105.999023438 916.333984375 142.33203125 986.833984375 214.999023438 1038.50097656 c 0
 287.666015625 1090.16796875 387.333007812 1116.00097656 514 1116.00097656 c 0
 632 1116.00097656 747.333007812 1092.00097656 860 1044.00097656 c 1
 801 909.000976562 l 1
 691 954.333984375 591.333007812 977.000976562 502 977.000976562 c 0
 423.333007812 977.000976562 364 964.66796875 324 940.000976562 c 0
 284 915.333984375 264 881.333984375 264 838.000976562 c 0
 264 808.66796875 271.5 783.66796875 286.5 763.000976562 c 0
 301.5 742.333984375 325.666992188 722.666992188 359 704 c 0
 392.333007812 685.333007812 456.333007812 658.333007812 551 623 c 0
 681 575.666992188 768.833007812 528 814.5 480 c 0
 860.166992188 432 883 371.666992188 883 299 c 0
EndSplineSet
Validated: 524289
EndChar

StartChar: t
Encoding: 116 116 85
Width: 723
Flags: MW
HStem: -20 137<502.667 520> 967 129<354 672 354 672>
VStem: 188 166<315 322 322 967 1116 1116> 258 96<1350 1350>
LayerCount: 2
Fore
SplineSet
530 117 m 0xe0
 559.333007812 117 587.666992188 119.16796875 615 123.500976562 c 0
 642.333007812 127.833984375 664 132.333984375 680 137.000976562 c 1
 680 10.0009765625 l 1
 662 1.333984375 635.5 -5.8330078125 600.5 -11.5 c 0
 565.5 -17.1669921875 534 -20 506 -20 c 0
 294 -20 188 91.6669921875 188 315 c 2
 188 967 l 1
 31 967 l 1
 31 1047 l 1
 188 1116 l 1xe0
 258 1350 l 1
 354 1350 l 1
 354 1096 l 1xd0
 672 1096 l 1
 672 967 l 1
 354 967 l 1
 354 322 l 2
 354 256 369.666992188 205.333007812 401 170 c 0
 432.333007812 134.666992188 475.333007812 117 530 117 c 0xe0
EndSplineSet
Validated: 524289
EndChar

StartChar: u
Encoding: 117 117 86
Width: 1257
Flags: MW
HStem: -20 139 0 21G
VStem: 164 168<379 1096 1096 1096> 915 166 944 137
LayerCount: 2
Fore
SplineSet
332 1096 m 1xa8
 331.997070312 385.000976562 l 2
 331.997070312 295.66796875 352.330078125 229.000976562 392.997070312 185.000976562 c 0
 433.6640625 141.000976562 497.331054688 119.000976562 583.998046875 119.000976562 c 0
 698.665039062 119.000976562 782.498046875 150.333984375 835.498046875 213.000976562 c 0
 888.498046875 275.66796875 914.998046875 378.000976562 914.998046875 520.000976562 c 2
 914.998046875 1096.00097656 l 1
 1080.99804688 1096.00097656 l 1xb0
 1080.99804688 0.0009765625 l 1
 943.998046875 0.0009765625 l 1x68
 919.998046875 147.000976562 l 1
 910.998046875 147.000976562 l 1
 876.998046875 93.0009765625 829.831054688 51.66796875 769.498046875 23.0009765625 c 0
 709.165039062 -5.666015625 640.33203125 -19.9990234375 562.999023438 -19.9990234375 c 0
 429.666015625 -19.9990234375 329.833007812 11.66796875 263.5 75.0009765625 c 0
 197.166992188 138.333984375 164 239.666992188 164 379 c 2
 164 1096 l 1
 332 1096 l 1xa8
EndSplineSet
Validated: 524289
EndChar

StartChar: v
Encoding: 118 118 87
Width: 1026
Flags: MW
HStem: 0 21G<416 416 416 610>
LayerCount: 2
Fore
SplineSet
416 0 m 1
 0.0009765625 1096 l 1
 178.000976562 1096 l 1
 414.000976562 446 l 2
 467.333984375 294 498.666992188 195.333007812 508 150 c 1
 516 150 l 1
 523.333007812 185.333007812 546.5 258.5 585.5 369.5 c 0
 624.5 480.5 712 722.666992188 848 1096 c 1
 1026 1096 l 1
 610 0 l 1
 416 0 l 1
EndSplineSet
Validated: 524289
EndChar

StartChar: w
Encoding: 119 119 88
Width: 1593
Flags: MW
HStem: 0 21G<1071 1071 1071 1268>
LayerCount: 2
Fore
SplineSet
1071 0 m 1
 870.001953125 643.001953125 l 2
 857.334960938 682.334960938 833.66796875 771.66796875 799.000976562 911.000976562 c 1
 791.000976562 911.000976562 l 1
 764.333984375 794.333984375 741.000976562 704.333984375 721.000976562 641.000976562 c 2
 514.000976562 0.0009765625 l 1
 322.000976562 0.0009765625 l 1
 23.0009765625 1096.00097656 l 1
 197.000976562 1096.00097656 l 1
 267.66796875 820.66796875 321.500976562 611.000976562 358.500976562 467.000976562 c 0
 395.500976562 323.000976562 416.66796875 226.000976562 422.000976562 176.000976562 c 1
 430.000976562 176.000976562 l 1
 437.333984375 214.000976562 449.166992188 263.16796875 465.5 323.500976562 c 0
 481.833007812 383.833984375 496 431.666992188 508 467 c 2
 709 1096 l 1
 889 1096 l 1
 1085 467 l 2
 1122.33300781 352.333007812 1147.66601562 256 1160.99902344 178 c 1
 1168.99902344 178 l 1
 1171.66601562 202 1178.83300781 239 1190.5 289 c 0
 1202.16699219 339 1271.66699219 608 1399 1096 c 1
 1571 1096 l 1
 1268 0 l 1
 1071 0 l 1
EndSplineSet
Validated: 524289
EndChar

StartChar: x
Encoding: 120 120 89
Width: 1073
Flags: MW
HStem: 0 21G<39 227 39 39 844 1032 844 844>
LayerCount: 2
Fore
SplineSet
440 561 m 1
 59 1096 l 1
 248 1096 l 1
 537 676 l 1
 825 1096 l 1
 1012 1096 l 1
 631 561 l 1
 1032 0 l 1
 844 0 l 1
 537 444 l 1
 227 0 l 1
 39 0 l 1
 440 561 l 1
EndSplineSet
Validated: 1
EndChar

StartChar: y
Encoding: 121 121 90
Width: 1032
Flags: MW
HStem: -492 138<140.667 196 116.333 211.333>
LayerCount: 2
Fore
SplineSet
2 1096 m 1
 179.998046875 1096 l 1
 419.998046875 471 l 2
 472.665039062 328.333007812 505.33203125 225.333007812 517.999023438 162 c 1
 525.999023438 162 l 1
 534.666015625 196 552.833007812 254.166992188 580.5 336.5 c 0
 608.166992188 418.833007812 698.666992188 672 852 1096 c 1
 1030 1096 l 1
 559 -152 l 2
 512.333007812 -275.333007812 457.833007812 -362.833007812 395.5 -414.5 c 0
 333.166992188 -466.166992188 256.666992188 -492 166 -492 c 0
 115.333007812 -492 65.3330078125 -486.333007812 16 -475 c 1
 16 -342 l 1
 52.6669921875 -350 93.6669921875 -354 139 -354 c 0
 253 -354 334.333007812 -290 383 -162 c 2
 444 -6 l 1
 2 1096 l 1
EndSplineSet
Validated: 524289
EndChar

StartChar: z
Encoding: 122 122 91
Width: 958
Flags: MW
HStem: 0 129<272 877 272 877> 967 129<119 680 119 862 119 862>
LayerCount: 2
Fore
SplineSet
877 0 m 1
 82 0 l 1
 82 113 l 1
 680 967 l 1
 119 967 l 1
 119 1096 l 1
 862 1096 l 1
 862 967 l 1
 272 129 l 1
 877 129 l 1
 877 0 l 1
EndSplineSet
Validated: 1
EndChar

StartChar: braceleft
Encoding: 123 123 92
Width: 776
Flags: MW
HStem: -324 140<705 705> 498 141<61 101> 1323 139<644.333 705>
VStem: 307 168<2 12 12 305 305 309 829 1124>
LayerCount: 2
Fore
SplineSet
475 12 m 2
 475 -56 494.5 -105.333007812 533.5 -136 c 0
 572.5 -166.666992188 629.666992188 -182.666992188 705 -184 c 1
 705 -324 l 1
 578.333007812 -322.666992188 480.333007812 -293.666992188 411 -237 c 0
 341.666992188 -180.333007812 307 -100.666992188 307 2 c 2
 307 305 l 2
 307 374.333007812 286 423.833007812 244 453.5 c 0
 202 483.166992188 141 498 61 498 c 1
 61 639 l 1
 147.666992188 640.333007812 210.333007812 656.333007812 249 687 c 0
 287.666992188 717.666992188 307 765 307 829 c 2
 307 1135 l 2
 307 1238.33007812 343 1318.66992188 415 1376 c 0
 487 1433.33007812 583.666992188 1462 705 1462 c 1
 705 1323 l 1
 551.666992188 1319 475 1252.66992188 475 1124 c 2
 475 829 l 2
 475 685.666992188 400.666992188 601 252 575 c 1
 252 563 l 1
 400.666992188 537 475 452.333007812 475 309 c 2
 475 12 l 2
EndSplineSet
Validated: 524289
Substitution2: "'rtla' Right to Left Alternates lookup 0 subtable" braceright
EndChar

StartChar: bar
Encoding: 124 124 93
Width: 1128
Flags: MW
VStem: 494 141<-496 1556 -496 1556>
LayerCount: 2
Fore
SplineSet
494 1556 m 1
 635 1556 l 1
 635 -496 l 1
 494 -496 l 1
 494 1556 l 1
EndSplineSet
Validated: 1
EndChar

StartChar: braceright
Encoding: 125 125 94
Width: 776
Flags: MW
HStem: -324 140<72 72> 498 141<674.333 715> 1323 139<72 133.333>
VStem: 299 168<12 305 829 1124 1124 1135>
LayerCount: 2
Fore
SplineSet
522 575 m 1
 373.333007812 601 299 685.666992188 299 829 c 2
 299 1124 l 2
 299 1252.66992188 223.333007812 1319 72 1323 c 1
 72 1462 l 1
 194.666992188 1462 291.166992188 1433 361.5 1375 c 0
 431.833007812 1317 467 1237 467 1135 c 2
 467 829 l 2
 467 764.333007812 486.666992188 716.833007812 526 686.5 c 0
 565.333007812 656.166992188 628.333007812 640.333007812 715 639 c 1
 715 498 l 1
 633.666992188 498 572 483.166992188 530 453.5 c 0
 488 423.833007812 467 374.333007812 467 305 c 2
 467 2 l 2
 467 -100 432.833007812 -179.5 364.5 -236.5 c 0
 296.166992188 -293.5 198.666992188 -322.666992188 72 -324 c 1
 72 -184 l 1
 146 -182.666992188 202.333007812 -166.666992188 241 -136 c 0
 279.666992188 -105.333007812 299 -56 299 12 c 2
 299 309 l 2
 299 385 317.333007812 443 354 483 c 0
 390.666992188 523 446.666992188 549.666992188 522 563 c 1
 522 575 l 1
EndSplineSet
Validated: 524289
Substitution2: "'rtla' Right to Left Alternates lookup 0 subtable" braceleft
EndChar

StartChar: asciitilde
Encoding: 126 126 95
Width: 1171
Flags: MW
HStem: 592 139<813.333 847 813.333 868.333> 713 139<320.333 354>
LayerCount: 2
Fore
SplineSet
338 713 m 0x40
 302.666992188 713 263.833007812 701.833007812 221.5 679.5 c 0
 179.166992188 657.166992188 140 628 104 592 c 1x80
 104 743 l 1
 170.666992188 815.666992188 252 852 348 852 c 0x40
 393.333007812 852 434.833007812 847.333007812 472.5 838 c 0
 510.166992188 828.666992188 558.666992188 811.333007812 618 786 c 0
 662 767.333007812 700.333007812 753.5 733 744.5 c 0
 765.666992188 735.5 797.666992188 731 829 731 c 0x80
 865 731 904.333007812 741.666992188 947 763 c 0
 989.666992188 784.333007812 1029 814 1065 852 c 1x40
 1065 702 l 1
 997 628.666992188 915.666992188 592 821 592 c 0x80
 773 592 728 597.5 686 608.5 c 0
 644 619.5 599 635.666992188 551 657 c 0
 501 678.333007812 461 693 431 701 c 0
 401 709 370 713 338 713 c 0x40
EndSplineSet
Validated: 524289
EndChar

StartChar: guillemotleft
Encoding: 171 171 96
Width: 1018
Flags: W
LayerCount: 2
Fore
SplineSet
82 551 m 1
 424 958 l 1
 543 889 l 1
 254 539 l 1
 543 188 l 1
 424 117 l 1
 82 524 l 1
 82 551 l 1
477 551 m 1
 821 958 l 1
 938 889 l 1
 651 539 l 1
 938 188 l 1
 821 117 l 1
 477 524 l 1
 477 551 l 1
EndSplineSet
Validated: 1
Substitution2: "'rtla' Right to Left Alternates lookup 0 subtable" guillemotright
EndChar

StartChar: uni00B7
Encoding: 183 183 97
Width: 745
Flags: W
LayerCount: 2
Fore
SplineSet
565 551 m 0
 565 505 547.33203125 465.168945312 511.999023438 431.501953125 c 0
 476.666015625 397.834960938 436.333007812 381.001953125 391 381.001953125 c 0
 356.333007812 381.001953125 326.833007812 393.168945312 302.5 417.501953125 c 0
 278.166992188 441.834960938 266 471.334960938 266 506.001953125 c 0
 266 551.334960938 284.5 591.66796875 321.5 627.000976562 c 0
 358.5 662.333984375 399.333007812 680.000976562 444 680.000976562 c 0
 478.666992188 680.000976562 507.5 667.66796875 530.5 643.000976562 c 0
 553.5 618.333984375 565 587.666992188 565 551 c 0
EndSplineSet
Validated: 524289
EndChar

StartChar: guillemotright
Encoding: 187 187 98
Width: 1018
Flags: W
LayerCount: 2
Fore
SplineSet
936 524 m 1
 592 117 l 1
 475 188 l 1
 762 539 l 1
 475 889 l 1
 592 958 l 1
 936 551 l 1
 936 524 l 1
541 524 m 1
 197 117 l 1
 80 188 l 1
 367 539 l 1
 80 889 l 1
 197 958 l 1
 541 551 l 1
 541 524 l 1
EndSplineSet
Validated: 1
Substitution2: "'rtla' Right to Left Alternates lookup 0 subtable" guillemotleft
EndChar

StartChar: afii57388
Encoding: 1548 1548 99
Width: 745
Flags: W
LayerCount: 2
Fore
SplineSet
699 840 m 1
 573 777.333007812 511.000976562 711.333007812 513.000976562 642 c 1
 522.000976562 605 l 1
 557.000976562 572 l 2
 583.000976562 547.333007812 596.66796875 519 598.000976562 487 c 0
 600.000976562 419 569.333984375 378.333007812 506.000976562 365 c 0
 460.66796875 355 422.66796875 366.333007812 392.000976562 399 c 0
 367.333984375 425 354.666992188 455.666992188 354.000976562 491 c 0
 349.333984375 653.666992188 455.666992188 781.666992188 673 875 c 1
 699 840 l 1
EndSplineSet
Validated: 524321
EndChar

StartChar: afii57403
Encoding: 1563 1563 100
Width: 745
Flags: W
LayerCount: 2
Fore
SplineSet
608 1095 m 1
 548 1049 508.666015625 1016.00097656 489.999023438 996.000976562 c 0
 447.999023438 951.333984375 426.999023438 907.000976562 426.999023438 863.000976562 c 1
 434.999023438 823.000976562 l 1
 445.999023438 805.000976562 l 1
 464.999023438 786.000976562 l 1
 495.999023438 748.000976562 l 1
 501.999023438 730.66796875 503.999023438 716.000976562 501.999023438 704.000976562 c 0
 504.666015625 669.333984375 493.999023438 636.666992188 469.999023438 606 c 1
 430.999023438 571 l 1
 389.999023438 552 l 2
 382.666015625 550.666992188 375.666015625 550 368.999023438 550 c 0
 346.999023438 550 324.666015625 557.666992188 301.999023438 573 c 1
 284.666015625 593 274.333007812 614.333007812 271 637 c 2
 266 671 l 1
 264 734.333007812 296.333007812 820 363 928 c 1
 428 1007 l 2
 440 1021.66699219 493 1064 587 1134 c 1
 608 1095 l 1
539.999023438 141.000976562 m 2
 540.666015625 136.333984375 540.997070312 131.333984375 540.997070312 126.000976562 c 0
 540.997070312 89.333984375 524.6640625 57.333984375 491.997070312 30.0009765625 c 0
 459.330078125 2.66796875 423.997070312 -10.9990234375 385.997070312 -10.9990234375 c 0
 340.6640625 -10.9990234375 312.6640625 14.0009765625 301.997070312 64.0009765625 c 1
 296.997070312 109.000976562 l 1
 297.6640625 143.66796875 313.831054688 174.66796875 345.498046875 202.000976562 c 0
 377.165039062 229.333984375 410.33203125 243.000976562 444.999023438 243.000976562 c 0
 465.666015625 243.000976562 485.666015625 236.66796875 504.999023438 224.000976562 c 0
 516.999023438 212.666992188 527.33203125 194.333984375 535.999023438 169.000976562 c 1
 539.999023438 141.000976562 l 2
EndSplineSet
Validated: 524321
EndChar

StartChar: afii57407
Encoding: 1567 1567 101
Width: 868
Flags: W
LayerCount: 2
Fore
SplineSet
481 623 m 1
 476.33203125 703 463.166992188 765.831054688 441.500976562 811.498046875 c 0
 419.833984375 857.165039062 360.666992188 934.665039062 264.000976562 1043.99804688 c 0
 203.333984375 1113.33398438 162.166992188 1173.66699219 140.5 1224.99804688 c 0
 118.833007812 1276.33105469 108 1326.33105469 108 1374.99804688 c 0
 108 1446.33105469 132 1511.33105469 180 1569.99804688 c 0
 244.666992188 1649.99804688 345.666992188 1689.99804688 483 1689.99804688 c 0
 593.666992188 1689.99804688 681.333984375 1660.99804688 746 1602.99804688 c 0
 810.666992188 1544.99804688 843 1478.33105469 843 1402.99804688 c 0
 843 1353.66503906 831.5 1315.16503906 808.5 1287.49804688 c 0
 785.5 1259.83105469 760 1245.99804688 732 1245.99804688 c 0
 710 1245.99804688 691.333007812 1254.16503906 676 1270.49804688 c 0
 660.666992188 1286.83105469 653 1306.99804688 653 1330.99804688 c 0
 653 1349.66503906 663 1376.99804688 683 1412.99804688 c 0
 703 1448.99804688 713 1479.33105469 713 1503.99804688 c 0
 713 1535.99804688 696.333007812 1565.66503906 663 1592.99804688 c 0
 629.666992188 1620.33105469 584 1633.99804688 526 1633.99804688 c 0
 460.666992188 1633.99804688 405.5 1608.99804688 360.5 1558.99804688 c 0
 315.5 1508.99804688 293 1441.66503906 293 1356.99804688 c 0
 293 1315.66503906 299 1274.83203125 311 1234.49902344 c 0
 323 1194.16601562 349 1136.33300781 389 1061 c 0
 440.333984375 963 474.166992188 886.5 490.5 831.5 c 0
 506.834960938 776.5 517.334960938 707 522 623 c 1
 481 623 l 1
 481 623 l 1
495.001953125 498.998046875 m 0
 525.670898438 498.998046875 551.837890625 488.1640625 573.502929688 466.497070312 c 0
 595.169921875 444.830078125 606.002929688 418.330078125 606.002929688 386.997070312 c 0
 606.002929688 356.330078125 595.169921875 330.163085938 573.502929688 308.497070312 c 0
 551.8359375 286.830078125 525.668945312 275.997070312 495.001953125 275.997070312 c 0
 464.334960938 275.997070312 438.001953125 286.830078125 416.001953125 308.497070312 c 0
 394.001953125 330.1640625 383.001953125 356.331054688 383.001953125 386.998046875 c 0
 383.001953125 418.331054688 393.834960938 444.831054688 415.501953125 466.498046875 c 0
 437.168945312 488.165039062 463.668945312 498.998046875 495.001953125 498.998046875 c 0
EndSplineSet
Validated: 524293
EndChar

StartChar: uni0780
Encoding: 1920 1920 102
Width: 1110
Flags: MW
HStem: 91.999 180
LayerCount: 2
Fore
SplineSet
877 641 m 0
 918.333007812 670.333007812 947.333007812 684.999023438 964 684.999023438 c 0
 984.670898438 684.999023438 1002.33789062 673.33203125 1017.00097656 649.999023438 c 0
 1026.33398438 635.33203125 1031.33398438 623.33203125 1032.00097656 613.999023438 c 0
 1034.66796875 580.666015625 1005.66796875 545.666015625 945.000976562 508.999023438 c 2
 594.000976562 294.999023438 l 2
 457.333984375 211.666015625 337.333984375 149.666015625 234.000976562 108.999023438 c 0
 205.333984375 97.666015625 187.666992188 91.9990234375 181 91.9990234375 c 0
 115 84.666015625 73.6669921875 121.666015625 57 202.999023438 c 0
 55 212.999023438 54 222.33203125 54 230.999023438 c 0
 54 263.666015625 71 279.999023438 105 279.999023438 c 0
 115.666992188 279.999023438 132 278.666015625 154 275.999023438 c 0
 176 273.33203125 192.333007812 271.999023438 203 271.999023438 c 0
 233 271.999023438 255 280 281 289.999023438 c 0
 310 303 400.666992188 345.333007812 572 448 c 0
 713.333007812 532.666992188 815 597 877 641 c 0
EndSplineSet
Validated: 524321
EndChar

StartChar: uni0781
Encoding: 1921 1921 103
Width: 1133
Flags: W
LayerCount: 2
Fore
SplineSet
782 586 m 1
 828.666992188 581.333007812 861.670898438 579.333007812 881.00390625 580 c 0
 939.670898438 582 986.337890625 597.666992188 1021.00390625 627 c 1
 1041.67089844 654.333007812 1066.33789062 668 1095.00488281 668 c 0
 1115.671875 668 1134.50488281 659.333007812 1151.50488281 642 c 0
 1168.50488281 624.666992188 1177.00488281 605.666992188 1177.00488281 585 c 0
 1177.00488281 570.333007812 1173.00488281 555.333007812 1165.00488281 540 c 0
 1127.671875 492 1081.00488281 460.333007812 1025.00488281 445 c 0
 986.337890625 434.333007812 928.670898438 429 852.00390625 429 c 0
 826.670898438 429 792.670898438 431.333007812 750.00390625 436 c 1
 701.336914062 387.333007812 617.669921875 318.666015625 499.002929688 230 c 0
 404.3359375 159.333007812 288.668945312 95 152.001953125 37 c 1
 126.001953125 30.3330078125 107.334960938 28.3330078125 96.001953125 31 c 0
 66.001953125 37.6669921875 36.6689453125 71.333984375 8.001953125 132.000976562 c 0
 3.3349609375 142.000976562 0.66796875 156.333984375 0.0009765625 175.000976562 c 0
 -0.666015625 194.333984375 2.6669921875 206.333984375 10 211.000976562 c 0
 24.6669921875 219.66796875 48.333984375 223.66796875 81.0009765625 223.000976562 c 0
 134.333984375 221.668945312 169.666992188 224.3359375 187 231.000976562 c 0
 250.333007812 255.000976562 320.5 291.66796875 397.5 341.000976562 c 0
 474.5 390.334960938 536.666992188 438.66796875 584 486.000976562 c 1
 565.333007812 498.66796875 556 517.66796875 556 543.000976562 c 0
 556 584.333984375 580.333007812 616.666992188 629 640 c 0
 657 653.333007812 682 658.333007812 704 655 c 0
 722.666992188 648.333007812 736 642.333007812 744 637 c 0
 762 625 774.666992188 608 782 586 c 1
EndSplineSet
Validated: 524321
EndChar

StartChar: uni0782
Encoding: 1922 1922 104
Width: 1358
Flags: W
LayerCount: 2
Fore
SplineSet
745 464 m 1
 724.333007812 444 643.663085938 376.66796875 502.99609375 262.000976562 c 0
 444.99609375 214.66796875 371.663085938 164.334960938 282.99609375 111.001953125 c 0
 182.329101562 50.3349609375 116.329101562 17.3349609375 84.99609375 12.001953125 c 0
 80.99609375 11.3349609375 75.99609375 11.001953125 69.99609375 11.001953125 c 0
 34.6630859375 11.001953125 3.99609375 31.001953125 -22.00390625 71.001953125 c 0
 -44.6708984375 106.334960938 -56.00390625 141.001953125 -56.00390625 175.001953125 c 0
 -56.00390625 206.334960938 -40.3369140625 223.334960938 -9.00390625 226.001953125 c 0
 -7.00390625 226.001953125 -2.6708984375 226.334960938 3.99609375 227.001953125 c 0
 10.6630859375 227.668945312 17.99609375 227.668945312 25.99609375 227.001953125 c 1
 23.3291015625 227.001953125 40.99609375 225.668945312 78.99609375 223.001953125 c 0
 114.99609375 220.334960938 136.329101562 220.334960938 142.99609375 223.001953125 c 0
 187.663085938 239.668945312 245.330078125 269.668945312 315.997070312 313.001953125 c 0
 418.6640625 376.334960938 499.331054688 439.001953125 557.998046875 501.001953125 c 1
 537.331054688 515.668945312 525.998046875 536.668945312 523.998046875 564.001953125 c 0
 521.331054688 597.334960938 541.331054688 629.334960938 583.998046875 660.001953125 c 0
 622.665039062 688.668945312 659.665039062 703.001953125 694.998046875 703.001953125 c 0
 750.998046875 703.001953125 780.998046875 675.668945312 784.998046875 621.001953125 c 1
 797.665039062 616.334960938 829.998046875 631.334960938 881.998046875 666.001953125 c 0
 897.331054688 679.334960938 925.331054688 700.001953125 965.998046875 728.001953125 c 1
 978.66796875 730.001953125 989.334960938 731.001953125 997.998046875 731.001953125 c 0
 1009.99804688 731.001953125 1018.99804688 729.334960938 1024.99804688 726.001953125 c 0
 1046.33886719 714.001953125 1060.671875 697.001953125 1067.99707031 675.001953125 c 0
 1070.6640625 655.001953125 1065.33105469 633.501953125 1051.99804688 610.501953125 c 0
 1038.66503906 587.501953125 1032.33203125 574.001953125 1032.99902344 570.001953125 c 0
 1033.66601562 561.334960938 1038.99902344 556.66796875 1048.99902344 556.000976562 c 0
 1088.33203125 553.333984375 1147.99902344 594.000976562 1227.99902344 678.000976562 c 1
 1261.33203125 704.000976562 1285.33203125 716.66796875 1299.99902344 716.000976562 c 0
 1320.66601562 715.333984375 1343.33300781 695.666992188 1368 657 c 0
 1380 637.666992188 1377.33300781 613.666992188 1360 585 c 0
 1310.66699219 503.666992188 1240 444 1148 406 c 0
 1103.32910156 387.333007812 1062.66210938 377.333007812 1026 376 c 0
 954 372.666992188 912.333007812 401.666992188 901 463 c 1
 872.333007812 462.34765625 820.333007812 462.680664062 745 464 c 1
EndSplineSet
Validated: 524321
EndChar

StartChar: uni0783
Encoding: 1923 1923 105
Width: 1266
Flags: W
LayerCount: 2
Fore
SplineSet
491 407 m 1
 471 420.333007812 459.333984375 431.333007812 456.000976562 440 c 0
 449.333984375 455.333007812 446.000976562 472.333007812 446.000976562 491 c 0
 446.000976562 535.666992188 465.000976562 564.666992188 503.000976562 578 c 0
 510.333984375 583.333007812 521.333984375 586 536.000976562 586 c 0
 561.333984375 586 610.333984375 573 683.000976562 547 c 1
 882.000976562 651 l 2
 985.333984375 705 1040.33398438 733.666992188 1047.00097656 737 c 0
 1055.66796875 743.666992188 1065.66796875 747 1077.00097656 747 c 0
 1116.34277344 747 1139.67578125 724.666992188 1147 680 c 0
 1148.33300781 672 1149 665 1149 659 c 0
 1149 643 1132.33300781 624.666992188 1099 604 c 1
 969.666992188 544.666992188 885.666992188 503.333984375 847 480.000976562 c 1
 906.333007812 466.000976562 951.666015625 445.66796875 982.999023438 419.000976562 c 1
 993.666015625 403.000976562 999.666015625 386.66796875 1000.99902344 370.000976562 c 0
 1003.66210938 338.000976562 996.329101562 313.000976562 979 295.000976562 c 0
 954.333007812 269.000976562 920.666015625 261.66796875 877.999023438 273.000976562 c 0
 833.999023438 284.333984375 804.666015625 292.000976562 789.999023438 296.000976562 c 0
 753.33203125 306.000976562 712.33203125 318.66796875 666.999023438 334.000976562 c 1
 523.666015625 236.000976562 412.666015625 163.66796875 333.999023438 117.000976562 c 0
 188.666015625 31.0009765625 84.9990234375 -15.33203125 22.9990234375 -21.9990234375 c 0
 2.9990234375 -23.9990234375 -18.333984375 -13.666015625 -41.0009765625 9.0009765625 c 0
 -72.333984375 40.333984375 -88.0009765625 83.6669921875 -88.0009765625 139 c 0
 -88.0009765625 174.333007812 -65.0009765625 192 -19.0009765625 192 c 0
 -9.0009765625 192 6.33203125 191 26.9990234375 189 c 0
 47.666015625 187 62.9990234375 186 72.9990234375 186 c 0
 94.33203125 186 112.999023438 188.666992188 128.999023438 194 c 0
 199.666015625 226.666992188 253.666015625 253.666992188 290.999023438 275 c 0
 359.666015625 315 426.333007812 359 491 407 c 1
EndSplineSet
Validated: 524321
EndChar

StartChar: uni0784
Encoding: 1924 1924 106
Width: 1095
Flags: W
LayerCount: 2
Fore
SplineSet
621 639 m 1
 696.333007812 698.333007812 772 728 848 728 c 0
 896.666992188 728 941 714.666992188 981 688 c 0
 1026.33300781 658.666992188 1049 620.666992188 1049 574 c 0
 1049 548 1044.33300781 523.666992188 1035 501 c 0
 1011.66699219 443.666992188 940.666992188 386 822 328 c 0
 692.666015625 264.666992188 562.333007812 233 431 233 c 0
 405.666992188 233 381 234.333007812 357 237 c 0
 230.333007812 265 168.333007812 322.666992188 171 410 c 0
 173 484 211 554.333007812 285 621 c 0
 335 666.333007812 395.666992188 689 467 689 c 0
 481 689 494 687.666992188 506 685 c 0
 530 679.666015625 568.333007812 664.333007812 621 639 c 1
497 547 m 1
 480 550 l 2
 469.33203125 552 454.665039062 549.333007812 435.999023438 542 c 0
 372.666015625 518 338.333007812 488 333 452 c 0
 329 424.666992188 344.666992188 411 380 411 c 0
 405.333984375 411 431.666992188 423.666992188 459 449 c 0
 474.333007812 463 483.333007812 472.333007812 486 477 c 0
 498 489 504 505.333007812 504 526 c 1
 497 547 l 1
726 539 m 2
 673.000976562 507 l 2
 658.333984375 494.333007812 651.000976562 477 651.000976562 455 c 0
 651.000976562 451.666992188 652.000976562 449.666992188 654.000976562 449 c 0
 660.66796875 447 667.66796875 446 675.000976562 446 c 0
 696.333984375 446 733.666992188 458.666992188 787 484 c 0
 844.333007812 511.333007812 873 540 873 570 c 0
 873 579.333007812 869.666992188 584.333007812 863 585 c 1
 873 584.333007812 862.666992188 584 832 584 c 0
 811.333007812 584 776 569 726 539 c 2
EndSplineSet
Validated: 524325
EndChar

StartChar: uni0785
Encoding: 1925 1925 107
Width: 1120
Flags: W
LayerCount: 2
Fore
SplineSet
698 767 m 0
 716 781 730.000976562 788.00390625 740.000976562 788.00390625 c 0
 758.66796875 788.00390625 776.16796875 779.836914062 792.500976562 763.50390625 c 0
 808.833984375 747.170898438 817.000976562 729.670898438 817.000976562 711.00390625 c 0
 817.000976562 698.336914062 785.66796875 666.00390625 723.000976562 614.00390625 c 0
 700.333984375 595.336914062 687.666992188 578.00390625 685 562.00390625 c 0
 681 538.670898438 687.333007812 520.670898438 704 508.00390625 c 0
 730 488.670898438 748.333007812 479.00390625 759 479.00390625 c 0
 762.333007812 479.00390625 772.333007812 481.00390625 789 485.00390625 c 0
 821.66796875 493.00390625 855.334960938 503.336914062 890 516.00390625 c 0
 934 532.00390625 961.666992188 541.670898438 973 545.00390625 c 0
 994.333007812 546.336914062 1010 540.669921875 1020 528.002929688 c 1
 1034.66699219 522.002929688 1042 504.669921875 1042 476.002929688 c 0
 1042 452.002929688 1019.33300781 427.3359375 974 402.002929688 c 0
 798.666992188 304.669921875 681.666992188 239.669921875 623 207.002929688 c 2
 421 93.0029296875 l 2
 312.333007812 31.669921875 239.333007812 -3.330078125 202 -11.9970703125 c 0
 174 -18.6640625 155.666992188 -20.6640625 147 -17.9970703125 c 0
 129.666992188 -12.6640625 111.5 0.0029296875 92.5 20.0029296875 c 0
 73.5 40.0029296875 62 58.669921875 58 76.0029296875 c 0
 46.6669921875 129.3359375 55.6669921875 158.668945312 85 164.001953125 c 0
 91.6669921875 166.001953125 102.333984375 167.001953125 117.000976562 167.001953125 c 0
 124.333984375 167.001953125 135.333984375 166.501953125 150.000976562 165.501953125 c 0
 164.66796875 164.501953125 175.66796875 164.001953125 183.000976562 164.001953125 c 0
 202.333984375 164.001953125 217.666992188 165.668945312 229 169.001953125 c 0
 261.666992188 183.001953125 308.666992188 205.668945312 370 237.001953125 c 0
 482 294.334960938 568.333007812 341.66796875 629 379.000976562 c 1
 597 386.333984375 569 402.000976562 545 426.000976562 c 0
 519 451.334960938 506 479.66796875 506 511.000976562 c 0
 506 582.333984375 570 667.666992188 698 767 c 0
EndSplineSet
Validated: 524321
EndChar

StartChar: uni0786
Encoding: 1926 1926 108
Width: 1104
Flags: W
LayerCount: 2
Fore
SplineSet
442 397 m 1
 499.333007812 417.666992188 659.000976562 515.666992188 921.000976562 691 c 0
 940.333984375 699.677734375 953.333984375 705.344726562 960.000976562 708.000976562 c 0
 976.000976562 714.66796875 994.333984375 704.000976562 1015.00097656 676.000976562 c 0
 1029.00097656 657.333984375 1036.33398438 639.000976562 1037.00097656 621.000976562 c 0
 1037.66796875 606.333984375 1024.66796875 587.666992188 998.000976562 565 c 0
 922.000976562 500.333007812 813.000976562 428.333007812 671.000976562 349 c 0
 472.333984375 237.666992188 342.666992188 180.333984375 282 177.000976562 c 0
 258.666992188 175.66796875 236.666992188 184.16796875 216 202.500976562 c 0
 195.333007812 220.833984375 185 241.666992188 185 265 c 0
 185 277.666992188 209 310 257 362 c 1
 293 420.666992188 314 470.666992188 320 512 c 1
 314 620 l 2
 311.334960938 670.66796875 323.66796875 701.334960938 351 712 c 0
 375 721.333007812 395 724.666015625 411 721.999023438 c 0
 451.666992188 715.33203125 474.666992188 681.999023438 480 621.999023438 c 0
 483.333007812 584.666015625 485 561.999023438 485 553.999023438 c 0
 485 492.666015625 470.666992188 440.333007812 442 397 c 1
EndSplineSet
Validated: 524321
EndChar

StartChar: uni0787
Encoding: 1927 1927 109
Width: 1145
Flags: W
LayerCount: 2
Fore
SplineSet
723 246 m 0
 749.666992188 270 779 314.66796875 811 380.000976562 c 0
 841 440.66796875 856 482.000976562 856 504.000976562 c 0
 856 510.000976562 854.333007812 513.000976562 851 513.000976562 c 0
 849.666992188 513.000976562 848 512.333984375 846 511.000976562 c 0
 804 481.66796875 756 447.66796875 702 409.000976562 c 0
 594 331.000976562 521 281.333984375 483 260.000976562 c 2
 302 157.000976562 l 2
 258.666992188 132.333984375 218 113.666992188 180 101 c 0
 174 99 167.666992188 98 161 98 c 0
 139.666992188 98 117.666992188 109.666992188 95 133 c 0
 59 170.333007812 41 212.333007812 41 259 c 0
 41 276.333007812 45.3330078125 291.333007812 54 304 c 0
 67.3330078125 319.333007812 91 327 125 327 c 0
 135 327 149.5 326.5 168.5 325.5 c 0
 187.5 324.5 202 324 212 324 c 0
 232.666992188 324 250.666992188 326 266 330 c 0
 272.666992188 333.333007812 277.333984375 335.333007812 280.000976562 336 c 2
 324.000976562 360 l 2
 396.66796875 400 445.66796875 428.333007812 471.000976562 445 c 2
 746.000976562 630 l 2
 818.66796875 678.66796875 863.000976562 705.334960938 879.000976562 710 c 0
 902.333984375 716.65625 928.666992188 711.323242188 958 694.000976562 c 0
 1001.33300781 668.66796875 1023 627.000976562 1023 569.000976562 c 0
 1023 517.000976562 1008 453.000976562 978 377.000976562 c 0
 934 265.66796875 888.666992188 184.66796875 842 134.000976562 c 0
 833.333007812 124.66796875 821 120.000976562 805 120.000976562 c 0
 784.333007812 120.000976562 763 128.000976562 741 144.000976562 c 0
 716.333007812 161.333984375 704 179.666992188 704 199 c 0
 704 219 710.333007812 234.666992188 723 246 c 0
EndSplineSet
Validated: 524321
EndChar

StartChar: uni0788
Encoding: 1928 1928 110
Width: 1147
Flags: W
LayerCount: 2
Fore
SplineSet
811 546 m 0
 811 570.666992188 793.666992188 582.999023438 759 582.999023438 c 1
 717.666992188 577.657226562 689 570.32421875 673 561 c 0
 621 531 597 502.666992188 601 476 c 0
 601 462.666992188 609.666992188 450.666992188 627 440 c 1
 647 433.333007812 675 435.333007812 711 446 c 0
 777.666992188 466 811 499.333007812 811 546 c 0
545 313.999023438 m 1
 452.333007812 340.666015625 408.33203125 390.333984375 412.999023438 463.000976562 c 0
 414.999023438 497.66796875 436.33203125 541.000976562 476.999023438 593.000976562 c 0
 546.999023438 683.000976562 651.33203125 728.000976562 789.999023438 728.000976562 c 0
 822.666992188 728.000976562 860.333984375 720.333984375 902.999023438 705.000976562 c 0
 987.000976562 675.000976562 1025.66796875 630.333984375 1018.99902344 571.000976562 c 0
 1012.99902344 519.666992188 968.999023438 458 886.999023438 386 c 0
 824.999023438 332 760.33203125 283 692.999023438 239 c 0
 415.666015625 58.3330078125 227.666015625 -41.6669921875 128.999023438 -61 c 0
 125.666015625 -61.6669921875 121.333007812 -62 116 -62 c 0
 90.6669921875 -62 69 -44.3330078125 51 -9 c 0
 35 14.3330078125 25.6669921875 41 23 71 c 0
 19.6669921875 110.333007812 35.6669921875 130 71 130 c 0
 82.3330078125 130 96.3330078125 128.333007812 113 125 c 0
 161.666992188 115 207.666992188 121.666992188 251 145 c 0
 361 204.333007812 459 260.666015625 545 313.999023438 c 1
EndSplineSet
Validated: 524321
EndChar

StartChar: uni0789
Encoding: 1929 1929 111
Width: 1167
Flags: W
LayerCount: 2
Fore
SplineSet
914 530 m 0
 915.333007812 534 916 538.666992188 916 544 c 0
 916 561.333007812 889.666992188 570 837 570 c 1
 693 554 l 2
 685.666992188 553.333007812 670 550.333007812 646 545 c 0
 626.666992188 541 611 539 599 539 c 0
 582.333007812 539 569 544 559 554 c 0
 543.666992188 575.333007812 536 597.666015625 536 620.999023438 c 0
 536 636.33203125 539.333007812 652.33203125 546 668.999023438 c 0
 552.666992188 704.999023438 619.333984375 727.33203125 746 735.999023438 c 0
 778 737.999023438 838.333007812 733.33203125 927 721.999023438 c 0
 1024.33300781 709.33203125 1082.33300781 684.33203125 1101 646.999023438 c 0
 1117.66699219 612.999023438 1123 580.999023438 1117 550.999023438 c 0
 1112.29980469 527.666015625 1106.6328125 510.333007812 1100 499 c 0
 1078 469.666992188 1055.33300781 445 1032 425 c 0
 987.333007812 386.333007812 945.333007812 354.333007812 906 329 c 0
 816.666992188 271 692.666992188 206 534 134 c 0
 452 96.6669921875 370.666992188 62 290 30 c 0
 253.333007812 15.3330078125 221 17.666015625 193 36.9990234375 c 1
 149.666992188 83.666015625 128 128.666015625 128 171.999023438 c 0
 128 210.666015625 149.333007812 229.999023438 192 229.999023438 c 0
 202.666992188 229.999023438 218.666992188 228.33203125 240 224.999023438 c 0
 261.333007812 221.666015625 277.333007812 219.999023438 288 219.999023438 c 0
 306 219.999023438 321.666992188 222.33203125 335 226.999023438 c 0
 404.333984375 251.666015625 439.666992188 264.333007812 441 265 c 0
 510.333007812 292.333007812 588 329.333007812 674 376 c 0
 802.666992188 445.333984375 882.666992188 496.666992188 914 530 c 0
EndSplineSet
Validated: 524321
EndChar

StartChar: uni078A
Encoding: 1930 1930 112
Width: 1130
Flags: W
LayerCount: 2
Fore
SplineSet
469 198 m 1
 409.666992188 235.333007812 380 266.998046875 380 292.998046875 c 0
 380 332.331054688 406 360.331054688 458 376.998046875 c 0
 504 391.665039062 551.666992188 410.33203125 601 432.999023438 c 1
 571 446.999023438 547 459.33203125 529 469.999023438 c 0
 489.666992188 493.999023438 468 512.999023438 464 526.999023438 c 0
 458 546.999023438 458.333007812 565.33203125 465 581.999023438 c 0
 472.333007812 601.33203125 486.333007812 611.999023438 507 613.999023438 c 0
 587 621.33203125 656.333007812 646.33203125 715 688.999023438 c 0
 744.333007812 710.33203125 771 720.999023438 795 720.999023438 c 0
 800.333007812 720.999023438 804.666015625 719.999023438 807.999023438 717.999023438 c 0
 827.999023438 705.33203125 841.33203125 688.999023438 847.999023438 668.999023438 c 0
 849.999023438 662.999023438 850.999023438 646.33203125 850.999023438 618.999023438 c 1
 850.33203125 618.999023438 847.999023438 615.666015625 843.999023438 608.999023438 c 0
 835.999023438 595.666015625 824.666015625 584.999023438 809.999023438 576.999023438 c 0
 795.999023438 564.999023438 785.666015625 556.999023438 778.999023438 552.999023438 c 0
 754.999023438 538.33203125 741.33203125 529.999023438 737.999023438 527.999023438 c 0
 719.999023438 517.999023438 710.999023438 510.666015625 710.999023438 505.999023438 c 0
 711.676757812 503.999023438 717.34375 501.666015625 727.999023438 498.999023438 c 0
 785.33203125 482.999023438 813.999023438 457.999023438 813.999023438 423.999023438 c 0
 813.999023438 417.999023438 809.999023438 407.33203125 801.999023438 391.999023438 c 1
 786.66015625 375.33203125 774.327148438 363.665039062 765 356.999023438 c 0
 721.666992188 324.999023438 688.666992188 302.999023438 666 290.999023438 c 1
 644.666992188 274.999023438 634 269.33203125 634 273.999023438 c 1
 634.666992188 270.666015625 644.666992188 259.333007812 664 240 c 0
 674.676757812 224 681.34375 213.666992188 684 209 c 0
 684.666992188 204.333007812 685 200 685 196 c 0
 685 168 657.666992188 137.333007812 603 104 c 0
 174.333007812 -156 -70.6669921875 -288.666992188 -132 -294 c 0
 -158 -296 -184 -277 -210 -237 c 0
 -233.333007812 -202.333007812 -246.333007812 -170.333007812 -249 -141 c 0
 -253.666992188 -95 -234 -72 -190 -72 c 0
 -177.333007812 -72 -163.333007812 -73 -148 -75 c 0
 -142.666992188 -75.6669921875 -119.666992188 -76 -79 -76 c 0
 -57.6669921875 -76 -36 -72.6669921875 -14 -66 c 0
 70 -29.3330078125 136.666992188 2.6669921875 186 30 c 0
 305.333984375 96.6669921875 399.666992188 152.666992188 469 198 c 1
EndSplineSet
Validated: 524325
EndChar

StartChar: uni078B
Encoding: 1931 1931 113
Width: 1169
Flags: W
LayerCount: 2
Fore
SplineSet
612 337 m 1
 662.666992188 339 702.00390625 341.333984375 730.00390625 344.000976562 c 0
 792.670898438 350.000976562 824.00390625 370.000976562 824.00390625 404.000976562 c 0
 824.00390625 429.334960938 809.670898438 446.66796875 781.00390625 456 c 0
 746.336914062 467.333007812 703.00390625 479 651.00390625 491 c 1
 606.336914062 509 584.00390625 529.666992188 584.00390625 553 c 0
 584.00390625 617.666992188 615.670898438 647 679.00390625 641 c 0
 693.00390625 639.666992188 706.336914062 639 719.00390625 639 c 0
 762.336914062 639 830.336914062 660 923.00390625 702 c 0
 933.00390625 706.666992188 946.336914062 709 963.00390625 709 c 0
 983.00390625 709 1000.17089844 700.833007812 1014.50390625 684.5 c 0
 1028.83691406 668.166992188 1036.00390625 650 1036.00390625 630 c 0
 1036.00390625 607.333007812 1023.33691406 588.666015625 998.00390625 573.999023438 c 0
 976.00390625 563.999023438 954.00390625 553.666015625 932.00390625 542.999023438 c 1
 972.670898438 506.999023438 994.00390625 459.666015625 996.00390625 400.999023438 c 0
 997.336914062 359.666015625 980.336914062 322.666015625 945.00390625 289.999023438 c 0
 868.336914062 219.33203125 757.669921875 183.999023438 613.002929688 183.999023438 c 0
 598.3359375 183.999023438 565.3359375 184.999023438 514.002929688 186.999023438 c 1
 301.3359375 10.9990234375 153.3359375 -102.000976562 70.0029296875 -152.000976562 c 0
 -64.6640625 -232.666992188 -151.997070312 -271 -191.997070312 -267 c 0
 -214.6640625 -262.333007812 -236.997070312 -238.666015625 -258.997070312 -195.999023438 c 0
 -278.997070312 -156.666015625 -288.997070312 -123.666015625 -288.997070312 -96.9990234375 c 0
 -288.997070312 -74.9990234375 -282.6640625 -58.666015625 -269.997070312 -47.9990234375 c 0
 -257.330078125 -41.33203125 -243.330078125 -37.9990234375 -227.997070312 -37.9990234375 c 0
 -216.6640625 -37.9990234375 -199.331054688 -39.83203125 -175.998046875 -43.4990234375 c 0
 -152.665039062 -47.166015625 -135.33203125 -48.9990234375 -123.999023438 -48.9990234375 c 0
 -86.666015625 -48.9990234375 -50.3330078125 -37.666015625 -15 -14.9990234375 c 0
 145 88.333984375 259.333007812 166.666992188 328 220 c 1
 320 236 316 249.333007812 316 260 c 0
 316 292.666992188 324 319 340 339 c 0
 381.333007812 391 430.333007812 416 487 414 c 0
 557.666992188 411.333007812 599.333984375 385.666015625 612 337 c 1
EndSplineSet
Validated: 524321
EndChar

StartChar: uni078C
Encoding: 1932 1932 114
Width: 1133
Flags: W
LayerCount: 2
Fore
SplineSet
731 703 m 0
 767.666992188 719 800.001953125 726.666015625 828.001953125 725.999023438 c 0
 859.334960938 724.666015625 886.66796875 715.666015625 910.000976562 698.999023438 c 0
 958.000976562 664.33203125 991.000976562 618.665039062 1009.00097656 561.998046875 c 0
 1011.66796875 541.331054688 1013.00097656 529.998046875 1013.00097656 527.998046875 c 0
 1011.00097656 453.331054688 984.000976562 389.331054688 932.000976562 335.998046875 c 1
 871.333984375 288.665039062 793.333984375 266.665039062 698.000976562 269.998046875 c 0
 614.66796875 272.665039062 539.66796875 309.998046875 473.000976562 381.998046875 c 1
 427.000976562 365.331054688 382.000976562 345.6640625 338.000976562 322.998046875 c 0
 335.333984375 321.665039062 334.000976562 319.33203125 334.000976562 315.999023438 c 0
 334.000976562 315.33203125 348.333984375 294.83203125 377.000976562 254.499023438 c 0
 405.66796875 214.166015625 419.66796875 186.999023438 419.000976562 172.999023438 c 0
 417.000976562 120.33203125 383.66796875 75.33203125 319.000976562 37.9990234375 c 0
 275.66796875 13.33203125 205.000976562 -10.0009765625 107.000976562 -32.0009765625 c 0
 78.333984375 -38.66796875 39.6669921875 -44.3349609375 -9 -49.001953125 c 0
 -28.3330078125 -51.001953125 -47 -38.001953125 -65 -10.001953125 c 0
 -80.3330078125 13.3310546875 -89.3330078125 35.998046875 -92 57.998046875 c 0
 -98 108.665039062 -84.3330078125 133.998046875 -51 133.998046875 c 0
 -37 133.998046875 -14.6669921875 129.498046875 16 120.498046875 c 0
 46.6669921875 111.498046875 69.6669921875 106.998046875 85 106.998046875 c 0
 90.3330078125 106.998046875 103 107.998046875 123 109.998046875 c 0
 125.666992188 111.331054688 132.666992188 112.998046875 144 114.998046875 c 0
 156.666992188 119.665039062 171.666992188 125.33203125 189 131.999023438 c 0
 223 145.33203125 240 158.999023438 240 172.999023438 c 0
 240 177.666015625 222.666992188 200.333007812 188 241 c 0
 156 278.333984375 140 305.666992188 140 323 c 0
 140 335.666992188 144.666992188 349 154 363 c 1
 159.333007812 379 181.333007812 400 220 426 c 0
 368.666992188 526 539 618.333007812 731 703 c 0
725.001953125 523.999023438 m 1
 680.334960938 499.331054688 657.670898438 478.662109375 657.00390625 461.99609375 c 0
 658.336914062 455.329101562 671.336914062 447.99609375 696.00390625 439.99609375 c 0
 715.336914062 434.663085938 737.669921875 432.330078125 763.002929688 432.997070312 c 0
 788.3359375 433.6640625 810.168945312 439.831054688 828.501953125 451.498046875 c 0
 846.834960938 463.165039062 857.001953125 477.33203125 859.001953125 493.999023438 c 0
 859.668945312 531.999023438 842.001953125 550.33203125 806.001953125 548.999023438 c 0
 789.334960938 548.33203125 762.334960938 539.999023438 725.001953125 523.999023438 c 1
EndSplineSet
Validated: 524321
EndChar

StartChar: uni078D
Encoding: 1933 1933 115
Width: 1151
Flags: W
LayerCount: 2
Fore
SplineSet
705 395 m 1
 609.666992188 383.666992188 545.666015625 375.33203125 512.999023438 369.999023438 c 0
 464.999023438 366.666015625 432.33203125 364.999023438 414.999023438 364.999023438 c 0
 370.999023438 364.999023438 348.999023438 389.33203125 348.999023438 437.999023438 c 0
 348.999023438 478.666015625 375.666015625 505.999023438 428.999023438 519.999023438 c 2
 525.999023438 544.999023438 l 1
 638.666015625 595.666015625 708.999023438 643.666015625 736.999023438 688.999023438 c 0
 752.999023438 714.33203125 777.999023438 726.999023438 811.999023438 726.999023438 c 0
 822.668945312 724.999023438 836.3359375 718.33203125 852.999023438 706.999023438 c 0
 882.999023438 686.33203125 896.666015625 659.999023438 893.999023438 627.999023438 c 1
 880.666015625 606.666015625 867.999023438 591.666015625 855.999023438 582.999023438 c 0
 827.33203125 561.666015625 808.665039062 547.666015625 799.998046875 540.999023438 c 1
 936.665039062 556.33203125 1018.99804688 565.999023438 1046.99804688 569.999023438 c 1
 1075.66503906 565.999023438 1089.99804688 547.666015625 1089.99804688 514.999023438 c 0
 1089.99804688 488.33203125 1085.33105469 470.33203125 1075.99804688 460.999023438 c 2
 1019.99804688 424.999023438 l 2
 805.331054688 289.666015625 617.998046875 174.999023438 457.998046875 80.9990234375 c 0
 270.665039062 -29.66796875 146.33203125 -103.000976562 84.9990234375 -139.000976562 c 0
 47.666015625 -160.333984375 0.666015625 -186.000976562 -56.0009765625 -216.000976562 c 0
 -66.0009765625 -221.333984375 -76.333984375 -224.000976562 -87.0009765625 -224.000976562 c 0
 -116.333984375 -224.000976562 -142.000976562 -203.333984375 -164.000976562 -162.000976562 c 0
 -182.66796875 -126.66796875 -192.000976562 -92.66796875 -192.000976562 -60.0009765625 c 0
 -192.000976562 -27.333984375 -177.66796875 -11.0009765625 -149.000976562 -11.0009765625 c 0
 -138.333984375 -11.0009765625 -122.833984375 -12.16796875 -102.500976562 -14.5009765625 c 0
 -82.16796875 -16.833984375 -66.66796875 -18.0009765625 -56.0009765625 -18.0009765625 c 0
 -23.333984375 -18.0009765625 6.3330078125 -12.0009765625 33 -0.0009765625 c 0
 37 1.33203125 39.6669921875 2.33203125 41 2.9990234375 c 2
 42 2.9990234375 l 1
 42 1.9990234375 l 2
 42.6669921875 2.666015625 43.6669921875 3.3330078125 45 4 c 2
 124 46 l 2
 300 140 493.666992188 256.333007812 705 395 c 1
EndSplineSet
Validated: 524321
EndChar

StartChar: uni078E
Encoding: 1934 1934 116
Width: 1147
Flags: W
LayerCount: 2
Fore
SplineSet
751 664 m 0
 811 686 852.666015625 701.6640625 875.999023438 710.997070312 c 0
 887.999023438 713.6640625 896.999023438 714.6640625 902.999023438 713.997070312 c 0
 906.999023438 715.330078125 911.33203125 715.997070312 915.999023438 715.997070312 c 0
 933.999023438 715.997070312 948.999023438 706.330078125 960.999023438 686.997070312 c 0
 971.666015625 670.330078125 976.999023438 652.663085938 976.999023438 633.99609375 c 0
 976.999023438 609.99609375 966.666015625 592.663085938 945.999023438 581.99609375 c 2
 873.999023438 553.99609375 l 2
 849.33203125 544.663085938 812.33203125 530.99609375 762.999023438 512.99609375 c 0
 736.999023438 503.663085938 723.999023438 496.330078125 723.999023438 490.997070312 c 0
 723.999023438 489.6640625 724.33203125 488.331054688 724.999023438 486.998046875 c 0
 723.666015625 484.998046875 722.666015625 482.998046875 721.999023438 480.998046875 c 0
 721.999023438 475.665039062 737.999023438 458.998046875 769.999023438 430.998046875 c 0
 794.668945312 409.665039062 809.3359375 380.33203125 814 342.999023438 c 0
 816.666992188 322.999023438 816 306.33203125 812 292.999023438 c 0
 798.666992188 248.33203125 769 209.665039062 723 176.998046875 c 0
 682.333007812 147.665039062 637 128.33203125 587 118.999023438 c 0
 497.666992188 101.666015625 422.666992188 91.9990234375 362 89.9990234375 c 0
 262 85.9990234375 205.333007812 88.9990234375 192 98.9990234375 c 1
 162 111.666015625 147 149.666015625 147 212.999023438 c 0
 147 245.666015625 156.666992188 263.333007812 176 266 c 0
 183.333007812 267.333007812 206 261.5 244 248.5 c 0
 282 235.5 309 229 325 229 c 0
 359 229 388.666992188 230.666992188 414 234 c 0
 479.333984375 242.666992188 519.333984375 250 534 256 c 0
 598 270.666992188 630 295.666992188 630 331 c 1
 622 344.333984375 595.333007812 364.666992188 550 392 c 0
 513.333007812 414 495 442.333007812 495 477 c 0
 495 539 580.333007812 601.333007812 751 664 c 0
EndSplineSet
Validated: 524321
EndChar

StartChar: uni078F
Encoding: 1935 1935 117
Width: 1262
Flags: W
LayerCount: 2
Fore
SplineSet
636 622 m 0
 638.676757812 616 644.341796875 613.001953125 652.999023438 613.001953125 c 0
 676.999023438 613.001953125 707.666015625 627.334960938 744.999023438 656.001953125 c 1
 744.33203125 656.001953125 742.999023438 655.334960938 740.999023438 654.001953125 c 1
 791.666015625 696.001953125 826.666015625 717.001953125 845.999023438 717.001953125 c 0
 865.33203125 717.001953125 882.499023438 710.668945312 897.499023438 698.001953125 c 0
 912.499023438 685.334960938 919.999023438 669.66796875 919.999023438 651.000976562 c 0
 919.999023438 642.333984375 913.33203125 627.500976562 899.999023438 606.500976562 c 0
 886.659179688 585.500976562 880.326171875 572.66796875 881 568.000976562 c 0
 883.666992188 552.66796875 890.666992188 544.66796875 902 544.000976562 c 0
 927.333007812 542.000976562 960.666015625 555.000976562 1001.99902344 583.000976562 c 1
 1032.66601562 617.000976562 1054.33300781 640.333984375 1067 653.000976562 c 0
 1096.33300781 683.000976562 1122 698.333984375 1144 699.000976562 c 0
 1162.66699219 699.66796875 1180.5 692.66796875 1197.5 678.000976562 c 0
 1214.5 663.333984375 1222 646.666992188 1220 628 c 0
 1217.33300781 608.6640625 1211 589.331054688 1201 570 c 1
 1140.33300781 498 1085.33300781 449 1036 423 c 0
 1002.66601562 409 983.333007812 400.666992188 978.000976562 398 c 0
 930.000976562 389.333007812 910.66796875 385 920.000976562 385 c 1
 855.333984375 385 811.666992188 393.666992188 789 411 c 1
 769 433.666992188 756.666992188 450.333984375 752 461.000976562 c 1
 662 451.66796875 614.333007812 446.334960938 609 445.001953125 c 0
 535.666992188 395.668945312 485.333984375 358.001953125 458.000976562 332.001953125 c 0
 400.66796875 277.334960938 372.000976562 223.66796875 372.000976562 171.000976562 c 0
 372.000976562 141.66796875 395.333984375 120.000976562 442.000976562 106.000976562 c 0
 475.333984375 96.0009765625 510.000976562 91.0009765625 546.000976562 91.0009765625 c 0
 648.000976562 91.0009765625 739.333984375 100.66796875 820.000976562 120.000976562 c 0
 828.000976562 122.000976562 838.66796875 121.66796875 852.000976562 119.000976562 c 0
 881.333984375 113.66796875 896.666992188 90.0009765625 898 48.0009765625 c 0
 899.333007812 8.66796875 889.666015625 -14.9990234375 868.999023438 -22.9990234375 c 0
 831.666015625 -36.9990234375 788.999023438 -46.9990234375 740.999023438 -52.9990234375 c 2
 609.999023438 -68.9990234375 l 1
 345.999023438 -72.33203125 205.999023438 8.0009765625 189.999023438 172.000976562 c 1
 189.999023438 269.333984375 263.33203125 374.000976562 409.999023438 486.000976562 c 1
 399.33203125 498.000976562 392.999023438 513.000976562 390.999023438 531.000976562 c 0
 386.999023438 570.333984375 396.666015625 604.666992188 419.999023438 634 c 0
 458.666015625 682 501.333007812 706 548 706 c 0
 556.666992188 706 566 704.666992188 576 702 c 0
 616.666992188 691.333007812 637 669 637 635 c 0
 637 630.333007812 636.666992188 626 636 622 c 0
EndSplineSet
Validated: 524321
EndChar

StartChar: uni0790
Encoding: 1936 1936 118
Width: 1856
Flags: W
LayerCount: 2
Fore
SplineSet
1712 641 m 0
 1725.33300781 650.333007812 1747.00097656 674.331054688 1777.00097656 712.998046875 c 1
 1807.00097656 765.66796875 1831.00097656 790.334960938 1849.00097656 786.999023438 c 0
 1871.00097656 782.999023438 1893.00097656 773.33203125 1915.00097656 757.999023438 c 0
 1941.00097656 740.663085938 1955.00097656 722.330078125 1957.00097656 702.999023438 c 0
 1959.66796875 677.6640625 1944.00097656 638.331054688 1910.00097656 584.999023438 c 0
 1894.00097656 560.33203125 1872.00097656 536.999023438 1844.00097656 514.999023438 c 0
 1763.33398438 451.666015625 1660.00097656 415.999023438 1534.00097656 407.999023438 c 0
 1520.66796875 403.33203125 1484.66796875 400.999023438 1426.00097656 400.999023438 c 2
 459.000976562 399.999023438 l 1
 410.333984375 352.666015625 341.333984375 293.333007812 252.000976562 222 c 0
 212.66796875 190.666992188 184.66796875 175 168.000976562 175 c 0
 150.000976562 175 128.833984375 187.5 104.500976562 212.5 c 0
 80.16796875 237.5 68.0009765625 259.333007812 68.0009765625 278 c 0
 68.0009765625 309.333984375 85.66796875 338.666992188 121.000976562 366 c 0
 130.333984375 372.666992188 159.000976562 394 207.000976562 430 c 1
 161.000976562 451 l 2
 150.333984375 457.666992188 139.666992188 471.666992188 129 493 c 1
 123 524 l 1
 129.666992188 575.333007812 152.666992188 612.333007812 192 635 c 0
 251.333007812 669 295.666015625 686 324.999023438 686 c 0
 334.33203125 686 343.33203125 685.333007812 351.999023438 684 c 0
 366.666015625 684 395.333007812 675.666992188 438 659 c 1
 466.666992188 641.665039062 488 610.33203125 502 565 c 1
 525.333007812 563 724 562 1098 562 c 0
 1266.66699219 562 1360.66699219 563 1380 565 c 0
 1490 576.333007812 1550 583 1560 585 c 0
 1640 601 1690.66699219 619.666992188 1712 641 c 0
EndSplineSet
Validated: 524321
EndChar

StartChar: uni0791
Encoding: 1937 1937 119
Width: 1161
Flags: W
LayerCount: 2
Fore
SplineSet
600 515 m 1
 646.666992188 503.666992188 680.666015625 495.668945312 701.999023438 491.001953125 c 0
 751.999023438 479.668945312 780.999023438 472.668945312 788.999023438 470.001953125 c 0
 807.666015625 456.668945312 819.666015625 436.001953125 824.999023438 408.001953125 c 0
 827.653320312 394.668945312 824.8203125 379.8359375 816.5 363.502929688 c 0
 808.166992188 347.169921875 798 336.002929688 786 330.002929688 c 2
 664 272.002929688 l 2
 602.666992188 240.668945312 585 218.3359375 611 205.002929688 c 1
 610.333007812 204.3359375 610 203.668945312 610 203.001953125 c 0
 610 196.334960938 656.333007812 190.334960938 749 185.001953125 c 0
 793.666992188 182.334960938 824 180.334960938 840 179.001953125 c 0
 870.666992188 176.334960938 889 175.001953125 895 175.001953125 c 0
 906.333007812 175.001953125 924.333007812 172.668945312 949 168.001953125 c 1
 972.333007812 159.334960938 984 133.334960938 984 90.001953125 c 0
 984 72.6689453125 979.666992188 57.001953125 971 43.001953125 c 0
 961 26.3349609375 948 18.66796875 932 20.0009765625 c 2
 707 43.0009765625 l 2
 560.333007812 57.66796875 479.333007812 68.66796875 464 76.0009765625 c 1
 400.666992188 84.66796875 369 114.66796875 369 166.000976562 c 0
 369 194.66796875 380.666992188 217.000976562 404 233.000976562 c 2
 611 377.000976562 l 1
 490.333007812 401.000976562 420 420.333984375 400 435.000976562 c 0
 384.666992188 446.333984375 377 467.333984375 377 498.000976562 c 0
 377 518.000976562 382 531.66796875 392 539.000976562 c 0
 484.666992188 606.333984375 559 660.666992188 615 702 c 0
 619.666992188 704 624 705 628 705 c 0
 652.666992188 705 675 683.333007812 695 640 c 0
 696.333007812 628.666992188 689.333007812 608 674 578 c 1
 636.666992188 544.666992188 612 523.666992188 600 515 c 1
EndSplineSet
Validated: 524321
EndChar

StartChar: uni0792
Encoding: 1938 1938 120
Width: 1163
Flags: W
LayerCount: 2
Fore
SplineSet
849 474 m 1
 873 462 890.002929688 452.666992188 900.002929688 446 c 0
 933.3359375 430.666992188 956.668945312 418 970.001953125 408 c 0
 990.001953125 392.666992188 999.668945312 377 999.001953125 361 c 0
 998.334960938 339 993.001953125 320.333007812 983.001953125 305 c 0
 965.001953125 277.666992188 945.334960938 263.333984375 924.001953125 262.000976562 c 0
 920.640625 261.333984375 917.307617188 261.333984375 914.001953125 262.000976562 c 0
 880.001953125 262.000976562 843.668945312 268.000976562 805.001953125 280.000976562 c 0
 738.334960938 300.66796875 685.334960938 318.66796875 646.001953125 334.000976562 c 1
 610.668945312 320.66796875 569.668945312 298.66796875 523.001953125 268.000976562 c 0
 434.334960938 209.333984375 390.001953125 157.333984375 390.001953125 112.000976562 c 0
 390.001953125 41.333984375 460.334960938 6.0009765625 601.000976562 6.0009765625 c 0
 617.66796875 6.0009765625 685.000976562 13.0009765625 803.000976562 27.0009765625 c 0
 847.66796875 32.333984375 876.66796875 35.6669921875 890.000976562 37 c 0
 935.333984375 37.6669921875 958.000976562 12.6669921875 958.000976562 -38 c 0
 958.000976562 -74 946.333984375 -97.6669921875 923.000976562 -109 c 1
 843.000976562 -125 794.66796875 -133.666992188 778.000976562 -135 c 0
 701.333984375 -142.333007812 643.000976562 -146 603.000976562 -146 c 0
 498.333984375 -146 419.666992188 -135 367.000976562 -113 c 0
 258.333984375 -67.6669921875 207.666992188 2.3330078125 215 97 c 0
 221.666992188 177 249 240.333007812 297 287 c 0
 339 327.666992188 398.666992188 372.333984375 476 421.000976562 c 1
 454 436.334960938 442 453.66796875 440 473 c 0
 436.666992188 507.666992188 448.666992188 534.666992188 476 554 c 0
 500 571.333007812 530 580 566 580 c 0
 586 580 604.333007812 577 621 571 c 0
 649 561 666.333007812 555 673 553 c 1
 837 642 l 2
 915.666992188 684.666992188 978 713.666992188 1024 729 c 0
 1030 731.666992188 1036.66699219 733 1044 733 c 0
 1088.66699219 733 1113 705 1117 649 c 0
 1119 623 1100.33300781 600.333007812 1061 581 c 0
 975 539 904.333007812 503.333007812 849 474 c 1
EndSplineSet
Validated: 524321
EndChar

StartChar: uni0793
Encoding: 1939 1939 121
Width: 1174
Flags: W
LayerCount: 2
Fore
SplineSet
574 539 m 0
 583.333007812 565 572.66796875 578 542.000976562 578 c 0
 511.333984375 578 482.500976562 567.166992188 455.500976562 545.5 c 0
 428.500976562 523.833007812 413.000976562 498.333007812 409.000976562 469 c 0
 406.333984375 450.333007812 416.000976562 441 438.000976562 441 c 0
 449.334960938 441 464.66796875 444 484 450 c 0
 528 463.333007812 558 493 574 539 c 0
708.001953125 459 m 0
 708.001953125 454.333007812 708.834960938 450 710.501953125 446 c 0
 712.168945312 442 717.001953125 440 725.001953125 440 c 0
 753.001953125 440 791.668945312 453.333007812 841.001953125 480 c 0
 895.001953125 509.333007812 922.001953125 536 922.001953125 560 c 0
 922.001953125 564 917.334960938 570 908.001953125 578 c 1
 867.334960938 582.666992188 825.001953125 571 781.001953125 543 c 0
 732.334960938 511.666992188 708.001953125 483.666992188 708.001953125 459 c 0
676.001953125 660 m 1
 755.334960938 710.666992188 832.670898438 735.999023438 908.00390625 735.999023438 c 0
 959.336914062 735.999023438 1003.66992188 721.666015625 1041.00292969 692.999023438 c 0
 1081.66992188 662.33203125 1102.00292969 621.999023438 1102.00292969 571.999023438 c 0
 1102.00292969 543.33203125 1094.00292969 516.33203125 1078.00292969 490.999023438 c 0
 1030.66992188 416.999023438 942.669921875 359.666015625 814.002929688 318.999023438 c 0
 734.002929688 293.666015625 615.669921875 278.999023438 459.002929688 274.999023438 c 1
 385.669921875 234.999023438 333.002929688 182.999023438 301.002929688 118.999023438 c 0
 296.3359375 109.666015625 294.002929688 99.3330078125 294.002929688 88 c 0
 294.002929688 43.3330078125 323.002929688 13.666015625 381.002929688 -1.0009765625 c 0
 401.669921875 -6.333984375 448.669921875 -10.6669921875 522.002929688 -14 c 0
 564.002929688 -16 616.3359375 -11.6669921875 679.002929688 -1 c 0
 761.670898438 13 799.337890625 20 792.002929688 20 c 1
 831.3359375 14.6669921875 851.002929688 -12.3330078125 851.002929688 -61 c 0
 851.002929688 -93 840.002929688 -113 818.002929688 -121 c 0
 739.3359375 -149.666992188 640.668945312 -164 522.001953125 -164 c 0
 494.001953125 -164 470.001953125 -163 450.001953125 -161 c 0
 290.668945312 -145 192.668945312 -96.6669921875 156.001953125 -16 c 1
 136.001953125 14 127.668945312 49 131.001953125 89 c 0
 137.001953125 165 191.001953125 248.666992188 293.001953125 340 c 1
 262.334960938 362.666992188 247.001953125 395.666992188 247.001953125 439 c 0
 247.001953125 475.666992188 257.168945312 514.333984375 277.501953125 555.000976562 c 0
 297.8359375 595.66796875 322.668945312 627.000976562 352.001953125 649.000976562 c 0
 395.334960938 681.000976562 436.001953125 699.66796875 474.001953125 705.000976562 c 0
 514.668945312 710.333984375 550.668945312 708.666992188 582.001953125 700 c 1
 676.001953125 660 l 1
 676.001953125 660 l 1
EndSplineSet
Validated: 524325
EndChar

StartChar: uni0794
Encoding: 1940 1940 122
Width: 1180
Flags: W
LayerCount: 2
Fore
SplineSet
707 482 m 1
 531.666992188 311.333007812 337.333007812 167.000976562 124 49.0009765625 c 0
 90 30.333984375 64.3330078125 21.0009765625 47 21.0009765625 c 0
 9 21.0009765625 -19.3330078125 45.0009765625 -38 93.0009765625 c 0
 -54 133.66796875 -62 164.66796875 -62 186.000976562 c 0
 -62 220.66796875 -44.3330078125 238.000976562 -9 238.000976562 c 0
 3.6669921875 238.000976562 22.1669921875 236.000976562 46.5 232.000976562 c 0
 70.8330078125 228.000976562 89.3330078125 226.000976562 102 226.000976562 c 0
 115.333007812 226.000976562 125.666015625 228.000976562 132.999023438 232.000976562 c 0
 188.999023438 262.000976562 236.999023438 290.333984375 276.999023438 317.000976562 c 0
 332.999023438 355.000976562 406.33203125 414.333984375 496.999023438 495.000976562 c 1
 470.33203125 509.66796875 456.999023438 534.66796875 456.999023438 570.000976562 c 0
 456.999023438 575.333984375 457.33203125 581.000976562 457.999023438 587.000976562 c 0
 473.999023438 661.000976562 519.999023438 698.000976562 595.999023438 698.000976562 c 0
 653.33203125 698.000976562 689.33203125 679.000976562 703.999023438 641.000976562 c 1
 741.33203125 639.000976562 787.999023438 649.000976562 843.999023438 671.000976562 c 0
 941.999023438 709.66796875 995.33203125 729.000976562 1003.99902344 729.000976562 c 0
 1036.66601562 729.000976562 1062.33300781 704.66796875 1081 656.000976562 c 0
 1086.33300781 642.000976562 1089 625.66796875 1089 607.000976562 c 0
 1089 539.666992188 1050.66699219 447 974 329 c 0
 924 251.666992188 878.666992188 204.666992188 838 188 c 0
 834.666992188 186.666992188 832 186 830 186 c 0
 818 186 801.666992188 195.333007812 781 214 c 0
 756.333007812 236.666992188 744 256 744 272 c 0
 744 284 756.666992188 305.333007812 782 336 c 0
 818 379.333007812 839.333007812 406 846 416 c 0
 864 442.666992188 879.666992188 473.666992188 893 509 c 0
 893 519.666992188 888.333007812 523 879 519 c 0
 829.666015625 498.333007812 772.333007812 486 707 482 c 1
EndSplineSet
Validated: 524321
EndChar

StartChar: uni0795
Encoding: 1941 1941 123
Width: 1057
Flags: W
LayerCount: 2
Fore
SplineSet
469 198 m 1
 409.666992188 235.333007812 380 266.998046875 380 292.998046875 c 0
 380 332.331054688 406 360.331054688 458 376.998046875 c 0
 504 391.665039062 551.666992188 410.33203125 601 432.999023438 c 1
 571 446.999023438 547 459.33203125 529 469.999023438 c 0
 489.666992188 493.999023438 468 512.999023438 464 526.999023438 c 0
 458 546.999023438 458.333007812 565.33203125 465 581.999023438 c 0
 472.333007812 601.33203125 486.333007812 611.999023438 507 613.999023438 c 0
 587 621.33203125 656.333007812 646.33203125 715 688.999023438 c 0
 744.333007812 710.33203125 771 720.999023438 795 720.999023438 c 0
 800.333007812 720.999023438 804.666015625 719.999023438 807.999023438 717.999023438 c 0
 827.999023438 705.33203125 841.33203125 688.999023438 847.999023438 668.999023438 c 0
 849.999023438 662.999023438 850.999023438 646.33203125 850.999023438 618.999023438 c 1
 850.33203125 618.999023438 847.999023438 615.666015625 843.999023438 608.999023438 c 0
 835.999023438 595.666015625 824.666015625 584.999023438 809.999023438 576.999023438 c 0
 795.999023438 564.999023438 785.666015625 556.999023438 778.999023438 552.999023438 c 0
 754.999023438 538.33203125 741.33203125 529.999023438 737.999023438 527.999023438 c 0
 719.999023438 517.999023438 710.999023438 510.666015625 710.999023438 505.999023438 c 0
 711.676757812 503.999023438 717.34375 501.666015625 727.999023438 498.999023438 c 0
 785.33203125 482.999023438 813.999023438 457.999023438 813.999023438 423.999023438 c 0
 813.999023438 417.999023438 809.999023438 407.33203125 801.999023438 391.999023438 c 1
 786.66015625 375.33203125 774.327148438 363.665039062 765 356.999023438 c 0
 721.666992188 324.999023438 688.666992188 302.999023438 666 290.999023438 c 1
 644.666992188 274.999023438 634 269.33203125 634 273.999023438 c 1
 634.666992188 270.666015625 644.666992188 259.333007812 664 240 c 0
 674.676757812 224 681.34375 213.666992188 684 209 c 0
 684.666992188 204.333007812 685 200 685 196 c 0
 685 168 657.666992188 137.333007812 603 104 c 0
 174.333007812 -156 -70.6669921875 -288.666992188 -132 -294 c 0
 -158 -296 -184 -277 -210 -237 c 0
 -233.333007812 -202.333007812 -246.333007812 -170.333007812 -249 -141 c 0
 -253.666992188 -95 -234 -72 -190 -72 c 0
 -177.333007812 -72 -163.333007812 -73 -148 -75 c 0
 -142.666992188 -75.6669921875 -119.666992188 -76 -79 -76 c 0
 -57.6669921875 -76 -36 -72.6669921875 -14 -66 c 0
 70 -29.3330078125 136.666992188 2.6669921875 186 30 c 0
 305.333984375 96.6669921875 399.666992188 152.666992188 469 198 c 1
471 -98.001953125 m 0
 471 -68.001953125 481.166992188 -42.001953125 501.5 -20.001953125 c 0
 521.833007812 1.998046875 547 12.998046875 577 12.998046875 c 0
 642.333007812 12.998046875 675 -20.001953125 675 -86.001953125 c 0
 675 -113.334960938 664.5 -137.834960938 643.5 -159.501953125 c 0
 622.5 -181.168945312 598.333007812 -192.001953125 571 -192.001953125 c 0
 504.333007812 -192.001953125 471 -160.668945312 471 -98.001953125 c 0
EndSplineSet
Validated: 524325
EndChar

StartChar: uni0796
Encoding: 1942 1942 124
Width: 1167
Flags: W
LayerCount: 2
Fore
SplineSet
931 551 m 1
 947.669921875 533.666992188 958.33984375 521.666015625 963.002929688 514.999023438 c 0
 985.669921875 483.666015625 997.002929688 448.999023438 997.002929688 410.999023438 c 0
 997.002929688 335.666015625 947.3359375 278.999023438 848.002929688 240.999023438 c 0
 772.668945312 212.33203125 685.3359375 197.999023438 586.002929688 197.999023438 c 0
 546.002929688 197.999023438 511.669921875 200.33203125 483.002929688 204.999023438 c 1
 448.3359375 189.666015625 402.668945312 149.333007812 346.002929688 84 c 0
 315.3359375 48.6669921875 300.3359375 18.333984375 301.002929688 -6.9990234375 c 0
 302.3359375 -40.9990234375 319.002929688 -65.33203125 351.002929688 -79.9990234375 c 0
 404.3359375 -103.999023438 459.002929688 -115.666015625 515.002929688 -114.999023438 c 0
 553.669921875 -114.33203125 606.002929688 -108.33203125 672.002929688 -96.9990234375 c 0
 729.3359375 -86.9990234375 764.668945312 -77.9990234375 778.001953125 -69.9990234375 c 0
 786.001953125 -67.9990234375 793.334960938 -66.9990234375 800.001953125 -66.9990234375 c 0
 824.668945312 -66.9990234375 842.001953125 -83.33203125 852.001953125 -115.999023438 c 0
 859.334960938 -138.666015625 862.001953125 -155.333007812 860.001953125 -166 c 0
 856.001953125 -190 846.668945312 -205 832.001953125 -211 c 0
 807.334960938 -225.666992188 780.66796875 -235 752.000976562 -239 c 0
 716.666992188 -247.666992188 643.333984375 -257 532.000976562 -267 c 1
 456.66796875 -267 374.66796875 -251.333007812 286.000976562 -220 c 0
 178.66796875 -182 125.000976562 -109.666992188 125.000976562 -3 c 0
 125.000976562 82.3330078125 185.333984375 166.333007812 306.000976562 249 c 1
 299.333984375 258.333984375 296.000976562 270.666992188 296.000976562 286 c 0
 296.000976562 304 301.000976562 322 311.000976562 340 c 0
 342.333984375 396.666992188 395.333984375 424.333984375 470.000976562 423.000976562 c 0
 499.333984375 422.333984375 526.000976562 413.333984375 550.000976562 396.000976562 c 0
 561.333984375 388.000976562 571.666992188 374.333984375 581 355.000976562 c 1
 739.666992188 349.66796875 823.333984375 371.66796875 832 421.000976562 c 0
 834 434.334960938 816.666992188 448.66796875 780 464 c 1
 760.665039062 466.666992188 725.33203125 475 674 489 c 0
 656.6640625 493.666992188 636.331054688 501.666992188 613 513 c 1
 593 533 583 549 583 561 c 0
 583 621 614.666992188 650.333007812 678 649 c 0
 727.333007812 647.666992188 753 647.333984375 755 648.000976562 c 0
 791.666992188 652.000976562 843.666992188 670.000976562 911 702.000976562 c 0
 932.333007812 712.000976562 947 717.000976562 955 717.000976562 c 0
 975.669921875 717.000976562 994.336914062 709.66796875 1011 695.000976562 c 0
 1027.66699219 680.333984375 1036 662.666992188 1036 642 c 0
 1036 608.665039062 1001 578.33203125 931 551 c 1
EndSplineSet
Validated: 524321
EndChar

StartChar: uni0797
Encoding: 1943 1943 125
Width: 1182
Flags: W
LayerCount: 2
Fore
SplineSet
1358 1111 m 0
 1392 1128.33300781 1417.3359375 1136.99414062 1434.00292969 1136.99414062 c 0
 1454.00292969 1136.99414062 1470.00292969 1127.32714844 1482.00292969 1107.99414062 c 0
 1492.66992188 1091.31933594 1498.00292969 1072.65234375 1498.00292969 1051.99414062 c 0
 1498.00292969 1026.66113281 1490.3359375 1010.328125 1475.00292969 1002.99511719 c 2
 1266.00292969 897.995117188 l 2
 1124.00292969 828.661132812 1016.3359375 771.328125 943.002929688 725.995117188 c 1
 1007.00292969 683.995117188 1040.3359375 631.662109375 1043.00292969 568.995117188 c 0
 1047.66992188 463.662109375 1001.33691406 390.995117188 904.00390625 350.995117188 c 0
 866.668945312 339.662109375 833.3359375 333.995117188 804.00390625 333.995117188 c 0
 758.00390625 333.995117188 703.00390625 349.328125 639.00390625 379.995117188 c 0
 573.00390625 410.662109375 527.00390625 443.995117188 501.00390625 479.995117188 c 1
 431.00390625 448.662109375 384.336914062 428.329101562 361.00390625 418.99609375 c 0
 359.00390625 417.663085938 358.00390625 415.663085938 358.00390625 412.99609375 c 2
 401.00390625 355.99609375 l 2
 429.00390625 319.329101562 442.670898438 290.329101562 442.00390625 268.99609375 c 0
 441.336914062 239.662109375 435.336914062 216.329101562 424.00390625 198.99609375 c 1
 388.00390625 162.99609375 l 2
 372.00390625 146.99609375 349.670898438 132.99609375 321.00390625 120.99609375 c 0
 285.00390625 105.663085938 260.00390625 96.330078125 246.00390625 92.9970703125 c 0
 185.336914062 77.6640625 146.669921875 67.9970703125 130.002929688 63.9970703125 c 0
 81.3359375 52.6640625 45.0029296875 48.3310546875 21.0029296875 50.998046875 c 0
 0.3359375 49.6650390625 -18.3310546875 60.33203125 -34.998046875 82.9990234375 c 0
 -48.998046875 101.666015625 -57.998046875 122.333007812 -61.998046875 145 c 0
 -69.3310546875 188.333007812 -64.3310546875 215.333007812 -46.998046875 226 c 1
 -31.6650390625 227.333007812 -9.83203125 222.833007812 18.5009765625 212.5 c 0
 46.833984375 202.166992188 68.0009765625 197 82.0009765625 197 c 0
 104.000976562 197 147.333984375 207.333007812 212.000976562 228 c 0
 247.333984375 239.333007812 263.333984375 253.333007812 260.000976562 270 c 1
 231.333984375 310 203.333984375 347.666992188 176.000976562 383 c 1
 167.333984375 401 165.666992188 421.666992188 171 445 c 0
 175.666992188 467 190.333984375 487 215 505 c 0
 228.333007812 514.333007812 250.333007812 527.333007812 281 544 c 0
 714.333007812 774 1073.33300781 963 1358 1111 c 0
867.002929688 584.994140625 m 0
 860.3359375 598.994140625 847.670898438 605.994140625 829.00390625 605.994140625 c 0
 810.336914062 605.994140625 787.336914062 599.661132812 760.00390625 586.994140625 c 0
 722.00390625 569.658203125 703.00390625 552.325195312 703.00390625 534.994140625 c 0
 703.00390625 524.327148438 717.670898438 515.994140625 747.00390625 509.994140625 c 0
 768.336914062 505.327148438 788.669921875 503.994140625 808.002929688 505.994140625 c 0
 830.002929688 507.994140625 847.669921875 516.661132812 861.002929688 531.994140625 c 0
 874.3359375 547.327148438 876.3359375 564.994140625 867.002929688 584.994140625 c 0
EndSplineSet
Validated: 524321
EndChar

StartChar: uni0798
Encoding: 1944 1944 126
Width: 1153
Flags: W
LayerCount: 2
Fore
SplineSet
731 703 m 0
 767.666992188 719 800.001953125 726.666015625 828.001953125 725.999023438 c 0
 859.334960938 724.666015625 886.66796875 715.666015625 910.000976562 698.999023438 c 0
 958.000976562 664.33203125 991.000976562 618.665039062 1009.00097656 561.998046875 c 0
 1011.66796875 541.331054688 1013.00097656 529.998046875 1013.00097656 527.998046875 c 0
 1011.00097656 453.331054688 984.000976562 389.331054688 932.000976562 335.998046875 c 1
 871.333984375 288.665039062 793.333984375 266.665039062 698.000976562 269.998046875 c 0
 614.66796875 272.665039062 539.66796875 309.998046875 473.000976562 381.998046875 c 1
 427.000976562 365.331054688 382.000976562 345.6640625 338.000976562 322.998046875 c 0
 335.333984375 321.665039062 334.000976562 319.33203125 334.000976562 315.999023438 c 0
 334.000976562 315.33203125 348.333984375 294.83203125 377.000976562 254.499023438 c 0
 405.66796875 214.166015625 419.66796875 186.999023438 419.000976562 172.999023438 c 0
 417.000976562 120.33203125 383.66796875 75.33203125 319.000976562 37.9990234375 c 0
 275.66796875 13.33203125 205.000976562 -10.0009765625 107.000976562 -32.0009765625 c 0
 78.333984375 -38.66796875 39.6669921875 -44.3349609375 -9 -49.001953125 c 0
 -28.3330078125 -51.001953125 -47 -38.001953125 -65 -10.001953125 c 0
 -80.3330078125 13.3310546875 -89.3330078125 35.998046875 -92 57.998046875 c 0
 -98 108.665039062 -84.3330078125 133.998046875 -51 133.998046875 c 0
 -37 133.998046875 -14.6669921875 129.498046875 16 120.498046875 c 0
 46.6669921875 111.498046875 69.6669921875 106.998046875 85 106.998046875 c 0
 90.3330078125 106.998046875 103 107.998046875 123 109.998046875 c 0
 125.666992188 111.331054688 132.666992188 112.998046875 144 114.998046875 c 0
 156.666992188 119.665039062 171.666992188 125.33203125 189 131.999023438 c 0
 223 145.33203125 240 158.999023438 240 172.999023438 c 0
 240 177.666015625 222.666992188 200.333007812 188 241 c 0
 156 278.333984375 140 305.666992188 140 323 c 0
 140 335.666992188 144.666992188 349 154 363 c 1
 159.333007812 379 181.333007812 400 220 426 c 0
 368.666992188 526 539 618.333007812 731 703 c 0
725.001953125 523.999023438 m 1
 680.334960938 499.331054688 657.670898438 478.662109375 657.00390625 461.99609375 c 0
 658.336914062 455.329101562 671.336914062 447.99609375 696.00390625 439.99609375 c 0
 715.336914062 434.663085938 737.669921875 432.330078125 763.002929688 432.997070312 c 0
 788.3359375 433.6640625 810.168945312 439.831054688 828.501953125 451.498046875 c 0
 846.834960938 463.165039062 857.001953125 477.33203125 859.001953125 493.999023438 c 0
 859.668945312 531.999023438 842.001953125 550.33203125 806.001953125 548.999023438 c 0
 789.334960938 548.33203125 762.334960938 539.999023438 725.001953125 523.999023438 c 1
509.004882812 713.997070312 m 1
 505.671875 749.997070312 536.004882812 805.6640625 600.004882812 880.997070312 c 0
 664.004882812 956.330078125 714.004882812 996.330078125 750.004882812 1000.99707031 c 1
 790.004882812 987.6640625 811.337890625 979.997070312 814.004882812 977.997070312 c 0
 840.004882812 960.6640625 874.337890625 918.6640625 917.004882812 851.997070312 c 1
 938.337890625 794.662109375 949.004882812 755.329101562 949.004882812 733.997070312 c 0
 949.004882812 719.997070312 944.337890625 712.997070312 935.004882812 712.997070312 c 0
 924.337890625 712.997070312 901.337890625 726.330078125 866.004882812 752.997070312 c 2
 760.004882812 832.997070312 l 2
 758.004882812 834.330078125 755.671875 834.997070312 753.004882812 834.997070312 c 0
 749.671875 834.997070312 717.004882812 814.497070312 655.004882812 773.497070312 c 0
 593.004882812 732.497070312 550.004882812 711.997070312 526.004882812 711.997070312 c 0
 520.004882812 711.997070312 514.337890625 712.6640625 509.004882812 713.997070312 c 1
EndSplineSet
Validated: 524321
EndChar

StartChar: uni0799
Encoding: 1945 1945 127
Width: 1096
Flags: MW
HStem: 68.999 205 91.999 180
VStem: 682 204<161.333 177.999>
LayerCount: 2
Fore
SplineSet
877 641 m 0x60
 918.333007812 670.333007812 947.333007812 684.999023438 964 684.999023438 c 0
 984.670898438 684.999023438 1002.33789062 673.33203125 1017.00097656 649.999023438 c 0
 1026.33398438 635.33203125 1031.33398438 623.33203125 1032.00097656 613.999023438 c 0
 1034.66796875 580.666015625 1005.66796875 545.666015625 945.000976562 508.999023438 c 2
 594.000976562 294.999023438 l 2
 457.333984375 211.666015625 337.333984375 149.666015625 234.000976562 108.999023438 c 0
 205.333984375 97.666015625 187.666992188 91.9990234375 181 91.9990234375 c 0
 115 84.666015625 73.6669921875 121.666015625 57 202.999023438 c 0
 55 212.999023438 54 222.33203125 54 230.999023438 c 0
 54 263.666015625 71 279.999023438 105 279.999023438 c 0
 115.666992188 279.999023438 132 278.666015625 154 275.999023438 c 0
 176 273.33203125 192.333007812 271.999023438 203 271.999023438 c 0
 233 271.999023438 260 281.000976562 281 290 c 0
 310 302 400.654296875 345.353515625 572 448 c 0
 713.333007812 532.666992188 815 597 877 641 c 0x60
682 162.999023438 m 0
 682 192.999023438 692.166992188 218.999023438 712.5 240.999023438 c 0
 732.833007812 262.999023438 758 273.999023438 788 273.999023438 c 0
 853.333007812 273.999023438 886 240.999023438 886 174.999023438 c 0
 886 147.666015625 875.5 123.166015625 854.5 101.499023438 c 0
 833.5 79.83203125 809.333007812 68.9990234375 782 68.9990234375 c 0xa0
 715.333007812 68.9990234375 682 100.33203125 682 162.999023438 c 0
EndSplineSet
Validated: 524321
EndChar

StartChar: uni079A
Encoding: 1946 1946 128
Width: 1096
Flags: MW
HStem: 91.999 180 630.999 205
VStem: 530 204<723.333 739.999>
LayerCount: 2
Fore
SplineSet
877 641 m 0
 918.333007812 670.333007812 947.333007812 684.999023438 964 684.999023438 c 0
 984.670898438 684.999023438 1002.33789062 673.33203125 1017.00097656 649.999023438 c 0
 1026.33398438 635.33203125 1031.33398438 623.33203125 1032.00097656 613.999023438 c 0
 1034.66796875 580.666015625 1005.66796875 545.666015625 945.000976562 508.999023438 c 2
 594.000976562 294.999023438 l 2
 457.333984375 211.666015625 337.333984375 149.666015625 234.000976562 108.999023438 c 0
 205.333984375 97.666015625 187.666992188 91.9990234375 181 91.9990234375 c 0
 115 84.666015625 73.6669921875 121.666015625 57 202.999023438 c 0
 55 212.999023438 54 222.33203125 54 230.999023438 c 0
 54 263.666015625 71 279.999023438 105 279.999023438 c 0
 115.666992188 279.999023438 132 278.666015625 154 275.999023438 c 0
 176 273.33203125 192.333007812 271.999023438 203 271.999023438 c 0
 233 271.999023438 256 281 281 289.999023438 c 0
 314 305 400.666992188 345.333007812 572 448 c 0
 713.333007812 532.666992188 815 597 877 641 c 0
530 724.999023438 m 0
 530 754.999023438 540.166992188 780.999023438 560.5 802.999023438 c 0
 580.833007812 824.999023438 606 835.999023438 636 835.999023438 c 0
 701.333007812 835.999023438 734 802.999023438 734 736.999023438 c 0
 734 709.666015625 723.5 685.166015625 702.5 663.499023438 c 0
 681.5 641.83203125 657.333007812 630.999023438 630 630.999023438 c 0
 563.333007812 630.999023438 530 662.33203125 530 724.999023438 c 0
EndSplineSet
Validated: 524321
EndChar

StartChar: uni079B
Encoding: 1947 1947 129
Width: 1294
Flags: W
LayerCount: 2
Fore
SplineSet
612 337 m 1
 662.666992188 339 702.00390625 341.333984375 730.00390625 344.000976562 c 0
 792.670898438 350.000976562 824.00390625 370.000976562 824.00390625 404.000976562 c 0
 824.00390625 429.334960938 809.670898438 446.66796875 781.00390625 456 c 0
 746.336914062 467.333007812 703.00390625 479 651.00390625 491 c 1
 606.336914062 509 584.00390625 529.666992188 584.00390625 553 c 0
 584.00390625 617.666992188 615.670898438 647 679.00390625 641 c 0
 693.00390625 639.666992188 706.336914062 639 719.00390625 639 c 0
 762.336914062 639 830.336914062 660 923.00390625 702 c 0
 933.00390625 706.666992188 946.336914062 709 963.00390625 709 c 0
 983.00390625 709 1000.17089844 700.833007812 1014.50390625 684.5 c 0
 1028.83691406 668.166992188 1036.00390625 650 1036.00390625 630 c 0
 1036.00390625 607.333007812 1023.33691406 588.666015625 998.00390625 573.999023438 c 0
 976.00390625 563.999023438 954.00390625 553.666015625 932.00390625 542.999023438 c 1
 972.670898438 506.999023438 994.00390625 459.666015625 996.00390625 400.999023438 c 0
 997.336914062 359.666015625 980.336914062 322.666015625 945.00390625 289.999023438 c 0
 868.336914062 219.33203125 757.669921875 183.999023438 613.002929688 183.999023438 c 0
 598.3359375 183.999023438 565.3359375 184.999023438 514.002929688 186.999023438 c 1
 301.3359375 10.9990234375 153.3359375 -102.000976562 70.0029296875 -152.000976562 c 0
 -64.6640625 -232.666992188 -151.997070312 -271 -191.997070312 -267 c 0
 -214.6640625 -262.333007812 -236.997070312 -238.666015625 -258.997070312 -195.999023438 c 0
 -278.997070312 -156.666015625 -288.997070312 -123.666015625 -288.997070312 -96.9990234375 c 0
 -288.997070312 -74.9990234375 -282.6640625 -58.666015625 -269.997070312 -47.9990234375 c 0
 -257.330078125 -41.33203125 -243.330078125 -37.9990234375 -227.997070312 -37.9990234375 c 0
 -216.6640625 -37.9990234375 -199.331054688 -39.83203125 -175.998046875 -43.4990234375 c 0
 -152.665039062 -47.166015625 -135.33203125 -48.9990234375 -123.999023438 -48.9990234375 c 0
 -86.666015625 -48.9990234375 -50.3330078125 -37.666015625 -15 -14.9990234375 c 0
 145 88.333984375 259.333007812 166.666992188 328 220 c 1
 320 236 316 249.333007812 316 260 c 0
 316 292.666992188 324 319 340 339 c 0
 381.333007812 391 430.333007812 416 487 414 c 0
 557.666992188 411.333007812 599.333984375 385.666015625 612 337 c 1
654.00390625 818.000976562 m 0
 654.00390625 848.000976562 664.170898438 874.000976562 684.50390625 896.000976562 c 0
 704.836914062 918.000976562 730.00390625 929.000976562 760.00390625 929.000976562 c 0
 825.336914062 929.000976562 858.00390625 896.000976562 858.00390625 830.000976562 c 0
 858.00390625 802.66796875 847.50390625 778.16796875 826.50390625 756.500976562 c 0
 805.50390625 734.833984375 781.336914062 724.000976562 754.00390625 724.000976562 c 0
 687.336914062 724.000976562 654.00390625 755.333984375 654.00390625 818.000976562 c 0
EndSplineSet
Validated: 524321
EndChar

StartChar: uni079C
Encoding: 1948 1948 130
Width: 1513
Flags: W
LayerCount: 2
Fore
SplineSet
491 407 m 1
 471 420.333007812 459.333984375 431.333007812 456.000976562 440 c 0
 449.333984375 455.333007812 446.000976562 472.333007812 446.000976562 491 c 0
 446.000976562 535.666992188 465.000976562 564.666992188 503.000976562 578 c 0
 510.333984375 583.333007812 521.333984375 586 536.000976562 586 c 0
 561.333984375 586 610.333984375 573 683.000976562 547 c 1
 882.000976562 651 l 2
 985.333984375 705 1040.33398438 733.666992188 1047.00097656 737 c 0
 1055.66796875 743.666992188 1065.66796875 747 1077.00097656 747 c 0
 1116.34277344 747 1139.67578125 724.666992188 1147 680 c 0
 1148.33300781 672 1149 665 1149 659 c 0
 1149 643 1132.33300781 624.666992188 1099 604 c 1
 969.666992188 544.666992188 885.666992188 503.333984375 847 480.000976562 c 1
 906.333007812 466.000976562 951.666015625 445.66796875 982.999023438 419.000976562 c 1
 993.666015625 403.000976562 999.666015625 386.66796875 1000.99902344 370.000976562 c 0
 1003.66210938 338.000976562 996.329101562 313.000976562 979 295.000976562 c 0
 954.333007812 269.000976562 920.666015625 261.66796875 877.999023438 273.000976562 c 0
 833.999023438 284.333984375 804.666015625 292.000976562 789.999023438 296.000976562 c 0
 753.33203125 306.000976562 712.33203125 318.66796875 666.999023438 334.000976562 c 1
 523.666015625 236.000976562 412.666015625 163.66796875 333.999023438 117.000976562 c 0
 188.666015625 31.0009765625 84.9990234375 -15.33203125 22.9990234375 -21.9990234375 c 0
 2.9990234375 -23.9990234375 -18.333984375 -13.666015625 -41.0009765625 9.0009765625 c 0
 -72.333984375 40.333984375 -88.0009765625 83.6669921875 -88.0009765625 139 c 0
 -88.0009765625 174.333007812 -65.0009765625 192 -19.0009765625 192 c 0
 -9.0009765625 192 6.33203125 191 26.9990234375 189 c 0
 47.666015625 187 62.9990234375 186 72.9990234375 186 c 0
 94.33203125 186 112.999023438 188.666992188 128.999023438 194 c 0
 199.666015625 226.666992188 253.666015625 253.666992188 290.999023438 275 c 0
 359.666015625 315 426.333007812 359 491 407 c 1
623.000976562 810 m 0
 623.000976562 840 633.16796875 866 653.500976562 888 c 0
 673.833984375 910 699.000976562 921 729.000976562 921 c 0
 794.333984375 921 827.000976562 888 827.000976562 822 c 0
 827.000976562 794.666992188 816.500976562 770.166992188 795.500976562 748.5 c 0
 774.500976562 726.833007812 750.333984375 716 723.000976562 716 c 0
 656.333984375 716 623.000976562 747.333007812 623.000976562 810 c 0
EndSplineSet
Validated: 524321
EndChar

StartChar: uni079D
Encoding: 1949 1949 131
Width: 2195
Flags: W
LayerCount: 2
Fore
SplineSet
1712 641 m 0
 1725.33300781 650.333007812 1747.00097656 674.331054688 1777.00097656 712.998046875 c 1
 1807.00097656 765.66796875 1831.00097656 790.334960938 1849.00097656 786.999023438 c 0
 1871.00097656 782.999023438 1893.00097656 773.33203125 1915.00097656 757.999023438 c 0
 1941.00097656 740.663085938 1955.00097656 722.330078125 1957.00097656 702.999023438 c 0
 1959.66796875 677.6640625 1944.00097656 638.331054688 1910.00097656 584.999023438 c 0
 1894.00097656 560.33203125 1872.00097656 536.999023438 1844.00097656 514.999023438 c 0
 1763.33398438 451.666015625 1660.00097656 415.999023438 1534.00097656 407.999023438 c 0
 1520.66796875 403.33203125 1484.66796875 400.999023438 1426.00097656 400.999023438 c 2
 459.000976562 399.999023438 l 1
 410.333984375 352.666015625 341.333984375 293.333007812 252.000976562 222 c 0
 212.66796875 190.666992188 184.66796875 175 168.000976562 175 c 0
 150.000976562 175 128.833984375 187.5 104.500976562 212.5 c 0
 80.16796875 237.5 68.0009765625 259.333007812 68.0009765625 278 c 0
 68.0009765625 309.333984375 85.66796875 338.666992188 121.000976562 366 c 0
 130.333984375 372.666992188 159.000976562 394 207.000976562 430 c 1
 161.000976562 451 l 2
 150.333984375 457.666992188 139.666992188 471.666992188 129 493 c 1
 123 524 l 1
 129.666992188 575.333007812 152.666992188 612.333007812 192 635 c 0
 251.333007812 669 295.666015625 686 324.999023438 686 c 0
 334.33203125 686 343.33203125 685.333007812 351.999023438 684 c 0
 366.666015625 684 395.333007812 675.666992188 438 659 c 1
 466.666992188 641.665039062 488 610.33203125 502 565 c 1
 525.333007812 563 724 562 1098 562 c 0
 1266.66699219 562 1360.66699219 563 1380 565 c 0
 1490 576.333007812 1550 583 1560 585 c 0
 1640 601 1690.66699219 619.666992188 1712 641 c 0
760.000976562 611.998046875 m 1
 756.66796875 647.998046875 787.000976562 703.665039062 851.000976562 778.998046875 c 0
 915.000976562 854.331054688 965.000976562 894.331054688 1001.00097656 898.998046875 c 1
 1041.00097656 885.665039062 1062.33398438 877.998046875 1065.00097656 875.998046875 c 0
 1091.00097656 858.665039062 1125.33398438 816.665039062 1168.00097656 749.998046875 c 1
 1189.33398438 692.6640625 1200.00097656 653.331054688 1200.00097656 631.998046875 c 0
 1200.00097656 617.998046875 1195.33398438 610.998046875 1186.00097656 610.998046875 c 0
 1175.33398438 610.998046875 1152.33398438 624.331054688 1117.00097656 650.998046875 c 2
 1011.00097656 730.998046875 l 2
 1009.00097656 732.331054688 1006.66796875 732.998046875 1004.00097656 732.998046875 c 0
 1000.66796875 732.998046875 968.000976562 712.498046875 906.000976562 671.498046875 c 0
 844.000976562 630.498046875 801.000976562 609.998046875 777.000976562 609.998046875 c 0
 771.000976562 609.998046875 765.333984375 610.665039062 760.000976562 611.998046875 c 1
EndSplineSet
Validated: 524321
EndChar

StartChar: uni079E
Encoding: 1950 1950 132
Width: 2195
Flags: W
LayerCount: 2
Fore
SplineSet
1712 641 m 0
 1725.33300781 650.333007812 1747.00097656 674.331054688 1777.00097656 712.998046875 c 1
 1807.00097656 765.66796875 1831.00097656 790.334960938 1849.00097656 786.999023438 c 0
 1871.00097656 782.999023438 1893.00097656 773.33203125 1915.00097656 757.999023438 c 0
 1941.00097656 740.663085938 1955.00097656 722.330078125 1957.00097656 702.999023438 c 0
 1959.66796875 677.6640625 1944.00097656 638.331054688 1910.00097656 584.999023438 c 0
 1894.00097656 560.33203125 1872.00097656 536.999023438 1844.00097656 514.999023438 c 0
 1763.33398438 451.666015625 1660.00097656 415.999023438 1534.00097656 407.999023438 c 0
 1520.66796875 403.33203125 1484.66796875 400.999023438 1426.00097656 400.999023438 c 2
 459.000976562 399.999023438 l 1
 410.333984375 352.666015625 341.333984375 293.333007812 252.000976562 222 c 0
 212.66796875 190.666992188 184.66796875 175 168.000976562 175 c 0
 150.000976562 175 128.833984375 187.5 104.500976562 212.5 c 0
 80.16796875 237.5 68.0009765625 259.333007812 68.0009765625 278 c 0
 68.0009765625 309.333984375 85.66796875 338.666992188 121.000976562 366 c 0
 130.333984375 372.666992188 159.000976562 394 207.000976562 430 c 1
 161.000976562 451 l 2
 150.333984375 457.666992188 139.666992188 471.666992188 129 493 c 1
 123 524 l 1
 129.666992188 575.333007812 152.666992188 612.333007812 192 635 c 0
 251.333007812 669 295.666015625 686 324.999023438 686 c 0
 334.33203125 686 343.33203125 685.333007812 351.999023438 684 c 0
 366.666015625 684 395.333007812 675.666992188 438 659 c 1
 466.666992188 641.665039062 488 610.33203125 502 565 c 1
 525.333007812 563 724 562 1098 562 c 0
 1266.66699219 562 1360.66699219 563 1380 565 c 0
 1490 576.333007812 1550 583 1560 585 c 0
 1640 601 1690.66699219 619.666992188 1712 641 c 0
888.000976562 200.998046875 m 0
 888.000976562 230.998046875 898.16796875 256.998046875 918.500976562 278.998046875 c 0
 938.833984375 300.998046875 964.000976562 311.998046875 994.000976562 311.998046875 c 0
 1059.33398438 311.998046875 1092.00097656 278.998046875 1092.00097656 212.998046875 c 0
 1092.00097656 185.665039062 1081.50097656 161.165039062 1060.50097656 139.498046875 c 0
 1039.50097656 117.831054688 1015.33398438 106.998046875 988.000976562 106.998046875 c 0
 921.333984375 106.998046875 888.000976562 138.331054688 888.000976562 200.998046875 c 0
EndSplineSet
Validated: 524321
EndChar

StartChar: uni079F
Encoding: 1951 1951 133
Width: 2195
Flags: W
LayerCount: 2
Fore
SplineSet
1712 641 m 0
 1725.33300781 650.333007812 1747.00097656 674.331054688 1777.00097656 712.998046875 c 1
 1807.00097656 765.66796875 1831.00097656 790.334960938 1849.00097656 786.999023438 c 0
 1871.00097656 782.999023438 1893.00097656 773.33203125 1915.00097656 757.999023438 c 0
 1941.00097656 740.663085938 1955.00097656 722.330078125 1957.00097656 702.999023438 c 0
 1959.66796875 677.6640625 1944.00097656 638.331054688 1910.00097656 584.999023438 c 0
 1894.00097656 560.33203125 1872.00097656 536.999023438 1844.00097656 514.999023438 c 0
 1763.33398438 451.666015625 1660.00097656 415.999023438 1534.00097656 407.999023438 c 0
 1520.66796875 403.33203125 1484.66796875 400.999023438 1426.00097656 400.999023438 c 2
 459.000976562 399.999023438 l 1
 410.333984375 352.666015625 341.333984375 293.333007812 252.000976562 222 c 0
 212.66796875 190.666992188 184.66796875 175 168.000976562 175 c 0
 150.000976562 175 128.833984375 187.5 104.500976562 212.5 c 0
 80.16796875 237.5 68.0009765625 259.333007812 68.0009765625 278 c 0
 68.0009765625 309.333984375 85.66796875 338.666992188 121.000976562 366 c 0
 130.333984375 372.666992188 159.000976562 394 207.000976562 430 c 1
 161.000976562 451 l 2
 150.333984375 457.666992188 139.666992188 471.666992188 129 493 c 1
 123 524 l 1
 129.666992188 575.333007812 152.666992188 612.333007812 192 635 c 0
 251.333007812 669 295.666015625 686 324.999023438 686 c 0
 334.33203125 686 343.33203125 685.333007812 351.999023438 684 c 0
 366.666015625 684 395.333007812 675.666992188 438 659 c 1
 466.666992188 641.665039062 488 610.33203125 502 565 c 1
 525.333007812 563 724 562 1098 562 c 0
 1266.66699219 562 1360.66699219 563 1380 565 c 0
 1490 576.333007812 1550 583 1560 585 c 0
 1640 601 1690.66699219 619.666992188 1712 641 c 0
885.000976562 762.998046875 m 0
 885.000976562 792.998046875 895.16796875 818.998046875 915.500976562 840.998046875 c 0
 935.833984375 862.998046875 961.000976562 873.998046875 991.000976562 873.998046875 c 0
 1056.33398438 873.998046875 1089.00097656 840.998046875 1089.00097656 774.998046875 c 0
 1089.00097656 747.665039062 1078.50097656 723.165039062 1057.50097656 701.498046875 c 0
 1036.50097656 679.831054688 1012.33398438 668.998046875 985.000976562 668.998046875 c 0
 918.333984375 668.998046875 885.000976562 700.331054688 885.000976562 762.998046875 c 0
EndSplineSet
Validated: 524321
EndChar

StartChar: uni07A0
Encoding: 1952 1952 134
Width: 1153
Flags: W
LayerCount: 2
Fore
SplineSet
731 703 m 0
 767.666992188 719 800.001953125 726.666015625 828.001953125 725.999023438 c 0
 859.334960938 724.666015625 886.66796875 715.666015625 910.000976562 698.999023438 c 0
 958.000976562 664.33203125 991.000976562 618.665039062 1009.00097656 561.998046875 c 0
 1011.66796875 541.331054688 1013.00097656 529.998046875 1013.00097656 527.998046875 c 0
 1011.00097656 453.331054688 984.000976562 389.331054688 932.000976562 335.998046875 c 1
 871.333984375 288.665039062 793.333984375 266.665039062 698.000976562 269.998046875 c 0
 614.66796875 272.665039062 539.66796875 309.998046875 473.000976562 381.998046875 c 1
 427.000976562 365.331054688 382.000976562 345.6640625 338.000976562 322.998046875 c 0
 335.333984375 321.665039062 334.000976562 319.33203125 334.000976562 315.999023438 c 0
 334.000976562 315.33203125 348.333984375 294.83203125 377.000976562 254.499023438 c 0
 405.66796875 214.166015625 419.66796875 186.999023438 419.000976562 172.999023438 c 0
 417.000976562 120.33203125 383.66796875 75.33203125 319.000976562 37.9990234375 c 0
 275.66796875 13.33203125 205.000976562 -10.0009765625 107.000976562 -32.0009765625 c 0
 78.333984375 -38.66796875 39.6669921875 -44.3349609375 -9 -49.001953125 c 0
 -28.3330078125 -51.001953125 -47 -38.001953125 -65 -10.001953125 c 0
 -80.3330078125 13.3310546875 -89.3330078125 35.998046875 -92 57.998046875 c 0
 -98 108.665039062 -84.3330078125 133.998046875 -51 133.998046875 c 0
 -37 133.998046875 -14.6669921875 129.498046875 16 120.498046875 c 0
 46.6669921875 111.498046875 69.6669921875 106.998046875 85 106.998046875 c 0
 90.3330078125 106.998046875 103 107.998046875 123 109.998046875 c 0
 125.666992188 111.331054688 132.666992188 112.998046875 144 114.998046875 c 0
 156.666992188 119.665039062 171.666992188 125.33203125 189 131.999023438 c 0
 223 145.33203125 240 158.999023438 240 172.999023438 c 0
 240 177.666015625 222.666992188 200.333007812 188 241 c 0
 156 278.333984375 140 305.666992188 140 323 c 0
 140 335.666992188 144.666992188 349 154 363 c 1
 159.333007812 379 181.333007812 400 220 426 c 0
 368.666992188 526 539 618.333007812 731 703 c 0
725.001953125 523.999023438 m 1
 680.334960938 499.331054688 657.670898438 478.662109375 657.00390625 461.99609375 c 0
 658.336914062 455.329101562 671.336914062 447.99609375 696.00390625 439.99609375 c 0
 715.336914062 434.663085938 737.669921875 432.330078125 763.002929688 432.997070312 c 0
 788.3359375 433.6640625 810.168945312 439.831054688 828.501953125 451.498046875 c 0
 846.834960938 463.165039062 857.001953125 477.33203125 859.001953125 493.999023438 c 0
 859.668945312 531.999023438 842.001953125 550.33203125 806.001953125 548.999023438 c 0
 789.334960938 548.33203125 762.334960938 539.999023438 725.001953125 523.999023438 c 1
666.004882812 72.9970703125 m 0
 666.004882812 102.997070312 676.171875 128.997070312 696.504882812 150.997070312 c 0
 716.837890625 172.997070312 742.004882812 183.997070312 772.004882812 183.997070312 c 0
 837.337890625 183.997070312 870.004882812 150.997070312 870.004882812 84.9970703125 c 0
 870.004882812 57.6640625 859.504882812 33.1640625 838.504882812 11.4970703125 c 0
 817.504882812 -10.169921875 793.337890625 -21.0029296875 766.004882812 -21.0029296875 c 0
 699.337890625 -21.0029296875 666.004882812 10.330078125 666.004882812 72.9970703125 c 0
EndSplineSet
Validated: 524321
EndChar

StartChar: uni07A1
Encoding: 1953 1953 135
Width: 1153
Flags: W
LayerCount: 2
Fore
SplineSet
731 703 m 0
 767.666992188 719 800.001953125 726.666015625 828.001953125 725.999023438 c 0
 859.334960938 724.666015625 886.66796875 715.666015625 910.000976562 698.999023438 c 0
 958.000976562 664.33203125 991.000976562 618.665039062 1009.00097656 561.998046875 c 0
 1011.66796875 541.331054688 1013.00097656 529.998046875 1013.00097656 527.998046875 c 0
 1011.00097656 453.331054688 984.000976562 389.331054688 932.000976562 335.998046875 c 1
 871.333984375 288.665039062 793.333984375 266.665039062 698.000976562 269.998046875 c 0
 614.66796875 272.665039062 539.66796875 309.998046875 473.000976562 381.998046875 c 1
 427.000976562 365.331054688 382.000976562 345.6640625 338.000976562 322.998046875 c 0
 335.333984375 321.665039062 334.000976562 319.33203125 334.000976562 315.999023438 c 0
 334.000976562 315.33203125 348.333984375 294.83203125 377.000976562 254.499023438 c 0
 405.66796875 214.166015625 419.66796875 186.999023438 419.000976562 172.999023438 c 0
 417.000976562 120.33203125 383.66796875 75.33203125 319.000976562 37.9990234375 c 0
 275.66796875 13.33203125 205.000976562 -10.0009765625 107.000976562 -32.0009765625 c 0
 78.333984375 -38.66796875 39.6669921875 -44.3349609375 -9 -49.001953125 c 0
 -28.3330078125 -51.001953125 -47 -38.001953125 -65 -10.001953125 c 0
 -80.3330078125 13.3310546875 -89.3330078125 35.998046875 -92 57.998046875 c 0
 -98 108.665039062 -84.3330078125 133.998046875 -51 133.998046875 c 0
 -37 133.998046875 -14.6669921875 129.498046875 16 120.498046875 c 0
 46.6669921875 111.498046875 69.6669921875 106.998046875 85 106.998046875 c 0
 90.3330078125 106.998046875 103 107.998046875 123 109.998046875 c 0
 125.666992188 111.331054688 132.666992188 112.998046875 144 114.998046875 c 0
 156.666992188 119.665039062 171.666992188 125.33203125 189 131.999023438 c 0
 223 145.33203125 240 158.999023438 240 172.999023438 c 0
 240 177.666015625 222.666992188 200.333007812 188 241 c 0
 156 278.333984375 140 305.666992188 140 323 c 0
 140 335.666992188 144.666992188 349 154 363 c 1
 159.333007812 379 181.333007812 400 220 426 c 0
 368.666992188 526 539 618.333007812 731 703 c 0
725.001953125 523.999023438 m 1
 680.334960938 499.331054688 657.670898438 478.662109375 657.00390625 461.99609375 c 0
 658.336914062 455.329101562 671.336914062 447.99609375 696.00390625 439.99609375 c 0
 715.336914062 434.663085938 737.669921875 432.330078125 763.002929688 432.997070312 c 0
 788.3359375 433.6640625 810.168945312 439.831054688 828.501953125 451.498046875 c 0
 846.834960938 463.165039062 857.001953125 477.33203125 859.001953125 493.999023438 c 0
 859.668945312 531.999023438 842.001953125 550.33203125 806.001953125 548.999023438 c 0
 789.334960938 548.33203125 762.334960938 539.999023438 725.001953125 523.999023438 c 1
501.004882812 774.997070312 m 0
 501.004882812 804.997070312 511.171875 830.997070312 531.504882812 852.997070312 c 0
 551.837890625 874.997070312 577.004882812 885.997070312 607.004882812 885.997070312 c 0
 672.337890625 885.997070312 705.004882812 852.997070312 705.004882812 786.997070312 c 0
 705.004882812 759.6640625 694.504882812 735.1640625 673.504882812 713.497070312 c 0
 652.504882812 691.830078125 628.337890625 680.997070312 601.004882812 680.997070312 c 0
 534.337890625 680.997070312 501.004882812 712.330078125 501.004882812 774.997070312 c 0
EndSplineSet
Validated: 524321
EndChar

StartChar: uni07A2
Encoding: 1954 1954 136
Width: 1130
Flags: W
LayerCount: 2
Fore
SplineSet
723 246 m 0
 749.666992188 270 779 314.66796875 811 380.000976562 c 0
 841 440.66796875 856 482.000976562 856 504.000976562 c 0
 856 510.000976562 854.333007812 513.000976562 851 513.000976562 c 0
 849.666992188 513.000976562 848 512.333984375 846 511.000976562 c 0
 804 481.66796875 756 447.66796875 702 409.000976562 c 0
 594 331.000976562 521 281.333984375 483 260.000976562 c 2
 302 157.000976562 l 2
 258.666992188 132.333984375 218 113.666992188 180 101 c 0
 174 99 167.666992188 98 161 98 c 0
 139.666992188 98 117.666992188 109.666992188 95 133 c 0
 59 170.333007812 41 212.333007812 41 259 c 0
 41 276.333007812 45.3330078125 291.333007812 54 304 c 0
 67.3330078125 319.333007812 91 327 125 327 c 0
 135 327 149.5 326.5 168.5 325.5 c 0
 187.5 324.5 202 324 212 324 c 0
 232.666992188 324 250.666992188 326 266 330 c 0
 272.666992188 333.333007812 277.333984375 335.333007812 280.000976562 336 c 2
 324.000976562 360 l 2
 396.66796875 400 445.66796875 428.333007812 471.000976562 445 c 2
 746.000976562 630 l 2
 818.66796875 678.66796875 863.000976562 705.334960938 879.000976562 710 c 0
 902.333984375 716.65625 928.666992188 711.323242188 958 694.000976562 c 0
 1001.33300781 668.66796875 1023 627.000976562 1023 569.000976562 c 0
 1023 517.000976562 1008 453.000976562 978 377.000976562 c 0
 934 265.66796875 888.666992188 184.66796875 842 134.000976562 c 0
 833.333007812 124.66796875 821 120.000976562 805 120.000976562 c 0
 784.333007812 120.000976562 763 128.000976562 741 144.000976562 c 0
 716.333007812 161.333984375 704 179.666992188 704 199 c 0
 704 219 710.333007812 234.666992188 723 246 c 0
486 17.0009765625 m 0
 486 47.0009765625 496.166992188 73.0009765625 516.5 95.0009765625 c 0
 536.833007812 117.000976562 562 128.000976562 592 128.000976562 c 0
 657.333007812 128.000976562 690 95.0009765625 690 29.0009765625 c 0
 690 1.66796875 679.5 -22.83203125 658.5 -44.4990234375 c 0
 637.5 -66.166015625 613.333007812 -76.9990234375 586 -76.9990234375 c 0
 519.333007812 -76.9990234375 486 -45.666015625 486 17.0009765625 c 0
EndSplineSet
Validated: 524321
EndChar

StartChar: uni07A3
Encoding: 1955 1955 137
Width: 1130
Flags: W
LayerCount: 2
Fore
SplineSet
723 246 m 0
 749.666992188 270 779 314.66796875 811 380.000976562 c 0
 841 440.66796875 856 482.000976562 856 504.000976562 c 0
 856 510.000976562 854.333007812 513.000976562 851 513.000976562 c 0
 849.666992188 513.000976562 848 512.333984375 846 511.000976562 c 0
 804 481.66796875 756 447.66796875 702 409.000976562 c 0
 594 331.000976562 521 281.333984375 483 260.000976562 c 2
 302 157.000976562 l 2
 258.666992188 132.333984375 218 113.666992188 180 101 c 0
 174 99 167.666992188 98 161 98 c 0
 139.666992188 98 117.666992188 109.666992188 95 133 c 0
 59 170.333007812 41 212.333007812 41 259 c 0
 41 276.333007812 45.3330078125 291.333007812 54 304 c 0
 67.3330078125 319.333007812 91 327 125 327 c 0
 135 327 149.5 326.5 168.5 325.5 c 0
 187.5 324.5 202 324 212 324 c 0
 232.666992188 324 250.666992188 326 266 330 c 0
 272.666992188 333.333007812 277.333984375 335.333007812 280.000976562 336 c 2
 324.000976562 360 l 2
 396.66796875 400 445.66796875 428.333007812 471.000976562 445 c 2
 746.000976562 630 l 2
 818.66796875 678.66796875 863.000976562 705.334960938 879.000976562 710 c 0
 902.333984375 716.65625 928.666992188 711.323242188 958 694.000976562 c 0
 1001.33300781 668.66796875 1023 627.000976562 1023 569.000976562 c 0
 1023 517.000976562 1008 453.000976562 978 377.000976562 c 0
 934 265.66796875 888.666992188 184.66796875 842 134.000976562 c 0
 833.333007812 124.66796875 821 120.000976562 805 120.000976562 c 0
 784.333007812 120.000976562 763 128.000976562 741 144.000976562 c 0
 716.333007812 161.333984375 704 179.666992188 704 199 c 0
 704 219 710.333007812 234.666992188 723 246 c 0
601 834.000976562 m 0
 601 864.000976562 611.166992188 890.000976562 631.5 912.000976562 c 0
 651.833007812 934.000976562 677 945.000976562 707 945.000976562 c 0
 772.333007812 945.000976562 805 912.000976562 805 846.000976562 c 0
 805 818.66796875 794.5 794.16796875 773.5 772.500976562 c 0
 752.5 750.833984375 728.333007812 740.000976562 701 740.000976562 c 0
 634.333007812 740.000976562 601 771.333984375 601 834.000976562 c 0
EndSplineSet
Validated: 524321
EndChar

StartChar: uni07A4
Encoding: 1956 1956 138
Width: 1171
Flags: W
LayerCount: 2
Fore
SplineSet
751 664 m 0
 811 686 852.666015625 701.6640625 875.999023438 710.997070312 c 0
 887.999023438 713.6640625 896.999023438 714.6640625 902.999023438 713.997070312 c 0
 906.999023438 715.330078125 911.33203125 715.997070312 915.999023438 715.997070312 c 0
 933.999023438 715.997070312 948.999023438 706.330078125 960.999023438 686.997070312 c 0
 971.666015625 670.330078125 976.999023438 652.663085938 976.999023438 633.99609375 c 0
 976.999023438 609.99609375 966.666015625 592.663085938 945.999023438 581.99609375 c 2
 873.999023438 553.99609375 l 2
 849.33203125 544.663085938 812.33203125 530.99609375 762.999023438 512.99609375 c 0
 736.999023438 503.663085938 723.999023438 496.330078125 723.999023438 490.997070312 c 0
 723.999023438 489.6640625 724.33203125 488.331054688 724.999023438 486.998046875 c 0
 723.666015625 484.998046875 722.666015625 482.998046875 721.999023438 480.998046875 c 0
 721.999023438 475.665039062 737.999023438 458.998046875 769.999023438 430.998046875 c 0
 794.668945312 409.665039062 809.3359375 380.33203125 814 342.999023438 c 0
 816.666992188 322.999023438 816 306.33203125 812 292.999023438 c 0
 798.666992188 248.33203125 769 209.665039062 723 176.998046875 c 0
 682.333007812 147.665039062 637 128.33203125 587 118.999023438 c 0
 497.666992188 101.666015625 422.666992188 91.9990234375 362 89.9990234375 c 0
 262 85.9990234375 205.333007812 88.9990234375 192 98.9990234375 c 1
 162 111.666015625 147 149.666015625 147 212.999023438 c 0
 147 245.666015625 156.666992188 263.333007812 176 266 c 0
 183.333007812 267.333007812 206 261.5 244 248.5 c 0
 282 235.5 309 229 325 229 c 0
 359 229 388.666992188 230.666992188 414 234 c 0
 479.333984375 242.666992188 519.333984375 250 534 256 c 0
 598 270.666992188 630 295.666992188 630 331 c 1
 622 344.333984375 595.333007812 364.666992188 550 392 c 0
 513.333007812 414 495 442.333007812 495 477 c 0
 495 539 580.333007812 601.333007812 751 664 c 0
482.999023438 849.997070312 m 0
 482.999023438 879.997070312 493.166015625 905.997070312 513.499023438 927.997070312 c 0
 533.83203125 949.997070312 558.999023438 960.997070312 588.999023438 960.997070312 c 0
 654.999023438 960.997070312 687.999023438 927.997070312 687.999023438 861.997070312 c 0
 687.999023438 834.6640625 677.33203125 810.1640625 655.999023438 788.497070312 c 0
 634.6640625 766.830078125 610.331054688 755.997070312 582.999023438 755.997070312 c 0
 516.33203125 755.997070312 482.999023438 787.330078125 482.999023438 849.997070312 c 0
809.999023438 849.997070312 m 0
 809.999023438 878.665039062 820.666015625 904.33203125 841.999023438 926.997070312 c 0
 863.33203125 949.6640625 888.33203125 960.997070312 916.999023438 960.997070312 c 0
 982.33203125 960.997070312 1014.99902344 927.997070312 1014.99902344 861.997070312 c 0
 1014.99902344 834.6640625 1004.49902344 810.1640625 983.499023438 788.497070312 c 0
 962.499023438 766.830078125 938.33203125 755.997070312 910.999023438 755.997070312 c 0
 843.666015625 755.997070312 809.999023438 787.330078125 809.999023438 849.997070312 c 0
EndSplineSet
Validated: 524321
EndChar

StartChar: uni07A5
Encoding: 1957 1957 139
Width: 903
Flags: W
LayerCount: 2
Fore
SplineSet
811 546 m 0
 811 570.666992188 793.666992188 582.999023438 759 582.999023438 c 1
 717.666992188 577.657226562 689 570.32421875 673 561 c 0
 621 531 597 502.666992188 601 476 c 0
 601 462.666992188 609.666992188 450.666992188 627 440 c 1
 647 433.333007812 675 435.333007812 711 446 c 0
 777.666992188 466 811 499.333007812 811 546 c 0
545 313.999023438 m 1
 452.333007812 340.666015625 408.33203125 390.333984375 412.999023438 463.000976562 c 0
 414.999023438 497.66796875 436.33203125 541.000976562 476.999023438 593.000976562 c 0
 546.999023438 683.000976562 651.33203125 728.000976562 789.999023438 728.000976562 c 0
 822.666992188 728.000976562 860.333984375 720.333984375 902.999023438 705.000976562 c 0
 987.000976562 675.000976562 1025.66796875 630.333984375 1018.99902344 571.000976562 c 0
 1012.99902344 519.666992188 968.999023438 458 886.999023438 386 c 0
 824.999023438 332 760.33203125 283 692.999023438 239 c 0
 415.666015625 58.3330078125 227.666015625 -41.6669921875 128.999023438 -61 c 0
 125.666015625 -61.6669921875 121.333007812 -62 116 -62 c 0
 90.6669921875 -62 69 -44.3330078125 51 -9 c 0
 35 14.3330078125 25.6669921875 41 23 71 c 0
 19.6669921875 110.333007812 35.6669921875 130 71 130 c 0
 82.3330078125 130 96.3330078125 128.333007812 113 125 c 0
 161.666992188 115 207.666992188 121.666992188 251 145 c 0
 361 204.333007812 459 260.666015625 545 313.999023438 c 1
657.999023438 856 m 0
 657.999023438 886 668.166015625 912 688.499023438 934 c 0
 708.83203125 956 733.999023438 967 763.999023438 967 c 0
 829.33203125 967 861.999023438 934 861.999023438 868 c 0
 861.999023438 840.666992188 851.499023438 816.166992188 830.499023438 794.5 c 0
 809.499023438 772.833007812 785.33203125 762 757.999023438 762 c 0
 691.33203125 762 657.999023438 793.333007812 657.999023438 856 c 0
EndSplineSet
Validated: 524321
EndChar

StartChar: uni07A6nsp
Encoding: 1958 1958 140
Width: 0
Flags: W
LayerCount: 2
Fore
SplineSet
913 1458 m 0
 925 1465.33300781 936.665039062 1468.99804688 947.998046875 1468.99804688 c 0
 967.998046875 1468.99804688 985.331054688 1459.49804688 999.998046875 1440.49804688 c 0
 1014.66503906 1421.49804688 1021.99804688 1401.66503906 1021.99804688 1380.99804688 c 0
 1021.99804688 1360.32128906 1011.99804688 1343.65429688 991.998046875 1330.99804688 c 0
 912.665039062 1280.99804688 823.665039062 1228.99804688 724.998046875 1174.99804688 c 2
 550.998046875 1079.99804688 l 2
 495.665039062 1049.99804688 458.33203125 1032.66503906 438.999023438 1027.99804688 c 0
 427.666015625 1022.66503906 416.333007812 1019.99804688 405 1019.99804688 c 0
 385.666992188 1020.01367188 373 1026.68066406 367 1039.99804688 c 0
 351 1076.66503906 343 1098.33203125 343 1104.99902344 c 0
 343 1143.66601562 365.666992188 1168.33300781 411 1179 c 1
 579 1261 746.333007812 1354 913 1458 c 0
EndSplineSet
Validated: 524289
EndChar

StartChar: uni07A7nsp
Encoding: 1959 1959 141
Width: 0
Flags: W
LayerCount: 2
Fore
SplineSet
1002 1655 m 0
 1014.0078125 1662.33300781 1025.67382812 1665.99804688 1036.99902344 1665.99804688 c 0
 1056.99902344 1665.99804688 1074.33203125 1656.49804688 1088.99902344 1637.49804688 c 0
 1103.66601562 1618.49804688 1110.99902344 1598.66503906 1110.99902344 1577.99804688 c 0
 1110.99902344 1565.33105469 1100.66601562 1547.33105469 1079.99902344 1523.99804688 c 0
 1074.66601562 1513.99804688 1012.99902344 1477.33105469 894.999023438 1413.99804688 c 2
 639.999023438 1276.99804688 l 2
 583.33203125 1246.33105469 545.999023438 1228.99804688 527.999023438 1224.99804688 c 0
 516.666015625 1219.66503906 505.333007812 1216.99804688 494 1216.99804688 c 0
 474.666992188 1216.99804688 462 1223.66503906 456 1236.99804688 c 0
 440 1273.66503906 432 1295.33203125 432 1301.99902344 c 0
 432 1340.66601562 454.666992188 1365.33300781 500 1376 c 1
 668 1458 835.333007812 1551 1002 1655 c 0
1120.99902344 1443.99804688 m 0
 1132.99902344 1451.33105469 1144.66503906 1454.99609375 1155.99804688 1454.99609375 c 0
 1175.99804688 1454.99609375 1193.33105469 1445.49609375 1207.99804688 1426.49609375 c 0
 1222.66503906 1407.49609375 1229.99804688 1387.66308594 1229.99804688 1366.99609375 c 0
 1229.99804688 1356.31933594 1220.99804688 1340.65234375 1202.99804688 1319.99609375 c 0
 1198.33105469 1311.99609375 1172.99804688 1294.66308594 1126.99804688 1267.99609375 c 2
 758.998046875 1065.99609375 l 2
 703.663085938 1035.99609375 666.330078125 1018.66308594 646.998046875 1013.99609375 c 0
 635.66015625 1008.66308594 624.327148438 1005.99609375 612.999023438 1005.99609375 c 0
 593.666015625 1005.99609375 580.999023438 1012.66308594 574.999023438 1025.99609375 c 0
 558.999023438 1062.66308594 550.999023438 1084.33007812 550.999023438 1090.99707031 c 0
 550.999023438 1129.6640625 573.666015625 1154.33105469 618.999023438 1164.99804688 c 1
 786.999023438 1246.99804688 954.33203125 1339.99804688 1120.99902344 1443.99804688 c 0
EndSplineSet
Validated: 524289
EndChar

StartChar: uni07A8nsp
Encoding: 1960 1960 142
Width: 0
Flags: W
LayerCount: 2
Fore
SplineSet
586 -342 m 0
 598 -334.666992188 609.666015625 -331 620.999023438 -331 c 0
 640.999023438 -331 658.33203125 -340.5 672.999023438 -359.5 c 0
 687.666015625 -378.5 694.999023438 -398.333007812 694.999023438 -419 c 0
 694.999023438 -429.666992188 684.666015625 -446.666992188 663.999023438 -470 c 1
 641.999023438 -488 588.666015625 -520.333007812 503.999023438 -567 c 2
 223.999023438 -720 l 2
 169.33203125 -750 131.999023438 -767.333007812 111.999023438 -772 c 0
 100.666015625 -777.333007812 89.3330078125 -780 78 -780 c 0
 58.6669921875 -780 46 -773.333007812 40 -760 c 0
 24 -723.3359375 16 -701.668945312 16 -695 c 0
 16 -656.334960938 38.6669921875 -631.66796875 84 -621 c 1
 252 -539 419.333007812 -446 586 -342 c 0
EndSplineSet
Validated: 524289
EndChar

StartChar: uni07A9nsp
Encoding: 1961 1961 143
Width: 0
Flags: W
LayerCount: 2
Fore
SplineSet
572 -287 m 0
 584 -279.666992188 595.666015625 -276 606.999023438 -276 c 0
 626.999023438 -276 644.33203125 -285.5 658.999023438 -304.5 c 0
 673.666015625 -323.5 680.999023438 -343.333007812 680.999023438 -364 c 0
 680.999023438 -374.666992188 670.666015625 -391.666992188 649.999023438 -415 c 1
 627.999023438 -433 574.666015625 -465.333007812 489.999023438 -512 c 2
 209.999023438 -665 l 2
 155.33203125 -695 117.999023438 -712.333007812 97.9990234375 -717 c 0
 86.666015625 -722.333007812 75.3330078125 -725 64 -725 c 0
 44.6669921875 -725 32 -718.333007812 26 -705 c 0
 10 -668.334960938 2 -646.66796875 2 -640 c 0
 2 -601.334960938 24.6669921875 -576.66796875 70 -566 c 1
 238 -484 405.333007812 -391 572 -287 c 0
687.999023438 -468 m 0
 699.999023438 -460.666992188 711.666015625 -457.000976562 722.999023438 -457.000976562 c 0
 742.999023438 -457.000976562 760.33203125 -466.500976562 774.999023438 -485.500976562 c 0
 789.666015625 -504.500976562 796.999023438 -524.333984375 796.999023438 -545.000976562 c 0
 796.999023438 -555.66796875 786.666015625 -572.66796875 765.999023438 -596.000976562 c 1
 743.999023438 -614.000976562 690.666015625 -646.333984375 605.999023438 -693.000976562 c 2
 325.999023438 -846.000976562 l 2
 271.33203125 -876.000976562 233.999023438 -893.333984375 213.999023438 -898.000976562 c 0
 202.665039062 -903.333984375 191.33203125 -906.000976562 179.999023438 -906.000976562 c 0
 160.666015625 -906.000976562 147.999023438 -899.333984375 141.999023438 -886.000976562 c 0
 125.999023438 -849.337890625 117.999023438 -827.670898438 117.999023438 -821.000976562 c 0
 117.999023438 -782.333984375 140.666015625 -757.666992188 185.999023438 -747 c 1
 353.999023438 -665 521.33203125 -572 687.999023438 -468 c 0
EndSplineSet
Validated: 524289
EndChar

StartChar: uni07AAnsp
Encoding: 1962 1962 144
Width: 0
Flags: W
LayerCount: 2
Fore
SplineSet
906 1351 m 0
 906 1365.66699219 869.333984375 1376 796.000976562 1382 c 0
 728.000976562 1387.37597656 690.000976562 1392.70898438 682.000976562 1398 c 0
 651.333984375 1417.33300781 636.000976562 1441.33300781 636.000976562 1470 c 0
 636.000976562 1509.33300781 657.000976562 1538 699.000976562 1556 c 1
 749.66796875 1565.33300781 791.000976562 1568.33300781 823.000976562 1565 c 0
 862.333984375 1561 908.000976562 1550 960.000976562 1532 c 0
 996.669921875 1519.32128906 1029.66992188 1496.65429688 1059.00097656 1463.99902344 c 0
 1081.66796875 1438.66601562 1093.00097656 1408.66601562 1093.00097656 1373.99902344 c 0
 1093.00097656 1324.66601562 1067.66796875 1272.33300781 1017.00097656 1217 c 0
 977.000976562 1173 930.333984375 1136 877.000976562 1106 c 0
 793.000976562 1058 721.333984375 1031.33300781 662.000976562 1026 c 0
 634.000976562 1023.33300781 610.333984375 1030 591.000976562 1046 c 0
 571.66796875 1062 562.000976562 1084 562.000976562 1112 c 0
 562.000976562 1155.33300781 583.333984375 1180 626.000976562 1186 c 0
 663.333984375 1191.33300781 698.333984375 1202 731.000976562 1218 c 0
 754.333984375 1229.34277344 785.666992188 1247.67578125 825 1273 c 0
 879 1307.66699219 906 1333.66699219 906 1351 c 0
EndSplineSet
Validated: 524321
EndChar

StartChar: uni07ABnsp
Encoding: 1963 1963 145
Width: 0
Flags: W
LayerCount: 2
Fore
SplineSet
645 1359 m 0
 645 1373.66699219 608.333984375 1384 535.000976562 1390 c 0
 467.000976562 1395.37597656 429.000976562 1400.70898438 421.000976562 1406 c 0
 390.333984375 1425.33300781 375.000976562 1449.33300781 375.000976562 1478 c 0
 375.000976562 1517.33300781 396.000976562 1546 438.000976562 1564 c 1
 488.66796875 1573.33300781 530.000976562 1576.33300781 562.000976562 1573 c 0
 601.333984375 1569 647.000976562 1558 699.000976562 1540 c 0
 735.66796875 1527.32128906 768.66796875 1504.65429688 798.000976562 1471.99902344 c 0
 820.66796875 1446.66601562 832.000976562 1416.66601562 832.000976562 1381.99902344 c 0
 832.000976562 1332.66601562 806.66796875 1280.33300781 756.000976562 1225 c 0
 716.000976562 1181 669.333984375 1144 616.000976562 1114 c 0
 532.000976562 1066 460.333984375 1039.33300781 401.000976562 1034 c 0
 373.000976562 1031.33300781 349.333984375 1038 330.000976562 1054 c 0
 310.66796875 1070 301.000976562 1092 301.000976562 1120 c 0
 301.000976562 1163.33300781 322.333984375 1188 365.000976562 1194 c 0
 402.333984375 1199.33300781 437.333984375 1210 470.000976562 1226 c 0
 493.333984375 1237.34277344 524.666992188 1255.67578125 564 1281 c 0
 618 1315.66699219 645 1341.66699219 645 1359 c 0
1146.00097656 1356 m 0
 1146.00097656 1370.66699219 1109.33496094 1381 1036.00195312 1387 c 0
 968.001953125 1392.37597656 930.001953125 1397.70898438 922.001953125 1403 c 0
 891.334960938 1422.33300781 876.001953125 1446.33300781 876.001953125 1475 c 0
 876.001953125 1514.33300781 897.001953125 1543 939.001953125 1561 c 1
 989.668945312 1570.33300781 1031.00195312 1573.33300781 1063.00195312 1570 c 0
 1102.33496094 1566 1148.00195312 1555 1200.00195312 1537 c 0
 1236.66894531 1524.32128906 1269.66894531 1501.65429688 1299.00195312 1468.99902344 c 0
 1321.66894531 1443.66601562 1333.00195312 1413.66601562 1333.00195312 1378.99902344 c 0
 1333.00195312 1329.66601562 1307.66894531 1277.33300781 1257.00195312 1222 c 0
 1217.00195312 1178 1170.33496094 1141 1117.00195312 1111 c 0
 1033.00195312 1063 961.334960938 1036.33300781 902.001953125 1031 c 0
 874.001953125 1028.33300781 850.334960938 1035 831.001953125 1051 c 0
 811.668945312 1067 802.001953125 1089 802.001953125 1117 c 0
 802.001953125 1160.33300781 823.334960938 1185 866.001953125 1191 c 0
 903.334960938 1196.33300781 938.334960938 1207 971.001953125 1223 c 0
 994.334960938 1234.34277344 1025.66796875 1252.67578125 1065.00097656 1278 c 0
 1119.00097656 1312.66699219 1146.00097656 1338.66699219 1146.00097656 1356 c 0
EndSplineSet
Validated: 524321
EndChar

StartChar: uni07ACnsp
Encoding: 1964 1964 146
Width: 0
Flags: W
LayerCount: 2
Fore
SplineSet
904 1393 m 1
 852 1358.33203125 818 1333.66308594 802 1318.99804688 c 0
 752 1272.99804688 727 1236.66503906 727 1209.99804688 c 0
 727 1206.66503906 728.333007812 1203.99804688 731 1201.99804688 c 0
 727.671875 1195.99804688 739.338867188 1192.33105469 766 1190.99804688 c 0
 822.66796875 1187.66503906 862.334960938 1191.33203125 885 1201.99902344 c 0
 899 1204.66601562 911.666992188 1205.99902344 923 1205.99902344 c 0
 991.666992188 1205.99902344 1026 1178.99902344 1026 1124.99902344 c 0
 1026 1075.66601562 1004 1048.33300781 960 1043 c 0
 931.333007812 1035.66699219 889 1032 833 1032 c 0
 642.333007812 1032 547 1089.33300781 547 1204 c 0
 547 1220 549 1232.33300781 553 1241 c 0
 575 1314.3359375 622 1381.66894531 694 1443 c 0
 729.333007812 1473.66699219 753 1494.66699219 765 1506 c 0
 784.333007812 1524 812 1540 848 1554 c 0
 859.333007812 1558.66699219 868 1560 874 1558 c 0
 930.666992188 1540 959 1506.66699219 959 1458 c 0
 959 1434 940.666992188 1412.33300781 904 1393 c 1
EndSplineSet
Validated: 524321
EndChar

